  0
SECTION
  2
HEADER
  9
$ACADVER
  1
AC1009
  9
$DWGCODEPAGE
  3
ANSI_1252
  9
$INSBASE
 10
0.0
 20
0.0
 30
0.0
  9
$EXTMIN
 10
1e+20
 20
1e+20
 30
1e+20
  9
$EXTMAX
 10
-1e+20
 20
-1e+20
 30
-1e+20
  9
$LIMMIN
 10
0.0
 20
0.0
  9
$LIMMAX
 10
420.0
 20
297.0
  9
$ORTHOMODE
 70
0
  9
$REGENMODE
 70
1
  9
$FILLMODE
 70
1
  9
$DRAGMODE
 70
2
  9
$QTEXTMODE
 70
0
  9
$MIRRTEXT
 70
1
  9
$OSMODE
 70
20583
  9
$LTSCALE
 40
1.0
  9
$ATTMODE
 70
1
  9
$TEXTSIZE
 40
2.5
  9
$TRACEWID
 40
1.0
  9
$TEXTSTYLE
  7
OpenSans
  9
$CLAYER
  8
0
  9
$CELTYPE
  6
ByLayer
  9
$CECOLOR
 62
256
  9
$DIMSCALE
 40
1.0
  9
$DIMASZ
 40
0.175
  9
$DIMEXO
 40
0.125
  9
$DIMDLI
 40
3.75
  9
$DIMRND
 40
0.0
  9
$DIMDLE
 40
0.0
  9
$DIMEXE
 40
0.375
  9
$DIMTP
 40
0.0
  9
$DIMTM
 40
0.0
  9
$DIMTXT
 40
0.25
  9
$DIMCEN
 40
2.5
  9
$DIMTSZ
 40
0.0
  9
$DIMTOL
 70
0
  9
$DIMLIM
 70
0
  9
$DIMTIH
 70
0
  9
$DIMTOH
 70
0
  9
$DIMSE1
 70
0
  9
$DIMSE2
 70
0
  9
$DIMTAD
 70
1
  9
$DIMZIN
 70
12
  9
$DIMBLK
  1
ARCHTICK
  9
$DIMASO
 70
1
  9
$DIMSHO
 70
1
  9
$DIMPOST
  1

  9
$DIMAPOST
  1

  9
$DIMALT
 70
0
  9
$DIMALTD
 70
3
  9
$DIMALTF
 40
0.03937007874
  9
$DIMLFAC
 40
100.0
  9
$DIMTOFL
 70
1
  9
$DIMTVP
 40
0.0
  9
$DIMTIX
 70
0
  9
$DIMSOXD
 70
0
  9
$DIMSAH
 70
0
  9
$DIMBLK1
  1

  9
$DIMBLK2
  1

  9
$DIMSTYLE
  2
EZDXF
  9
$DIMCLRD
 70
0
  9
$DIMCLRE
 70
0
  9
$DIMCLRT
 70
0
  9
$DIMTFAC
 40
0.5
  9
$DIMGAP
 40
0.1
  9
$COORDS
 70
1
  9
$ATTDIA
 70
0
  9
$ATTREQ
 70
1
  9
$HANDLING
 70
1
  9
$LUNITS
 70
2
  9
$LUPREC
 70
4
  9
$SKETCHINC
 40
1.0
  9
$FILLETRAD
 40
10.0
  9
$AUNITS
 70
0
  9
$AUPREC
 70
2
  9
$MENU
  1
.
  9
$ELEVATION
 40
0.0
  9
$PELEVATION
 40
0.0
  9
$THICKNESS
 40
0.0
  9
$LIMCHECK
 70
0
  9
$CHAMFERA
 40
0.0
  9
$CHAMFERB
 40
0.0
  9
$SKPOLY
 70
0
  9
$TDCREATE
 40
2461250.504074074
  9
$TDUPDATE
 40
2461250.504074074
  9
$TDINDWG
 40
0.0
  9
$TDUSRTIMER
 40
0.0
  9
$USRTIMER
 70
1
  9
$ANGBASE
 50
0.0
  9
$ANGDIR
 70
0
  9
$PDMODE
 70
0
  9
$PDSIZE
 40
0.0
  9
$PLINEWID
 40
0.0
  9
$SPLFRAME
 70
0
  9
$SPLINETYPE
 70
6
  9
$SPLINESEGS
 70
8
  9
$HANDSEED
  5
18E
  9
$SURFTAB1
 70
6
  9
$SURFTAB2
 70
6
  9
$SURFTYPE
 70
6
  9
$SURFU
 70
6
  9
$SURFV
 70
6
  9
$UCSNAME
  2

  9
$UCSORG
 10
0.0
 20
0.0
 30
0.0
  9
$UCSXDIR
 10
1.0
 20
0.0
 30
0.0
  9
$UCSYDIR
 10
0.0
 20
1.0
 30
0.0
  9
$PUCSNAME
  2

  9
$PUCSORG
 10
0.0
 20
0.0
 30
0.0
  9
$PUCSXDIR
 10
1.0
 20
0.0
 30
0.0
  9
$PUCSYDIR
 10
0.0
 20
1.0
 30
0.0
  9
$USERI1
 70
0
  9
$USERI2
 70
0
  9
$USERI3
 70
0
  9
$USERI4
 70
0
  9
$USERI5
 70
0
  9
$USERR1
 40
0.0
  9
$USERR2
 40
0.0
  9
$USERR3
 40
0.0
  9
$USERR4
 40
0.0
  9
$USERR5
 40
0.0
  9
$WORLDVIEW
 70
1
  9
$SHADEDGE
 70
3
  9
$SHADEDIF
 70
70
  9
$TILEMODE
 70
1
  9
$MAXACTVP
 70
64
  9
$PLIMCHECK
 70
0
  9
$PEXTMIN
 10
1e+20
 20
1e+20
 30
1e+20
  9
$PEXTMAX
 10
-1e+20
 20
-1e+20
 30
-1e+20
  9
$PLIMMIN
 10
0.0
 20
0.0
  9
$PLIMMAX
 10
420.0
 20
297.0
  9
$UNITMODE
 70
0
  9
$VISRETAIN
 70
1
  9
$PLINEGEN
 70
0
  9
$PSLTSCALE
 70
1
  0
ENDSEC
  0
SECTION
  2
TABLES
  0
TABLE
  2
VPORT
 70
1
  0
VPORT
  5
23
  2
*Active
 70
0
 10
0.0
 20
0.0
 11
1.0
 21
1.0
 12
0.0
 22
0.0
 13
0.0
 23
0.0
 14
0.5
 24
0.5
 15
0.5
 25
0.5
 16
0.0
 26
0.0
 36
1.0
 17
0.0
 27
0.0
 37
0.0
 40
1000.0
 41
1.34
 42
50.0
 43
0.0
 44
0.0
 50
0.0
 51
0.0
 71
0
 72
1000
 73
1
 74
3
 75
0
 76
0
 77
0
 78
0
  0
ENDTAB
  0
TABLE
  2
LTYPE
 70
21
  0
LTYPE
  5
24
  2
ByBlock
 70
0
  3

 72
65
 73
0
 40
0.0
  0
LTYPE
  5
25
  2
ByLayer
 70
0
  3

 72
65
 73
0
 40
0.0
  0
LTYPE
  5
26
  2
Continuous
 70
0
  3

 72
65
 73
0
 40
0.0
  0
LTYPE
  5
2D
  2
CENTER
 70
0
  3
Center ____ _ ____ _ ____ _ ____ _ ____ _ ____
 72
65
 73
4
 40
5.08
 49
3.175
 49
-0.635
 49
0.635
 49
-0.635
  0
LTYPE
  5
2E
  2
CENTERX2
 70
0
  3
Center (2x) ________  __  ________  __  ________
 72
65
 73
4
 40
8.89
 49
6.35
 49
-0.635
 49
1.27
 49
-0.635
  0
LTYPE
  5
2F
  2
CENTER2
 70
0
  3
Center (.5x) ____ _ ____ _ ____ _ ____ _ ____
 72
65
 73
4
 40
2.54
 49
1.587
 49
-0.318
 49
0.318
 49
-0.318
  0
LTYPE
  5
30
  2
DASHED
 70
0
  3
Dashed __ __ __ __ __ __ __ __ __ __ __ __ __ _
 72
65
 73
2
 40
1.524
 49
1.27
 49
-0.254
  0
LTYPE
  5
31
  2
DASHEDX2
 70
0
  3
Dashed (2x) ____  ____  ____  ____  ____  ____
 72
65
 73
2
 40
3.048
 49
2.54
 49
-0.508
  0
LTYPE
  5
32
  2
DASHED2
 70
0
  3
Dashed (.5x) _ _ _ _ _ _ _ _ _ _ _ _ _ _
 72
65
 73
2
 40
0.762
 49
0.635
 49
-0.127
  0
LTYPE
  5
33
  2
PHANTOM
 70
0
  3
Phantom ______  __  __  ______  __  __  ______
 72
65
 73
6
 40
6.35
 49
3.175
 49
-0.635
 49
0.635
 49
-0.635
 49
0.635
 49
-0.635
  0
LTYPE
  5
34
  2
PHANTOMX2
 70
0
  3
Phantom (2x)____________    ____    ____    ____________
 72
65
 73
6
 40
10.795
 49
6.35
 49
-0.635
 49
1.27
 49
-0.635
 49
1.27
 49
-0.635
  0
LTYPE
  5
35
  2
PHANTOM2
 70
0
  3
Phantom (.5x) ___ _ _ ___ _ _ ___ _ _ ___ _ _ ___
 72
65
 73
6
 40
3.175
 49
1.587
 49
-0.318
 49
0.318
 49
-0.318
 49
0.318
 49
-0.318
  0
LTYPE
  5
36
  2
DASHDOT
 70
0
  3
Dash dot __ . __ . __ . __ . __ . __ . __ . __
 72
65
 73
4
 40
3.556
 49
2.54
 49
-0.508
 49
0.0
 49
-0.508
  0
LTYPE
  5
37
  2
DASHDOTX2
 70
0
  3
Dash dot (2x) ____  .  ____  .  ____  .  ____
 72
65
 73
4
 40
6.096
 49
5.08
 49
-0.508
 49
0.0
 49
-0.508
  0
LTYPE
  5
38
  2
DASHDOT2
 70
0
  3
Dash dot (.5x) _ . _ . _ . _ . _ . _ . _ . _
 72
65
 73
4
 40
1.778
 49
1.27
 49
-0.254
 49
0.0
 49
-0.254
  0
LTYPE
  5
39
  2
DOT
 70
0
  3
Dot .  .  .  .  .  .  .  .  .  .  .  .  .  .  .  .
 72
65
 73
2
 40
0.508
 49
0.0
 49
-0.508
  0
LTYPE
  5
3A
  2
DOTX2
 70
0
  3
Dot (2x) .    .    .    .    .    .    .    . 
 72
65
 73
2
 40
1.016
 49
0.0
 49
-1.016
  0
LTYPE
  5
3B
  2
DOT2
 70
0
  3
Dot (.5) . . . . . . . . . . . . . . . . . . . 
 72
65
 73
2
 40
0.254
 49
0.0
 49
-0.254
  0
LTYPE
  5
3C
  2
DIVIDE
 70
0
  3
Divide __ . . __ . . __ . . __ . . __ . . __
 72
65
 73
6
 40
4.064
 49
2.54
 49
-0.508
 49
0.0
 49
-0.508
 49
0.0
 49
-0.508
  0
LTYPE
  5
3D
  2
DIVIDEX2
 70
0
  3
Divide (2x) ____  . .  ____  . .  ____  . .  ____
 72
65
 73
6
 40
6.604
 49
5.08
 49
-0.508
 49
0.0
 49
-0.508
 49
0.0
 49
-0.508
  0
LTYPE
  5
3E
  2
DIVIDE2
 70
0
  3
Divide(.5x) _ . _ . _ . _ . _ . _ . _ . _
 72
65
 73
6
 40
2.032
 49
1.27
 49
-0.254
 49
0.0
 49
-0.254
 49
0.0
 49
-0.254
  0
ENDTAB
  0
TABLE
  2
LAYER
 70
21
  0
LAYER
  5
27
  2
0
 70
0
 62
7
  6
Continuous
  0
LAYER
  5
28
  2
Defpoints
 70
0
 62
7
  6
Continuous
  0
LAYER
  5
8F
  2
MILL_AREAS
 70
0
 62
1
  6
CONTINUOUS
  0
LAYER
  5
90
  2
MILL_LABELS
 70
0
 62
1
  6
CONTINUOUS
  0
LAYER
  5
91
  2
AGL_AFFECTED_INSIDE
 70
0
 62
1
  6
CONTINUOUS
  0
LAYER
  5
92
  2
AGL_AFFECTED_NEAR
 70
0
 62
30
  6
CONTINUOUS
  0
LAYER
  5
93
  2
AGL_ASSETS_ALL
 70
0
 62
4
  6
CONTINUOUS
  0
LAYER
  5
94
  2
AGL_FEED_PITS
 70
0
 62
6
  6
CONTINUOUS
  0
LAYER
  5
95
  2
DUCTS_CROSSING
 70
0
 62
6
  6
DASHED
  0
LAYER
  5
96
  2
DUCTS_INDICATIVE_ALL
 70
0
 62
8
  6
DASHED2
  0
LAYER
  5
97
  2
LABELS_AFFECTED
 70
0
 62
7
  6
CONTINUOUS
  0
LAYER
  5
98
  2
LABELS_ASSETS_ALL
 70
0
 62
8
  6
CONTINUOUS
  0
LAYER
  5
99
  2
NOTES
 70
0
 62
7
  6
CONTINUOUS
  0
LAYER
  5
9A
  2
AGL_ACT_CORE
 70
0
 62
1
  6
Continuous
  0
LAYER
  5
9B
  2
AGL_ACT_DUMMY
 70
0
 62
30
  6
Continuous
  0
LAYER
  5
9C
  2
AGL_ACT_RRM
 70
0
 62
200
  6
Continuous
  0
LAYER
  5
9D
  2
AGL_ACT_CABLE
 70
0
 62
5
  6
Continuous
  0
LAYER
  5
9E
  2
LABELS_CABLE
 70
0
 62
5
  6
Continuous
  0
LAYER
  5
9F
  2
LEGEND
 70
0
 62
7
  6
Continuous
  0
LAYER
  5
A0
  2
AGL_ACT_REIN
 70
0
 62
3
  6
Continuous
  0
LAYER
  5
A1
  2
TITLE
 70
0
 62
7
  6
Continuous
  0
ENDTAB
  0
TABLE
  2
STYLE
 70
26
  0
STYLE
  5
29
  2
Standard
 70
0
 40
0.0
 41
1.0
 50
0.0
 71
0
 42
2.5
  3
txt
  4

  0
STYLE
  5
3F
  2
OpenSans-Light
 70
0
 40
0.0
 41
1.0
 50
0.0
 71
0
 42
2.5
  3
OpenSans-Light.ttf
  4

  0
STYLE
  5
40
  2
OpenSans-Light-Italic
 70
0
 40
0.0
 41
1.0
 50
0.0
 71
0
 42
2.5
  3
OpenSans-LightItalic.ttf
  4

  0
STYLE
  5
41
  2
OpenSans
 70
0
 40
0.0
 41
1.0
 50
0.0
 71
0
 42
2.5
  3
OpenSans-Regular.ttf
  4

  0
STYLE
  5
42
  2
OpenSans-Italic
 70
0
 40
0.0
 41
1.0
 50
0.0
 71
0
 42
2.5
  3
OpenSans-Italic.ttf
  4

  0
STYLE
  5
43
  2
OpenSans-SemiBold
 70
0
 40
0.0
 41
1.0
 50
0.0
 71
0
 42
2.5
  3
OpenSans-SemiBold.ttf
  4

  0
STYLE
  5
44
  2
OpenSans-SemiBoldItalic
 70
0
 40
0.0
 41
1.0
 50
0.0
 71
0
 42
2.5
  3
OpenSans-SemiBoldItalic.ttf
  4

  0
STYLE
  5
45
  2
OpenSans-Bold
 70
0
 40
0.0
 41
1.0
 50
0.0
 71
0
 42
2.5
  3
OpenSans-Bold.ttf
  4

  0
STYLE
  5
46
  2
OpenSans-BoldItalic
 70
0
 40
0.0
 41
1.0
 50
0.0
 71
0
 42
2.5
  3
OpenSans-BoldItalic.ttf
  4

  0
STYLE
  5
47
  2
OpenSans-ExtraBold
 70
0
 40
0.0
 41
1.0
 50
0.0
 71
0
 42
2.5
  3
OpenSans-ExtraBold.ttf
  4

  0
STYLE
  5
48
  2
OpenSans-ExtraBoldItalic
 70
0
 40
0.0
 41
1.0
 50
0.0
 71
0
 42
2.5
  3
OpenSans-ExtraBoldItalic.ttf
  4

  0
STYLE
  5
49
  2
OpenSansCondensed-Bold
 70
0
 40
0.0
 41
1.0
 50
0.0
 71
0
 42
2.5
  3
OpenSansCondensed-Bold.ttf
  4

  0
STYLE
  5
4A
  2
OpenSansCondensed-Light
 70
0
 40
0.0
 41
1.0
 50
0.0
 71
0
 42
2.5
  3
OpenSansCondensed-Light.ttf
  4

  0
STYLE
  5
4B
  2
OpenSansCondensed-Italic
 70
0
 40
0.0
 41
1.0
 50
0.0
 71
0
 42
2.5
  3
OpenSansCondensed-LightItalic.ttf
  4

  0
STYLE
  5
4C
  2
LiberationSans
 70
0
 40
0.0
 41
1.0
 50
0.0
 71
0
 42
2.5
  3
LiberationSans-Regular.ttf
  4

  0
STYLE
  5
4D
  2
LiberationSans-Bold
 70
0
 40
0.0
 41
1.0
 50
0.0
 71
0
 42
2.5
  3
LiberationSans-Bold.ttf
  4

  0
STYLE
  5
4E
  2
LiberationSans-BoldItalic
 70
0
 40
0.0
 41
1.0
 50
0.0
 71
0
 42
2.5
  3
LiberationSans-BoldItalic.ttf
  4

  0
STYLE
  5
4F
  2
LiberationSans-Italic
 70
0
 40
0.0
 41
1.0
 50
0.0
 71
0
 42
2.5
  3
LiberationSans-Italic.ttf
  4

  0
STYLE
  5
50
  2
LiberationSerif
 70
0
 40
0.0
 41
1.0
 50
0.0
 71
0
 42
2.5
  3
LiberationSerif-Regular.ttf
  4

  0
STYLE
  5
51
  2
LiberationSerif-Bold
 70
0
 40
0.0
 41
1.0
 50
0.0
 71
0
 42
2.5
  3
LiberationSerif-Bold.ttf
  4

  0
STYLE
  5
52
  2
LiberationSerif-BoldItalic
 70
0
 40
0.0
 41
1.0
 50
0.0
 71
0
 42
2.5
  3
LiberationSerif-BoldItalic.ttf
  4

  0
STYLE
  5
53
  2
LiberationSerif-Italic
 70
0
 40
0.0
 41
1.0
 50
0.0
 71
0
 42
2.5
  3
LiberationSerif-Italic.ttf
  4

  0
STYLE
  5
54
  2
LiberationMono
 70
0
 40
0.0
 41
1.0
 50
0.0
 71
0
 42
2.5
  3
LiberationMono-Regular.ttf
  4

  0
STYLE
  5
55
  2
LiberationMono-Bold
 70
0
 40
0.0
 41
1.0
 50
0.0
 71
0
 42
2.5
  3
LiberationMono-Bold.ttf
  4

  0
STYLE
  5
56
  2
LiberationMono-BoldItalic
 70
0
 40
0.0
 41
1.0
 50
0.0
 71
0
 42
2.5
  3
LiberationMono-BoldItalic.ttf
  4

  0
STYLE
  5
57
  2
LiberationMono-Italic
 70
0
 40
0.0
 41
1.0
 50
0.0
 71
0
 42
2.5
  3
LiberationMono-Italic.ttf
  4

  0
ENDTAB
  0
TABLE
  2
VIEW
 70
0
  0
ENDTAB
  0
TABLE
  2
UCS
 70
0
  0
ENDTAB
  0
TABLE
  2
APPID
 70
3
  0
APPID
  5
2A
  2
ACAD
 70
0
  0
APPID
  5
18C
  2
HATCHBACKGROUNDCOLOR
 70
0
  0
APPID
  5
18D
  2
EZDXF
 70
0
  0
ENDTAB
  0
TABLE
  2
DIMSTYLE
 70
12
  0
DIMSTYLE
105
2B
  2
Standard
 70
0
  3

  4

  5

  6

  7

 40
1.0
 41
2.5
 42
0.625
 43
3.75
 44
1.25
 45
0.0
 46
0.0
 47
0.0
 48
0.0
140
2.5
141
2.5
142
0.0
143
0.03937007874
144
1.0
145
0.0
146
1.0
147
0.625
 71
0
 72
0
 73
0
 74
0
 75
0
 76
0
 77
1
 78
8
170
0
171
3
172
1
173
0
174
0
175
0
176
0
177
0
178
0
  0
DIMSTYLE
105
71
  2
EZDXF
 70
0
  3

  4

  5
ARCHTICK
  6

  7

 40
1.0
 41
0.175
 42
0.125
 43
3.75
 44
0.375
 45
0.0
 46
0.0
 47
0.0
 48
0.0
140
0.25
141
2.5
142
0.0
143
0.03937007874
144
100.0
145
0.0
146
0.5
147
0.1
 71
0
 72
0
 73
0
 74
0
 75
0
 76
0
 77
1
 78
12
170
0
171
3
172
1
173
0
174
0
175
0
176
0
177
0
178
0
  0
DIMSTYLE
105
7D
  2
EZ_M_100_H25_CM
 70
0
  3

  4

  5

  6

  7

 40
1.0
 41
0.25
 42
0.125
 43
3.75
 44
0.375
 45
0.0
 46
0.0
 47
0.0
 48
0.0
140
0.25
141
2.5
142
0.125
143
0.03937007874
144
100.0
145
0.0
146
0.5
147
0.1
 71
0
 72
0
 73
0
 74
0
 75
0
 76
0
 77
1
 78
12
170
0
171
3
172
1
173
0
174
0
175
0
176
0
177
0
178
0
  0
DIMSTYLE
105
7E
  2
EZ_M_50_H25_CM
 70
0
  3

  4

  5

  6

  7

 40
1.0
 41
0.125
 42
0.0625
 43
3.75
 44
0.1875
 45
0.0
 46
0.0
 47
0.0
 48
0.0
140
0.125
141
2.5
142
0.0625
143
0.03937007874
144
100.0
145
0.0
146
0.5
147
0.05
 71
0
 72
0
 73
0
 74
0
 75
0
 76
0
 77
1
 78
12
170
0
171
3
172
1
173
0
174
0
175
0
176
0
177
0
178
0
  0
DIMSTYLE
105
7F
  2
EZ_M_25_H25_CM
 70
0
  3

  4

  5

  6

  7

 40
1.0
 41
0.0625
 42
0.03125
 43
3.75
 44
0.09375
 45
0.0
 46
0.0
 47
0.0
 48
0.0
140
0.0625
141
2.5
142
0.03125
143
0.03937007874
144
100.0
145
0.0
146
0.5
147
0.025
 71
0
 72
0
 73
0
 74
0
 75
0
 76
0
 77
1
 78
12
170
0
171
3
172
1
173
0
174
0
175
0
176
0
177
0
178
0
  0
DIMSTYLE
105
80
  2
EZ_M_20_H25_CM
 70
0
  3

  4

  5

  6

  7

 40
1.0
 41
0.05
 42
0.025
 43
3.75
 44
0.07500000000000001
 45
0.0
 46
0.0
 47
0.0
 48
0.0
140
0.05
141
2.5
142
0.025
143
0.03937007874
144
100.0
145
0.0
146
0.5
147
0.020000000000000004
 71
0
 72
0
 73
0
 74
0
 75
0
 76
0
 77
1
 78
12
170
0
171
3
172
1
173
0
174
0
175
0
176
0
177
0
178
0
  0
DIMSTYLE
105
81
  2
EZ_M_10_H25_CM
 70
0
  3

  4

  5

  6

  7

 40
1.0
 41
0.025
 42
0.0125
 43
3.75
 44
0.037500000000000006
 45
0.0
 46
0.0
 47
0.0
 48
0.0
140
0.025
141
2.5
142
0.0125
143
0.03937007874
144
100.0
145
0.0
146
0.5
147
0.010000000000000002
 71
0
 72
0
 73
0
 74
0
 75
0
 76
0
 77
1
 78
12
170
0
171
3
172
1
173
0
174
0
175
0
176
0
177
0
178
0
  0
DIMSTYLE
105
82
  2
EZ_M_5_H25_CM
 70
0
  3

  4

  5

  6

  7

 40
1.0
 41
0.0125
 42
0.00625
 43
3.75
 44
0.018750000000000003
 45
0.0
 46
0.0
 47
0.0
 48
0.0
140
0.0125
141
2.5
142
0.00625
143
0.03937007874
144
100.0
145
0.0
146
0.5
147
0.005000000000000001
 71
0
 72
0
 73
0
 74
0
 75
0
 76
0
 77
1
 78
12
170
0
171
3
172
1
173
0
174
0
175
0
176
0
177
0
178
0
  0
DIMSTYLE
105
83
  2
EZ_M_1_H25_CM
 70
0
  3

  4

  5

  6

  7

 40
1.0
 41
0.0025
 42
0.00125
 43
3.75
 44
0.00375
 45
0.0
 46
0.0
 47
0.0
 48
0.0
140
0.0025
141
2.5
142
0.00125
143
0.03937007874
144
100.0
145
0.0
146
0.5
147
0.001
 71
0
 72
0
 73
0
 74
0
 75
0
 76
0
 77
1
 78
12
170
0
171
3
172
1
173
0
174
0
175
0
176
0
177
0
178
0
  0
DIMSTYLE
105
84
  2
EZ_RADIUS
 70
0
  3

  4

  5
CLOSEDBLANK
  6

  7

 40
1.0
 41
0.25
 42
0.125
 43
3.75
 44
0.375
 45
0.0
 46
0.0
 47
0.0
 48
0.0
140
0.25
141
0.0
142
0.0
143
0.03937007874
144
100.0
145
0.0
146
0.5
147
0.1
 71
0
 72
0
 73
0
 74
0
 75
0
 76
0
 77
1
 78
12
170
0
171
3
172
0
173
0
174
0
175
0
176
0
177
0
178
0
  0
DIMSTYLE
105
8D
  2
EZ_RADIUS_INSIDE
 70
0
  3

  4

  5
CLOSEDBLANK
  6

  7

 40
1.0
 41
0.25
 42
0.125
 43
3.75
 44
0.375
 45
0.0
 46
0.0
 47
0.0
 48
0.0
140
0.25
141
0.0
142
0.0
143
0.03937007874
144
100.0
145
0.0
146
0.5
147
0.1
 71
0
 72
0
 73
0
 74
0
 75
0
 76
0
 77
0
 78
12
170
0
171
3
172
0
173
0
174
1
175
0
176
0
177
0
178
0
  0
DIMSTYLE
105
8E
  2
EZ_CURVED
 70
0
  3

  4

  5

  6

  7

 40
1.0
 41
0.25
 42
0.125
 43
3.75
 44
0.375
 45
0.0
 46
0.0
 47
0.0
 48
0.0
140
0.25
141
2.5
142
0.0
143
0.03937007874
144
100.0
145
0.0
146
0.5
147
0.1
 71
0
 72
0
 73
0
 74
0
 75
0
 76
0
 77
1
 78
12
170
0
171
3
172
1
173
0
174
0
175
0
176
0
177
0
178
0
  0
ENDTAB
  0
ENDSEC
  0
SECTION
  2
BLOCKS
  0
BLOCK
  5
18
  8
0
  2
$Model_Space
 70
0
 10
0.0
 20
0.0
 30
0.0
  3
$Model_Space
  1

1001
EZDXF
1000
CREATED_BY_EZDXF
1000
1.4.4 @ 2026-07-28T12:05:52.742741+00:00
1000
WRITTEN_BY_EZDXF
1000
1.4.4 @ 2026-07-28T12:05:52.761429+00:00
  0
ENDBLK
  5
19
  8
0
  0
BLOCK
  5
1C
  8
0
  2
$Paper_Space
 70
0
 10
0.0
 20
0.0
 30
0.0
  3
$Paper_Space
  1

  0
ENDBLK
  5
1D
  8
0
  0
BLOCK
  5
73
  8
0
  2
_ARCHTICK
 70
0
 10
0.0
 20
0.0
 30
0.0
  3
_ARCHTICK
  1

  0
POLYLINE
  5
75
  8
0
  6
BYBLOCK
 62
0
 66
1
 10
0.0
 20
0.0
 30
0.0
 70
0
 40
0.15
 41
0.15
  0
VERTEX
  5
77
  8
0
  6
BYBLOCK
 10
-0.5
 20
-0.5
 30
0.0
 70
0
  0
VERTEX
  5
78
  8
0
  6
BYBLOCK
 10
0.5
 20
0.5
 30
0.0
 70
0
  0
SEQEND
  5
76
  8
0
  0
ENDBLK
  5
74
  8
0
  0
BLOCK
  5
7A
  8
0
  2
_CLOSEDFILLED
 70
0
 10
0.0
 20
0.0
 30
0.0
  3
_CLOSEDFILLED
  1

  0
SOLID
  5
7C
  8
0
  6
BYBLOCK
 62
0
 10
-1.0
 20
0.16439898372402537
 30
0.0
 11
0.0
 21
0.0
 31
0.0
 12
-1.0
 22
-0.16439898372402537
 32
0.0
 13
-1.0
 23
-0.16439898372402537
 33
0.0
  0
ENDBLK
  5
7B
  8
0
  0
BLOCK
  5
86
  8
0
  2
_CLOSEDBLANK
 70
0
 10
0.0
 20
0.0
 30
0.0
  3
_CLOSEDBLANK
  1

  0
POLYLINE
  5
88
  8
0
  6
BYBLOCK
 62
0
 66
1
 10
0.0
 20
0.0
 30
0.0
 70
1
  0
VERTEX
  5
8A
  8
0
  6
BYBLOCK
 10
-1.0
 20
0.16439898372402537
 30
0.0
 70
0
  0
VERTEX
  5
8B
  8
0
  6
BYBLOCK
 10
0.0
 20
0.0
 30
0.0
 70
0
  0
VERTEX
  5
8C
  8
0
  6
BYBLOCK
 10
-1.0
 20
-0.16439898372402537
 30
0.0
 70
0
  0
SEQEND
  5
89
  8
0
  0
ENDBLK
  5
87
  8
0
  0
ENDSEC
  0
SECTION
  2
ENTITIES
  0
POLYLINE
  5
A2
  8
MILL_AREAS
 66
1
 10
0.0
 20
0.0
 30
0.0
 70
1
  0
VERTEX
  5
A4
  8
MILL_AREAS
 10
260874.462
 20
2704679.034
 30
0.0
 70
0
  0
VERTEX
  5
A5
  8
MILL_AREAS
 10
260854.951
 20
2704694.694
 30
0.0
 70
0
  0
VERTEX
  5
A6
  8
MILL_AREAS
 10
260848.57
 20
2704686.736
 30
0.0
 70
0
  0
VERTEX
  5
A7
  8
MILL_AREAS
 10
260868.079
 20
2704671.07
 30
0.0
 70
0
  0
SEQEND
  5
A3
  8
MILL_AREAS
  0
TEXT
  5
A8
  8
MILL_LABELS
 10
260861.5155
 20
2704682.8835
 30
0.0
 40
0.8
  1
L03-A  255.28 m2
 72
1
 11
260861.5155
 21
2704682.8835
 31
0.0
 73
2
  0
CIRCLE
  5
A9
  8
MILL_AREAS
 10
260874.462
 20
2704679.034
 30
0.0
 40
0.15
  0
CIRCLE
  5
AA
  8
MILL_AREAS
 10
260854.951
 20
2704694.694
 30
0.0
 40
0.15
  0
CIRCLE
  5
AB
  8
MILL_AREAS
 10
260848.57
 20
2704686.736
 30
0.0
 40
0.15
  0
CIRCLE
  5
AC
  8
MILL_AREAS
 10
260868.079
 20
2704671.07
 30
0.0
 40
0.15
  0
CIRCLE
  5
AD
  8
AGL_ASSETS_ALL
 10
260887.086
 20
2704667.999
 30
0.0
 40
0.25
  0
TEXT
  5
AE
  8
LABELS_ASSETS_ALL
 10
260887.43600000002
 20
2704668.2989999996
 30
0.0
 40
0.3
  1
RRM.283
 11
260887.43600000002
 21
2704668.2989999996
 31
0.0
 73
1
  0
CIRCLE
  5
AF
  8
AGL_ASSETS_ALL
 10
260850.976
 20
2704710.059
 30
0.0
 40
0.25
  0
TEXT
  5
B0
  8
LABELS_ASSETS_ALL
 10
260851.326
 20
2704710.3589999997
 30
0.0
 40
0.3
  1
P4.036.399
 11
260851.326
 21
2704710.3589999997
 31
0.0
 73
1
  0
CIRCLE
  5
B1
  8
AGL_ASSETS_ALL
 10
260887.158
 20
2704651.119
 30
0.0
 40
0.25
  0
TEXT
  5
B2
  8
LABELS_ASSETS_ALL
 10
260887.508
 20
2704651.4189999998
 30
0.0
 40
0.3
  1
TCCECH.04.005
 11
260887.508
 21
2704651.4189999998
 31
0.0
 73
1
  0
CIRCLE
  5
B3
  8
AGL_ASSETS_ALL
 10
260875.475
 20
2704660.496
 30
0.0
 40
0.25
  0
TEXT
  5
B4
  8
LABELS_ASSETS_ALL
 10
260875.825
 20
2704660.7959999996
 30
0.0
 40
0.3
  1
TCCECH.04.004
 11
260875.825
 21
2704660.7959999996
 31
0.0
 73
1
  0
CIRCLE
  5
B5
  8
AGL_ASSETS_ALL
 10
260848.728
 20
2704667.434
 30
0.0
 40
0.25
  0
TEXT
  5
B6
  8
LABELS_ASSETS_ALL
 10
260849.078
 20
2704667.7339999997
 30
0.0
 40
0.3
  1
RRM.547
 11
260849.078
 21
2704667.7339999997
 31
0.0
 73
1
  0
CIRCLE
  5
B7
  8
AGL_ASSETS_ALL
 10
260831.782
 20
2704679.137
 30
0.0
 40
0.25
  0
TEXT
  5
B8
  8
LABELS_ASSETS_ALL
 10
260832.132
 20
2704679.437
 30
0.0
 40
0.3
  1
RRM.548
 11
260832.132
 21
2704679.437
 31
0.0
 73
1
  0
CIRCLE
  5
B9
  8
AGL_ACT_RRM
 10
260871.99
 20
2704681.111
 30
0.0
 40
0.5
  0
CIRCLE
  5
BA
  8
AGL_ACT_RRM
 10
260871.99
 20
2704681.111
 30
0.0
 40
0.275
  0
TEXT
  5
BB
  8
LABELS_AFFECTED
 10
260872.69
 20
2704681.611
 30
0.0
 40
0.45
  1
22 RRM.557 (0.07m L03-A)
 11
260872.69
 21
2704681.611
 31
0.0
 73
1
  0
CIRCLE
  5
BC
  8
AGL_ASSETS_ALL
 10
260838.723
 20
2704711.376
 30
0.0
 40
0.25
  0
TEXT
  5
BD
  8
LABELS_ASSETS_ALL
 10
260839.073
 20
2704711.676
 30
0.0
 40
0.3
  1
RRM.558
 11
260839.073
 21
2704711.676
 31
0.0
 73
1
  0
CIRCLE
  5
BE
  8
AGL_ASSETS_ALL
 10
260829.282
 20
2704722.951
 30
0.0
 40
0.25
  0
TEXT
  5
BF
  8
LABELS_ASSETS_ALL
 10
260829.632
 20
2704723.2509999997
 30
0.0
 40
0.3
  1
RRM.559
 11
260829.632
 21
2704723.2509999997
 31
0.0
 73
1
  0
CIRCLE
  5
C0
  8
AGL_ASSETS_ALL
 10
260818.817
 20
2704686.339
 30
0.0
 40
0.25
  0
TEXT
  5
C1
  8
LABELS_ASSETS_ALL
 10
260819.16700000002
 20
2704686.639
 30
0.0
 40
0.3
  1
RRM.655
 11
260819.16700000002
 21
2704686.639
 31
0.0
 73
1
  0
CIRCLE
  5
C2
  8
AGL_ASSETS_ALL
 10
260849.501
 20
2704700.887
 30
0.0
 40
0.25
  0
TEXT
  5
C3
  8
LABELS_ASSETS_ALL
 10
260849.851
 20
2704701.187
 30
0.0
 40
0.3
  1
RRM.669
 11
260849.851
 21
2704701.187
 31
0.0
 73
1
  0
CIRCLE
  5
C4
  8
AGL_ACT_RRM
 10
260860.795
 20
2704690.943
 30
0.0
 40
0.5
  0
CIRCLE
  5
C5
  8
AGL_ACT_RRM
 10
260860.795
 20
2704690.943
 30
0.0
 40
0.275
  0
TEXT
  5
C6
  8
LABELS_AFFECTED
 10
260861.49500000002
 20
2704691.443
 30
0.0
 40
0.45
  1
23 RRM.670 (0.73m L03-A)
 11
260861.49500000002
 21
2704691.443
 31
0.0
 73
1
  0
CIRCLE
  5
C7
  8
AGL_ASSETS_ALL
 10
260833.577
 20
2704659.492
 30
0.0
 40
0.25
  0
TEXT
  5
C8
  8
LABELS_ASSETS_ALL
 10
260833.927
 20
2704659.792
 30
0.0
 40
0.3
  1
HH.E.144
 11
260833.927
 21
2704659.792
 31
0.0
 73
1
  0
CIRCLE
  5
C9
  8
AGL_ASSETS_ALL
 10
260898.861
 20
2704641.718
 30
0.0
 40
0.25
  0
TEXT
  5
CA
  8
LABELS_ASSETS_ALL
 10
260899.211
 20
2704642.0179999997
 30
0.0
 40
0.3
  1
TCCECH.03.006
 11
260899.211
 21
2704642.0179999997
 31
0.0
 73
1
  0
CIRCLE
  5
CB
  8
AGL_ASSETS_ALL
 10
260869.617
 20
2704665.202
 30
0.0
 40
0.25
  0
TEXT
  5
CC
  8
LABELS_ASSETS_ALL
 10
260869.967
 20
2704665.502
 30
0.0
 40
0.3
  1
TCCECH.03.004
 11
260869.967
 21
2704665.502
 31
0.0
 73
1
  0
CIRCLE
  5
CD
  8
AGL_ASSETS_ALL
 10
260863.744
 20
2704669.882
 30
0.0
 40
0.25
  0
TEXT
  5
CE
  8
LABELS_ASSETS_ALL
 10
260864.094
 20
2704670.182
 30
0.0
 40
0.3
  1
TCCECH.04.003
 11
260864.094
 21
2704670.182
 31
0.0
 73
1
  0
CIRCLE
  5
CF
  8
AGL_ASSETS_ALL
 10
260857.92
 20
2704674.589
 30
0.0
 40
0.25
  0
TEXT
  5
D0
  8
LABELS_ASSETS_ALL
 10
260858.27000000002
 20
2704674.889
 30
0.0
 40
0.3
  1
TCCECH.03.003
 11
260858.27000000002
 21
2704674.889
 31
0.0
 73
1
  0
CIRCLE
  5
D1
  8
AGL_ASSETS_ALL
 10
260852.058
 20
2704679.31
 30
0.0
 40
0.25
  0
TEXT
  5
D2
  8
LABELS_ASSETS_ALL
 10
260852.408
 20
2704679.61
 30
0.0
 40
0.3
  1
TCCECH.04.002
 11
260852.408
 21
2704679.61
 31
0.0
 73
1
  0
CIRCLE
  5
D3
  8
AGL_ASSETS_ALL
 10
260881.322
 20
2704655.819
 30
0.0
 40
0.25
  0
TEXT
  5
D4
  8
LABELS_ASSETS_ALL
 10
260881.672
 20
2704656.119
 30
0.0
 40
0.3
  1
TCCECH.03.005
 11
260881.672
 21
2704656.119
 31
0.0
 73
1
  0
CIRCLE
  5
D5
  8
AGL_ASSETS_ALL
 10
260825.648
 20
2704698.239
 30
0.0
 40
0.25
  0
TEXT
  5
D6
  8
LABELS_ASSETS_ALL
 10
260825.998
 20
2704698.539
 30
0.0
 40
0.3
  1
TCCECH.05.033
 11
260825.998
 21
2704698.539
 31
0.0
 73
1
  0
CIRCLE
  5
D7
  8
AGL_ASSETS_ALL
 10
260832.138
 20
2704694.451
 30
0.0
 40
0.25
  0
TEXT
  5
D8
  8
LABELS_ASSETS_ALL
 10
260832.488
 20
2704694.7509999997
 30
0.0
 40
0.3
  1
TCCECH.06.035
 11
260832.488
 21
2704694.7509999997
 31
0.0
 73
1
  0
CIRCLE
  5
D9
  8
AGL_ASSETS_ALL
 10
260818.919
 20
2704701.529
 30
0.0
 40
0.25
  0
TEXT
  5
DA
  8
LABELS_ASSETS_ALL
 10
260819.269
 20
2704701.829
 30
0.0
 40
0.3
  1
TCCECH.06.036
 11
260819.269
 21
2704701.829
 31
0.0
 73
1
  0
CIRCLE
  5
DB
  8
AGL_ASSETS_ALL
 10
260821.313
 20
2704701.81
 30
0.0
 40
0.25
  0
TEXT
  5
DC
  8
LABELS_ASSETS_ALL
 10
260821.663
 20
2704702.11
 30
0.0
 40
0.3
  1
EL.EBASE.13329
 11
260821.663
 21
2704702.11
 31
0.0
 73
1
  0
CIRCLE
  5
DD
  8
AGL_ASSETS_ALL
 10
260827.948
 20
2704698.262
 30
0.0
 40
0.25
  0
TEXT
  5
DE
  8
LABELS_ASSETS_ALL
 10
260828.298
 20
2704698.562
 30
0.0
 40
0.3
  1
EL.EBASE.13330
 11
260828.298
 21
2704698.562
 31
0.0
 73
1
  0
CIRCLE
  5
DF
  8
AGL_ASSETS_ALL
 10
260834.272
 20
2704694.276
 30
0.0
 40
0.25
  0
TEXT
  5
E0
  8
LABELS_ASSETS_ALL
 10
260834.622
 20
2704694.576
 30
0.0
 40
0.3
  1
EL.EBASE.13331
 11
260834.622
 21
2704694.576
 31
0.0
 73
1
  0
CIRCLE
  5
E1
  8
AGL_ASSETS_ALL
 10
260846.204
 20
2704683.98
 30
0.0
 40
0.25
  0
TEXT
  5
E2
  8
LABELS_ASSETS_ALL
 10
260846.554
 20
2704684.28
 30
0.0
 40
0.3
  1
TCCECH.03.002
 11
260846.554
 21
2704684.28
 31
0.0
 73
1
  0
CIRCLE
  5
E3
  8
AGL_ACT_DUMMY
 10
260852.411
 20
2704692.495
 30
0.0
 40
0.5
  0
CIRCLE
  5
E4
  8
AGL_ACT_DUMMY
 10
260852.411
 20
2704692.495
 30
0.0
 40
0.275
  0
TEXT
  5
E5
  8
LABELS_AFFECTED
 10
260853.111
 20
2704692.995
 30
0.0
 40
0.45
  1
24 SBC102.01.038 (0.61m L03-A)
 11
260853.111
 21
2704692.995
 31
0.0
 73
1
  0
CIRCLE
  5
E6
  8
AGL_ACT_DUMMY
 10
260850.527
 20
2704690.141
 30
0.0
 40
0.5
  0
CIRCLE
  5
E7
  8
AGL_ACT_DUMMY
 10
260850.527
 20
2704690.141
 30
0.0
 40
0.275
  0
TEXT
  5
E8
  8
LABELS_AFFECTED
 10
260851.227
 20
2704690.641
 30
0.0
 40
0.45
  1
26 SBC102.02.035 (0.6m L03-A)
 11
260851.227
 21
2704690.641
 31
0.0
 73
1
  0
CIRCLE
  5
E9
  8
AGL_ACT_DUMMY
 10
260848.647
 20
2704687.783
 30
0.0
 40
0.5
  0
CIRCLE
  5
EA
  8
AGL_ACT_DUMMY
 10
260848.647
 20
2704687.783
 30
0.0
 40
0.275
  0
TEXT
  5
EB
  8
LABELS_AFFECTED
 10
260849.347
 20
2704688.283
 30
0.0
 40
0.45
  1
25 SBC102.01.039 (0.6m L03-A)
 11
260849.347
 21
2704688.283
 31
0.0
 73
1
  0
CIRCLE
  5
EC
  8
AGL_ACT_DUMMY
 10
260846.783
 20
2704685.439
 30
0.0
 40
0.5
  0
CIRCLE
  5
ED
  8
AGL_ACT_DUMMY
 10
260846.783
 20
2704685.439
 30
0.0
 40
0.275
  0
TEXT
  5
EE
  8
LABELS_AFFECTED
 10
260847.483
 20
2704685.939
 30
0.0
 40
0.45
  1
27 SBC102.02.036 (2.21m L03-A)
 11
260847.483
 21
2704685.939
 31
0.0
 73
1
  0
CIRCLE
  5
EF
  8
AGL_ASSETS_ALL
 10
260844.902
 20
2704683.114
 30
0.0
 40
0.25
  0
TEXT
  5
F0
  8
LABELS_ASSETS_ALL
 10
260845.252
 20
2704683.414
 30
0.0
 40
0.3
  1
SBC102.01.040
 11
260845.252
 21
2704683.414
 31
0.0
 73
1
  0
CIRCLE
  5
F1
  8
AGL_ASSETS_ALL
 10
260843.011
 20
2704680.776
 30
0.0
 40
0.25
  0
TEXT
  5
F2
  8
LABELS_ASSETS_ALL
 10
260843.361
 20
2704681.076
 30
0.0
 40
0.3
  1
SBC102.02.037
 11
260843.361
 21
2704681.076
 31
0.0
 73
1
  0
CIRCLE
  5
F3
  8
AGL_ASSETS_ALL
 10
260841.134
 20
2704678.432
 30
0.0
 40
0.25
  0
TEXT
  5
F4
  8
LABELS_ASSETS_ALL
 10
260841.484
 20
2704678.732
 30
0.0
 40
0.3
  1
SBC102.01.041
 11
260841.484
 21
2704678.732
 31
0.0
 73
1
  0
CIRCLE
  5
F5
  8
AGL_ASSETS_ALL
 10
260839.265
 20
2704676.09
 30
0.0
 40
0.25
  0
TEXT
  5
F6
  8
LABELS_ASSETS_ALL
 10
260839.61500000002
 20
2704676.3899999997
 30
0.0
 40
0.3
  1
SBC102.02.038
 11
260839.61500000002
 21
2704676.3899999997
 31
0.0
 73
1
  0
CIRCLE
  5
F7
  8
AGL_ASSETS_ALL
 10
260828.667
 20
2704698.02
 30
0.0
 40
0.25
  0
TEXT
  5
F8
  8
LABELS_ASSETS_ALL
 10
260829.017
 20
2704698.32
 30
0.0
 40
0.3
  1
TCC102.02.050
 11
260829.017
 21
2704698.32
 31
0.0
 73
1
  0
CIRCLE
  5
F9
  8
AGL_ASSETS_ALL
 10
260838.357
 20
2704690.266
 30
0.0
 40
0.25
  0
TEXT
  5
FA
  8
LABELS_ASSETS_ALL
 10
260838.707
 20
2704690.5659999996
 30
0.0
 40
0.3
  1
TCCECH.03.001
 11
260838.707
 21
2704690.5659999996
 31
0.0
 73
1
  0
CIRCLE
  5
FB
  8
AGL_ASSETS_ALL
 10
260819.5
 20
2704710.14
 30
0.0
 40
0.25
  0
TEXT
  5
FC
  8
LABELS_ASSETS_ALL
 10
260819.85
 20
2704710.44
 30
0.0
 40
0.3
  1
TCCECH.05.017
 11
260819.85
 21
2704710.44
 31
0.0
 73
1
  0
CIRCLE
  5
FD
  8
AGL_ASSETS_ALL
 10
260834.525
 20
2704693.355
 30
0.0
 40
0.25
  0
TEXT
  5
FE
  8
LABELS_ASSETS_ALL
 10
260834.875
 20
2704693.655
 30
0.0
 40
0.3
  1
TCCECH.06.019
 11
260834.875
 21
2704693.655
 31
0.0
 73
1
  0
CIRCLE
  5
FF
  8
AGL_ASSETS_ALL
 10
260824.093
 20
2704704.217
 30
0.0
 40
0.25
  0
TEXT
  5
100
  8
LABELS_ASSETS_ALL
 10
260824.443
 20
2704704.517
 30
0.0
 40
0.3
  1
TCCECH.06.018
 11
260824.443
 21
2704704.517
 31
0.0
 73
1
  0
CIRCLE
  5
101
  8
AGL_ASSETS_ALL
 10
260840.391
 20
2704688.644
 30
0.0
 40
0.25
  0
TEXT
  5
102
  8
LABELS_ASSETS_ALL
 10
260840.741
 20
2704688.9439999997
 30
0.0
 40
0.3
  1
TCCECH.04.001
 11
260840.741
 21
2704688.9439999997
 31
0.0
 73
1
  0
CIRCLE
  5
103
  8
AGL_ASSETS_ALL
 10
260829.124
 20
2704698.661
 30
0.0
 40
0.25
  0
TEXT
  5
104
  8
LABELS_ASSETS_ALL
 10
260829.47400000002
 20
2704698.9609999997
 30
0.0
 40
0.3
  1
TCCECH.05.018
 11
260829.47400000002
 21
2704698.9609999997
 31
0.0
 73
1
  0
CIRCLE
  5
105
  8
AGL_ASSETS_ALL
 10
260860.736
 20
2704699.365
 30
0.0
 40
0.25
  0
TEXT
  5
106
  8
LABELS_ASSETS_ALL
 10
260861.086
 20
2704699.665
 30
0.0
 40
0.3
  1
P4.037
 11
260861.086
 21
2704699.665
 31
0.0
 73
1
  0
CIRCLE
  5
107
  8
AGL_ASSETS_ALL
 10
260892.942
 20
2704672.332
 30
0.0
 40
0.25
  0
TEXT
  5
108
  8
LABELS_ASSETS_ALL
 10
260893.29200000002
 20
2704672.6319999998
 30
0.0
 40
0.3
  1
P4.039
 11
260893.29200000002
 21
2704672.6319999998
 31
0.0
 73
1
  0
CIRCLE
  5
109
  8
AGL_ASSETS_ALL
 10
260897.182
 20
2704677.025
 30
0.0
 40
0.25
  0
TEXT
  5
10A
  8
LABELS_ASSETS_ALL
 10
260897.532
 20
2704677.3249999997
 30
0.0
 40
0.3
  1
HH.E.057
 11
260897.532
 21
2704677.3249999997
 31
0.0
 73
1
  0
CIRCLE
  5
10B
  8
AGL_ASSETS_ALL
 10
260863.584
 20
2704705.744
 30
0.0
 40
0.25
  0
TEXT
  5
10C
  8
LABELS_ASSETS_ALL
 10
260863.934
 20
2704706.0439999998
 30
0.0
 40
0.3
  1
HH.E.061
 11
260863.934
 21
2704706.0439999998
 31
0.0
 73
1
  0
CIRCLE
  5
10D
  8
AGL_ASSETS_ALL
 10
260865.685
 20
2704704.046
 30
0.0
 40
0.25
  0
TEXT
  5
10E
  8
LABELS_ASSETS_ALL
 10
260866.035
 20
2704704.346
 30
0.0
 40
0.3
  1
HH.E.060
 11
260866.035
 21
2704704.346
 31
0.0
 73
1
  0
CIRCLE
  5
10F
  8
AGL_ASSETS_ALL
 10
260849.014
 20
2704719.955
 30
0.0
 40
0.25
  0
TEXT
  5
110
  8
LABELS_ASSETS_ALL
 10
260849.364
 20
2704720.255
 30
0.0
 40
0.3
  1
HH.E4.010
 11
260849.364
 21
2704720.255
 31
0.0
 73
1
  0
CIRCLE
  5
111
  8
AGL_ASSETS_ALL
 10
260886.171
 20
2704685.745
 30
0.0
 40
0.25
  0
TEXT
  5
112
  8
LABELS_ASSETS_ALL
 10
260886.521
 20
2704686.045
 30
0.0
 40
0.3
  1
HH.E.058
 11
260886.521
 21
2704686.045
 31
0.0
 73
1
  0
CIRCLE
  5
113
  8
AGL_ASSETS_ALL
 10
260876.598
 20
2704695.549
 30
0.0
 40
0.25
  0
TEXT
  5
114
  8
LABELS_ASSETS_ALL
 10
260876.948
 20
2704695.849
 30
0.0
 40
0.3
  1
HH.E.059
 11
260876.948
 21
2704695.849
 31
0.0
 73
1
  0
CIRCLE
  5
115
  8
AGL_ASSETS_ALL
 10
260822.781
 20
2704674.857
 30
0.0
 40
0.25
  0
TEXT
  5
116
  8
LABELS_ASSETS_ALL
 10
260823.131
 20
2704675.1569999997
 30
0.0
 40
0.3
  1
P4.041
 11
260823.131
 21
2704675.1569999997
 31
0.0
 73
1
  0
CIRCLE
  5
117
  8
AGL_ASSETS_ALL
 10
260852.515
 20
2704717.014
 30
0.0
 40
0.25
  0
TEXT
  5
118
  8
LABELS_ASSETS_ALL
 10
260852.86500000002
 20
2704717.314
 30
0.0
 40
0.3
  1
MH.E.015
 11
260852.86500000002
 21
2704717.314
 31
0.0
 73
1
  0
CIRCLE
  5
119
  8
AGL_ASSETS_ALL
 10
260822.69
 20
2704654.181
 30
0.0
 40
0.25
  0
TEXT
  5
11A
  8
LABELS_ASSETS_ALL
 10
260823.04
 20
2704654.4809999997
 30
0.0
 40
0.3
  1
SGC102.02.015
 11
260823.04
 21
2704654.4809999997
 31
0.0
 73
1
  0
CIRCLE
  5
11B
  8
AGL_ASSETS_ALL
 10
260863.709
 20
2704713.999
 30
0.0
 40
0.25
  0
TEXT
  5
11C
  8
LABELS_ASSETS_ALL
 10
260864.059
 20
2704714.2989999996
 30
0.0
 40
0.3
  1
SGC102.02.014
 11
260864.059
 21
2704714.2989999996
 31
0.0
 73
1
  0
LINE
  5
11D
  8
DUCTS_INDICATIVE_ALL
 10
260887.158
 20
2704651.119
 30
0.0
 11
260892.942
 21
2704672.332
 31
0.0
  0
LINE
  5
11E
  8
DUCTS_INDICATIVE_ALL
 10
260875.475
 20
2704660.496
 30
0.0
 11
260892.942
 21
2704672.332
 31
0.0
  0
LINE
  5
11F
  8
DUCTS_INDICATIVE_ALL
 10
260898.861
 20
2704641.718
 30
0.0
 11
260916.1
 21
2704650.107
 31
0.0
  0
LINE
  5
120
  8
DUCTS_INDICATIVE_ALL
 10
260869.617
 20
2704665.202
 30
0.0
 11
260892.942
 21
2704672.332
 31
0.0
  0
LINE
  5
121
  8
DUCTS_CROSSING
 10
260863.744
 20
2704669.882
 30
0.0
 11
260886.171
 21
2704685.745
 31
0.0
  0
LINE
  5
122
  8
DUCTS_CROSSING
 10
260857.92
 20
2704674.589
 30
0.0
 11
260860.736
 21
2704699.365
 31
0.0
  0
LINE
  5
123
  8
DUCTS_CROSSING
 10
260852.058
 20
2704679.31
 30
0.0
 11
260860.736
 21
2704699.365
 31
0.0
  0
LINE
  5
124
  8
DUCTS_INDICATIVE_ALL
 10
260881.322
 20
2704655.819
 30
0.0
 11
260892.942
 21
2704672.332
 31
0.0
  0
LINE
  5
125
  8
DUCTS_INDICATIVE_ALL
 10
260825.648
 20
2704698.239
 30
0.0
 11
260822.781
 21
2704674.857
 31
0.0
  0
LINE
  5
126
  8
DUCTS_INDICATIVE_ALL
 10
260832.138
 20
2704694.451
 30
0.0
 11
260822.781
 21
2704674.857
 31
0.0
  0
LINE
  5
127
  8
DUCTS_INDICATIVE_ALL
 10
260818.919
 20
2704701.529
 30
0.0
 11
260822.781
 21
2704674.857
 31
0.0
  0
LINE
  5
128
  8
DUCTS_CROSSING
 10
260846.204
 20
2704683.98
 30
0.0
 11
260860.736
 21
2704699.365
 31
0.0
  0
LINE
  5
129
  8
DUCTS_CROSSING
 10
260852.411
 20
2704692.495
 30
0.0
 11
260860.736
 21
2704699.365
 31
0.0
  0
LINE
  5
12A
  8
DUCTS_CROSSING
 10
260850.527
 20
2704690.141
 30
0.0
 11
260860.736
 21
2704699.365
 31
0.0
  0
LINE
  5
12B
  8
DUCTS_CROSSING
 10
260848.647
 20
2704687.783
 30
0.0
 11
260860.736
 21
2704699.365
 31
0.0
  0
LINE
  5
12C
  8
DUCTS_CROSSING
 10
260846.783
 20
2704685.439
 30
0.0
 11
260860.736
 21
2704699.365
 31
0.0
  0
LINE
  5
12D
  8
DUCTS_CROSSING
 10
260844.902
 20
2704683.114
 30
0.0
 11
260860.736
 21
2704699.365
 31
0.0
  0
LINE
  5
12E
  8
DUCTS_INDICATIVE_ALL
 10
260843.011
 20
2704680.776
 30
0.0
 11
260822.781
 21
2704674.857
 31
0.0
  0
LINE
  5
12F
  8
DUCTS_INDICATIVE_ALL
 10
260841.134
 20
2704678.432
 30
0.0
 11
260822.781
 21
2704674.857
 31
0.0
  0
LINE
  5
130
  8
DUCTS_INDICATIVE_ALL
 10
260839.265
 20
2704676.09
 30
0.0
 11
260822.781
 21
2704674.857
 31
0.0
  0
LINE
  5
131
  8
DUCTS_INDICATIVE_ALL
 10
260828.667
 20
2704698.02
 30
0.0
 11
260822.781
 21
2704674.857
 31
0.0
  0
LINE
  5
132
  8
DUCTS_INDICATIVE_ALL
 10
260838.357
 20
2704690.266
 30
0.0
 11
260822.781
 21
2704674.857
 31
0.0
  0
LINE
  5
133
  8
DUCTS_INDICATIVE_ALL
 10
260819.5
 20
2704710.14
 30
0.0
 11
260829.691
 21
2704735.023
 31
0.0
  0
LINE
  5
134
  8
DUCTS_INDICATIVE_ALL
 10
260834.525
 20
2704693.355
 30
0.0
 11
260822.781
 21
2704674.857
 31
0.0
  0
LINE
  5
135
  8
DUCTS_INDICATIVE_ALL
 10
260824.093
 20
2704704.217
 30
0.0
 11
260850.976
 21
2704710.059
 31
0.0
  0
LINE
  5
136
  8
DUCTS_INDICATIVE_ALL
 10
260840.391
 20
2704688.644
 30
0.0
 11
260822.781
 21
2704674.857
 31
0.0
  0
LINE
  5
137
  8
DUCTS_INDICATIVE_ALL
 10
260829.124
 20
2704698.661
 30
0.0
 11
260822.781
 21
2704674.857
 31
0.0
  0
POLYLINE
  5
138
  8
AGL_FEED_PITS
 66
1
 10
0.0
 20
0.0
 30
0.0
 70
1
  0
VERTEX
  5
13A
  8
AGL_FEED_PITS
 10
260860.036
 20
2704698.665
 30
0.0
 70
0
  0
VERTEX
  5
13B
  8
AGL_FEED_PITS
 10
260861.43600000002
 20
2704698.665
 30
0.0
 70
0
  0
VERTEX
  5
13C
  8
AGL_FEED_PITS
 10
260861.43600000002
 20
2704700.0650000004
 30
0.0
 70
0
  0
VERTEX
  5
13D
  8
AGL_FEED_PITS
 10
260860.036
 20
2704700.0650000004
 30
0.0
 70
0
  0
SEQEND
  5
139
  8
AGL_FEED_PITS
  0
TEXT
  5
13E
  8
AGL_FEED_PITS
 10
260861.636
 20
2704700.0650000004
 30
0.0
 40
0.5
  1
P4.037
 11
260861.636
 21
2704700.0650000004
 31
0.0
 73
1
  0
POLYLINE
  5
13F
  8
AGL_FEED_PITS
 66
1
 10
0.0
 20
0.0
 30
0.0
 70
1
  0
VERTEX
  5
141
  8
AGL_FEED_PITS
 10
260885.471
 20
2704685.045
 30
0.0
 70
0
  0
VERTEX
  5
142
  8
AGL_FEED_PITS
 10
260886.871
 20
2704685.045
 30
0.0
 70
0
  0
VERTEX
  5
143
  8
AGL_FEED_PITS
 10
260886.871
 20
2704686.4450000003
 30
0.0
 70
0
  0
VERTEX
  5
144
  8
AGL_FEED_PITS
 10
260885.471
 20
2704686.4450000003
 30
0.0
 70
0
  0
SEQEND
  5
140
  8
AGL_FEED_PITS
  0
TEXT
  5
145
  8
AGL_FEED_PITS
 10
260887.071
 20
2704686.4450000003
 30
0.0
 40
0.5
  1
HH.E.058
 11
260887.071
 21
2704686.4450000003
 31
0.0
 73
1
  0
CIRCLE
  5
146
  8
AGL_ACT_CABLE
 10
260844.902
 20
2704683.114
 30
0.0
 40
0.5
  0
CIRCLE
  5
147
  8
AGL_ACT_CABLE
 10
260844.902
 20
2704683.114
 30
0.0
 40
0.28
  0
TEXT
  5
148
  8
LABELS_CABLE
 10
260845.602
 20
2704683.614
 30
0.0
 40
0.45
  1
NC SBC102.01.040
 11
260845.602
 21
2704683.614
 31
0.0
  0
CIRCLE
  5
149
  8
AGL_ACT_CABLE
 10
260846.204
 20
2704683.98
 30
0.0
 40
0.5
  0
CIRCLE
  5
14A
  8
AGL_ACT_CABLE
 10
260846.204
 20
2704683.98
 30
0.0
 40
0.28
  0
TEXT
  5
14B
  8
LABELS_CABLE
 10
260846.904
 20
2704684.48
 30
0.0
 40
0.45
  1
NC TCCECH.03.002
 11
260846.904
 21
2704684.48
 31
0.0
  0
CIRCLE
  5
14C
  8
AGL_ACT_CABLE
 10
260857.92
 20
2704674.589
 30
0.0
 40
0.5
  0
CIRCLE
  5
14D
  8
AGL_ACT_CABLE
 10
260857.92
 20
2704674.589
 30
0.0
 40
0.28
  0
TEXT
  5
14E
  8
LABELS_CABLE
 10
260858.62000000002
 20
2704675.089
 30
0.0
 40
0.45
  1
NC TCCECH.03.003
 11
260858.62000000002
 21
2704675.089
 31
0.0
  0
CIRCLE
  5
14F
  8
AGL_ACT_CABLE
 10
260852.058
 20
2704679.31
 30
0.0
 40
0.5
  0
CIRCLE
  5
150
  8
AGL_ACT_CABLE
 10
260852.058
 20
2704679.31
 30
0.0
 40
0.28
  0
TEXT
  5
151
  8
LABELS_CABLE
 10
260852.758
 20
2704679.81
 30
0.0
 40
0.45
  1
NC TCCECH.04.002
 11
260852.758
 21
2704679.81
 31
0.0
  0
CIRCLE
  5
152
  8
AGL_ACT_CABLE
 10
260863.744
 20
2704669.882
 30
0.0
 40
0.5
  0
CIRCLE
  5
153
  8
AGL_ACT_CABLE
 10
260863.744
 20
2704669.882
 30
0.0
 40
0.28
  0
TEXT
  5
154
  8
LABELS_CABLE
 10
260864.44400000002
 20
2704670.382
 30
0.0
 40
0.45
  1
NC TCCECH.04.003
 11
260864.44400000002
 21
2704670.382
 31
0.0
  0
CIRCLE
  5
155
  8
AGL_ACT_CABLE
 10
260841.134
 20
2704678.432
 30
0.0
 40
0.5
  0
CIRCLE
  5
156
  8
AGL_ACT_CABLE
 10
260841.134
 20
2704678.432
 30
0.0
 40
0.28
  0
TEXT
  5
157
  8
LABELS_CABLE
 10
260841.834
 20
2704678.932
 30
0.0
 40
0.45
  1
NC SBC102.01.041
 11
260841.834
 21
2704678.932
 31
0.0
  0
CIRCLE
  5
158
  8
AGL_ACT_CABLE
 10
260843.011
 20
2704680.776
 30
0.0
 40
0.5
  0
CIRCLE
  5
159
  8
AGL_ACT_CABLE
 10
260843.011
 20
2704680.776
 30
0.0
 40
0.28
  0
TEXT
  5
15A
  8
LABELS_CABLE
 10
260843.711
 20
2704681.276
 30
0.0
 40
0.45
  1
NC SBC102.02.037
 11
260843.711
 21
2704681.276
 31
0.0
  0
CIRCLE
  5
15B
  8
AGL_ACT_CABLE
 10
260839.265
 20
2704676.09
 30
0.0
 40
0.5
  0
CIRCLE
  5
15C
  8
AGL_ACT_CABLE
 10
260839.265
 20
2704676.09
 30
0.0
 40
0.28
  0
TEXT
  5
15D
  8
LABELS_CABLE
 10
260839.96500000003
 20
2704676.59
 30
0.0
 40
0.45
  1
NC SBC102.02.038
 11
260839.96500000003
 21
2704676.59
 31
0.0
  0
TEXT
  5
15E
  8
TITLE
 10
260818.57
 20
2704634.67
 30
0.0
 40
1.6
  1
SHOP DRAWING - ELECTRICAL / AGL SCOPE
  0
TEXT
  5
15F
  8
TITLE
 10
260818.57
 20
2704632.87
 30
0.0
 40
1.0
  1
TAXIWAY E (E4-E6) - LOCATION 3 - CIVIL MILLING AFFECTED AREA
  0
TEXT
  5
160
  8
TITLE
 10
260818.57
 20
2704631.33
 30
0.0
 40
0.7
  1
DWG NO: XXX-ELE-SHD-1003 REV P02  �  SCALE 1:250 @ A1  �  UTM 40N (EPSG:32640)  �  ISSUED 27.07.2026  �  PREPARED: MOHAMMED, AGL TEAM LEADER - ADB SAFEGATE AGL TEAM
  0
TEXT
  5
161
  8
TITLE
 10
260818.57
 20
2704630.0700000003
 30
0.0
 40
0.7
  1
REFS: AS-BUILT ASSET SURVEY assets_20260726120533.xlsx � AGL IMPACT FINAL 27.07.2026 � CIVIL DWG IZ-ADAC-056-2024-TO9-RT-02 � AGL DUCT-LAYOUT CAD [REV B - PENDING]
  0
TEXT
  5
162
  8
TITLE
 10
260818.57
 20
2704627.0700000003
 30
0.0
 40
1.0
  1
LOCATION DATA / QUANTITIES
  0
TEXT
  5
163
  8
TITLE
 10
260818.57
 20
2704625.9150000005
 30
0.0
 40
0.7
  1
MILLING AREA L03-A = 255.28 m2
  0
TEXT
  5
164
  8
TITLE
 10
260818.57
 20
2704624.7600000007
 30
0.0
 40
0.7
  1
FITTINGS INSIDE CUT: 0  �  CORE-OUTS: 0
  0
TEXT
  5
165
  8
TITLE
 10
260818.57
 20
2704623.605000001
 30
0.0
 40
0.7
  1
DUMMY PLATES ON RETAINED BASES: 4 - SBC102-01/038/039, SBC102-02/035/036 (EP7 STOP BAR, BASES AFFECTED PER FIELD REV _1)
  0
TEXT
  5
166
  8
TITLE
 10
260818.57
 20
2704622.450000001
 30
0.0
 40
0.7
  1
RRM.557 (0.07 m - TREAT AS WITHIN WORKS, REMOVE BEFORE SAWCUT) � RRM.670 (0.73 m): REMOVE / PROTECT / RE-FIX
  0
TEXT
  5
167
  8
TITLE
 10
260818.57
 20
2704621.2950000013
 30
0.0
 40
0.7
  1
SECONDARY RUNS AFFECTED: 12 (4 SAWCUT + 8 DUCT) = 358.5 m
  0
TEXT
  5
168
  8
TITLE
 10
260818.57
 20
2704620.1400000015
 30
0.0
 40
0.7
  1
FEED HANDHOLES: HH.E.058, HH.E.059, HH.E.061, HH.E.144  �  ISOLATE CIRCUITS: SBC102.01/.02, TCCECH.03/.04
  0
TEXT
  5
169
  8
TITLE
 10
260818.57
 20
2704618.9850000017
 30
0.0
 40
0.7
  1
FIELD ADDITIONS SBC102-01/041, SBC102-02/037/038 (CHAINED EP7 DUCTS) - FIELD-CONFIRMED ROUTES GOVERN
  0
TEXT
  5
16A
  8
TITLE
 10
260818.57
 20
2704615.9850000017
 30
0.0
 40
1.0
  1
GENERAL NOTES
  0
TEXT
  5
16B
  8
TITLE
 10
260818.57
 20
2704614.830000002
 30
0.0
 40
0.7
  1
1. BASE LAYER: AS-BUILT AGL ASSET SURVEY assets_20260726120533.xlsx (636 ASSETS, UTM 40N / EPSG:32640). ALL ASSET POSITIONS AS-BUILT - DO NOT SCALE FROM CIVIL DRAWING.
  0
TEXT
  5
16C
  8
TITLE
 10
260818.57
 20
2704613.675000002
 30
0.0
 40
0.7
  1
2. CIVIL MILLING DEMARCATION PER DWG IZ-ADAC-056-2024-TO9-RT-02 - OVERLAY ONLY.
  0
TEXT
  5
16D
  8
TITLE
 10
260818.57
 20
2704612.5200000023
 30
0.0
 40
0.7
  1
3. DUCT ROUTES INDICATIVE (LIGHT -> NEAREST MH/HH). CONFIRM AGAINST AGL DUCT-LAYOUT CAD (REV B) BEFORE WORKS.
  0
TEXT
  5
16E
  8
TITLE
 10
260818.57
 20
2704611.3650000026
 30
0.0
 40
0.7
  1
4. SECONDARY CABLES: NO JOINTS PERMITTED - FULL MANHOLE-TO-LIGHT REPLACEMENT.
  0
TEXT
  5
16F
  8
TITLE
 10
260818.57
 20
2704610.2100000028
 30
0.0
 40
0.7
  1
5. ISOLATE, LOCK OUT & PROVE DEAD ALL LISTED CIRCUITS AT CCR UNDER PERMIT BEFORE ANY CUTTING, CORING OR EXCAVATION.
  0
TEXT
  5
170
  8
TITLE
 10
260818.57
 20
2704609.055000003
 30
0.0
 40
0.7
  1
6. CIVIL WORKS: SAWCUT, MILL 120 mm, GEOGRID + 60 BINDER + 60 PMB WEARING COURSE PER CIVIL DWG.
  0
TEXT
  5
171
  8
TITLE
 10
260818.57
 20
2704607.900000003
 30
0.0
 40
0.7
  1
7. REINSTATEMENT SETTING-OUT BY CIVIL SURVEY FROM AS-BUILT EASTING/NORTHING (UTM 40N), CHECKED AGAINST ADJACENT UNDISTURBED FITTINGS BEFORE CORING.
  0
TEXT
  5
172
  8
TITLE
 10
260818.57
 20
2704604.900000003
 30
0.0
 40
1.0
  1
LEGEND - WORKS ACTIONS
  0
CIRCLE
  5
173
  8
AGL_ACT_CORE
 10
260819.57
 20
2704603.700000003
 30
0.0
 40
0.45
  0
TEXT
  5
174
  8
TITLE
 10
260821.57
 20
2704603.400000003
 30
0.0
 40
0.7
  1
CORE OUT SHALLOW BASE - NO DUMMY PLATE
  0
CIRCLE
  5
175
  8
AGL_ACT_REIN
 10
260819.57
 20
2704602.200000003
 30
0.0
 40
0.45
  0
TEXT
  5
176
  8
TITLE
 10
260821.57
 20
2704601.900000003
 30
0.0
 40
0.7
  1
REINSTATEMENT FITTING - SITE RECORD
  0
CIRCLE
  5
177
  8
AGL_ACT_DUMMY
 10
260819.57
 20
2704600.700000003
 30
0.0
 40
0.45
  0
TEXT
  5
178
  8
TITLE
 10
260821.57
 20
2704600.400000003
 30
0.0
 40
0.7
  1
DUMMY PLATE - BASE RETAINED
  0
CIRCLE
  5
179
  8
AGL_ACT_CABLE
 10
260819.57
 20
2704599.200000003
 30
0.0
 40
0.45
  0
TEXT
  5
17A
  8
TITLE
 10
260821.57
 20
2704598.900000003
 30
0.0
 40
0.7
  1
NEW SECONDARY CABLE ONLY
  0
CIRCLE
  5
17B
  8
AGL_ACT_RRM
 10
260819.57
 20
2704597.700000003
 30
0.0
 40
0.45
  0
TEXT
  5
17C
  8
TITLE
 10
260821.57
 20
2704597.400000003
 30
0.0
 40
0.7
  1
RRM - REMOVE / PROTECT
  0
LINE
  5
17D
  8
DUCTS_CROSSING
 10
260818.57
 20
2704596.200000003
 30
0.0
 11
260820.57
 21
2704596.200000003
 31
0.0
  0
TEXT
  5
17E
  8
TITLE
 10
260821.57
 20
2704595.900000003
 30
0.0
 40
0.7
  1
SECONDARY DUCT RUN CROSSING CUT
  0
LINE
  5
17F
  8
DUCTS_INDICATIVE_ALL
 10
260818.57
 20
2704594.700000003
 30
0.0
 11
260820.57
 21
2704594.700000003
 31
0.0
  0
TEXT
  5
180
  8
TITLE
 10
260821.57
 20
2704594.400000003
 30
0.0
 40
0.7
  1
INDICATIVE - LIGHT TO NEAREST PIT
  0
POLYLINE
  5
181
  8
MILL_AREAS
 66
1
 10
0.0
 20
0.0
 30
0.0
 70
1
  0
VERTEX
  5
183
  8
MILL_AREAS
 10
260818.57
 20
2704592.900000003
 30
0.0
 70
0
  0
VERTEX
  5
184
  8
MILL_AREAS
 10
260820.57
 20
2704592.900000003
 30
0.0
 70
0
  0
VERTEX
  5
185
  8
MILL_AREAS
 10
260820.57
 20
2704593.700000003
 30
0.0
 70
0
  0
VERTEX
  5
186
  8
MILL_AREAS
 10
260818.57
 20
2704593.700000003
 30
0.0
 70
0
  0
SEQEND
  5
182
  8
MILL_AREAS
  0
TEXT
  5
187
  8
TITLE
 10
260821.57
 20
2704592.900000003
 30
0.0
 40
0.7
  1
CIVIL MILLING DEMARCATION
  0
CIRCLE
  5
188
  8
AGL_ASSETS_ALL
 10
260819.57
 20
2704591.700000003
 30
0.0
 40
0.45
  0
TEXT
  5
189
  8
TITLE
 10
260821.57
 20
2704591.400000003
 30
0.0
 40
0.7
  1
EXISTING AGL ASSET (AS-BUILT)
  0
CIRCLE
  5
18A
  8
AGL_FEED_PITS
 10
260819.57
 20
2704590.200000003
 30
0.0
 40
0.45
  0
TEXT
  5
18B
  8
TITLE
 10
260821.57
 20
2704589.900000003
 30
0.0
 40
0.7
  1
AGL FEED MANHOLE / HANDHOLE
  0
ENDSEC
  0
EOF
