  0
SECTION
  2
HEADER
  9
$ACADVER
  1
AC1009
  9
$DWGCODEPAGE
  3
ANSI_1252
  9
$INSBASE
 10
0.0
 20
0.0
 30
0.0
  9
$EXTMIN
 10
1e+20
 20
1e+20
 30
1e+20
  9
$EXTMAX
 10
-1e+20
 20
-1e+20
 30
-1e+20
  9
$LIMMIN
 10
0.0
 20
0.0
  9
$LIMMAX
 10
420.0
 20
297.0
  9
$ORTHOMODE
 70
0
  9
$REGENMODE
 70
1
  9
$FILLMODE
 70
1
  9
$DRAGMODE
 70
2
  9
$QTEXTMODE
 70
0
  9
$MIRRTEXT
 70
1
  9
$OSMODE
 70
20583
  9
$LTSCALE
 40
1.0
  9
$ATTMODE
 70
1
  9
$TEXTSIZE
 40
2.5
  9
$TRACEWID
 40
1.0
  9
$TEXTSTYLE
  7
OpenSans
  9
$CLAYER
  8
0
  9
$CELTYPE
  6
ByLayer
  9
$CECOLOR
 62
256
  9
$DIMSCALE
 40
1.0
  9
$DIMASZ
 40
0.175
  9
$DIMEXO
 40
0.125
  9
$DIMDLI
 40
3.75
  9
$DIMRND
 40
0.0
  9
$DIMDLE
 40
0.0
  9
$DIMEXE
 40
0.375
  9
$DIMTP
 40
0.0
  9
$DIMTM
 40
0.0
  9
$DIMTXT
 40
0.25
  9
$DIMCEN
 40
2.5
  9
$DIMTSZ
 40
0.0
  9
$DIMTOL
 70
0
  9
$DIMLIM
 70
0
  9
$DIMTIH
 70
0
  9
$DIMTOH
 70
0
  9
$DIMSE1
 70
0
  9
$DIMSE2
 70
0
  9
$DIMTAD
 70
1
  9
$DIMZIN
 70
12
  9
$DIMBLK
  1
ARCHTICK
  9
$DIMASO
 70
1
  9
$DIMSHO
 70
1
  9
$DIMPOST
  1

  9
$DIMAPOST
  1

  9
$DIMALT
 70
0
  9
$DIMALTD
 70
3
  9
$DIMALTF
 40
0.03937007874
  9
$DIMLFAC
 40
100.0
  9
$DIMTOFL
 70
1
  9
$DIMTVP
 40
0.0
  9
$DIMTIX
 70
0
  9
$DIMSOXD
 70
0
  9
$DIMSAH
 70
0
  9
$DIMBLK1
  1

  9
$DIMBLK2
  1

  9
$DIMSTYLE
  2
EZDXF
  9
$DIMCLRD
 70
0
  9
$DIMCLRE
 70
0
  9
$DIMCLRT
 70
0
  9
$DIMTFAC
 40
0.5
  9
$DIMGAP
 40
0.1
  9
$COORDS
 70
1
  9
$ATTDIA
 70
0
  9
$ATTREQ
 70
1
  9
$HANDLING
 70
1
  9
$LUNITS
 70
2
  9
$LUPREC
 70
4
  9
$SKETCHINC
 40
1.0
  9
$FILLETRAD
 40
10.0
  9
$AUNITS
 70
0
  9
$AUPREC
 70
2
  9
$MENU
  1
.
  9
$ELEVATION
 40
0.0
  9
$PELEVATION
 40
0.0
  9
$THICKNESS
 40
0.0
  9
$LIMCHECK
 70
0
  9
$CHAMFERA
 40
0.0
  9
$CHAMFERB
 40
0.0
  9
$SKPOLY
 70
0
  9
$TDCREATE
 40
2461250.569039352
  9
$TDUPDATE
 40
2461250.569039352
  9
$TDINDWG
 40
0.0
  9
$TDUSRTIMER
 40
0.0
  9
$USRTIMER
 70
1
  9
$ANGBASE
 50
0.0
  9
$ANGDIR
 70
0
  9
$PDMODE
 70
0
  9
$PDSIZE
 40
0.0
  9
$PLINEWID
 40
0.0
  9
$SPLFRAME
 70
0
  9
$SPLINETYPE
 70
6
  9
$SPLINESEGS
 70
8
  9
$HANDSEED
  5
14D
  9
$SURFTAB1
 70
6
  9
$SURFTAB2
 70
6
  9
$SURFTYPE
 70
6
  9
$SURFU
 70
6
  9
$SURFV
 70
6
  9
$UCSNAME
  2

  9
$UCSORG
 10
0.0
 20
0.0
 30
0.0
  9
$UCSXDIR
 10
1.0
 20
0.0
 30
0.0
  9
$UCSYDIR
 10
0.0
 20
1.0
 30
0.0
  9
$PUCSNAME
  2

  9
$PUCSORG
 10
0.0
 20
0.0
 30
0.0
  9
$PUCSXDIR
 10
1.0
 20
0.0
 30
0.0
  9
$PUCSYDIR
 10
0.0
 20
1.0
 30
0.0
  9
$USERI1
 70
0
  9
$USERI2
 70
0
  9
$USERI3
 70
0
  9
$USERI4
 70
0
  9
$USERI5
 70
0
  9
$USERR1
 40
0.0
  9
$USERR2
 40
0.0
  9
$USERR3
 40
0.0
  9
$USERR4
 40
0.0
  9
$USERR5
 40
0.0
  9
$WORLDVIEW
 70
1
  9
$SHADEDGE
 70
3
  9
$SHADEDIF
 70
70
  9
$TILEMODE
 70
1
  9
$MAXACTVP
 70
64
  9
$PLIMCHECK
 70
0
  9
$PEXTMIN
 10
1e+20
 20
1e+20
 30
1e+20
  9
$PEXTMAX
 10
-1e+20
 20
-1e+20
 30
-1e+20
  9
$PLIMMIN
 10
0.0
 20
0.0
  9
$PLIMMAX
 10
420.0
 20
297.0
  9
$UNITMODE
 70
0
  9
$VISRETAIN
 70
1
  9
$PLINEGEN
 70
0
  9
$PSLTSCALE
 70
1
  0
ENDSEC
  0
SECTION
  2
TABLES
  0
TABLE
  2
VPORT
 70
1
  0
VPORT
  5
23
  2
*Active
 70
0
 10
0.0
 20
0.0
 11
1.0
 21
1.0
 12
0.0
 22
0.0
 13
0.0
 23
0.0
 14
0.5
 24
0.5
 15
0.5
 25
0.5
 16
0.0
 26
0.0
 36
1.0
 17
0.0
 27
0.0
 37
0.0
 40
1000.0
 41
1.34
 42
50.0
 43
0.0
 44
0.0
 50
0.0
 51
0.0
 71
0
 72
1000
 73
1
 74
3
 75
0
 76
0
 77
0
 78
0
  0
ENDTAB
  0
TABLE
  2
LTYPE
 70
21
  0
LTYPE
  5
24
  2
ByBlock
 70
0
  3

 72
65
 73
0
 40
0.0
  0
LTYPE
  5
25
  2
ByLayer
 70
0
  3

 72
65
 73
0
 40
0.0
  0
LTYPE
  5
26
  2
Continuous
 70
0
  3

 72
65
 73
0
 40
0.0
  0
LTYPE
  5
2D
  2
CENTER
 70
0
  3
Center ____ _ ____ _ ____ _ ____ _ ____ _ ____
 72
65
 73
4
 40
5.08
 49
3.175
 49
-0.635
 49
0.635
 49
-0.635
  0
LTYPE
  5
2E
  2
CENTERX2
 70
0
  3
Center (2x) ________  __  ________  __  ________
 72
65
 73
4
 40
8.89
 49
6.35
 49
-0.635
 49
1.27
 49
-0.635
  0
LTYPE
  5
2F
  2
CENTER2
 70
0
  3
Center (.5x) ____ _ ____ _ ____ _ ____ _ ____
 72
65
 73
4
 40
2.54
 49
1.587
 49
-0.318
 49
0.318
 49
-0.318
  0
LTYPE
  5
30
  2
DASHED
 70
0
  3
Dashed __ __ __ __ __ __ __ __ __ __ __ __ __ _
 72
65
 73
2
 40
1.524
 49
1.27
 49
-0.254
  0
LTYPE
  5
31
  2
DASHEDX2
 70
0
  3
Dashed (2x) ____  ____  ____  ____  ____  ____
 72
65
 73
2
 40
3.048
 49
2.54
 49
-0.508
  0
LTYPE
  5
32
  2
DASHED2
 70
0
  3
Dashed (.5x) _ _ _ _ _ _ _ _ _ _ _ _ _ _
 72
65
 73
2
 40
0.762
 49
0.635
 49
-0.127
  0
LTYPE
  5
33
  2
PHANTOM
 70
0
  3
Phantom ______  __  __  ______  __  __  ______
 72
65
 73
6
 40
6.35
 49
3.175
 49
-0.635
 49
0.635
 49
-0.635
 49
0.635
 49
-0.635
  0
LTYPE
  5
34
  2
PHANTOMX2
 70
0
  3
Phantom (2x)____________    ____    ____    ____________
 72
65
 73
6
 40
10.795
 49
6.35
 49
-0.635
 49
1.27
 49
-0.635
 49
1.27
 49
-0.635
  0
LTYPE
  5
35
  2
PHANTOM2
 70
0
  3
Phantom (.5x) ___ _ _ ___ _ _ ___ _ _ ___ _ _ ___
 72
65
 73
6
 40
3.175
 49
1.587
 49
-0.318
 49
0.318
 49
-0.318
 49
0.318
 49
-0.318
  0
LTYPE
  5
36
  2
DASHDOT
 70
0
  3
Dash dot __ . __ . __ . __ . __ . __ . __ . __
 72
65
 73
4
 40
3.556
 49
2.54
 49
-0.508
 49
0.0
 49
-0.508
  0
LTYPE
  5
37
  2
DASHDOTX2
 70
0
  3
Dash dot (2x) ____  .  ____  .  ____  .  ____
 72
65
 73
4
 40
6.096
 49
5.08
 49
-0.508
 49
0.0
 49
-0.508
  0
LTYPE
  5
38
  2
DASHDOT2
 70
0
  3
Dash dot (.5x) _ . _ . _ . _ . _ . _ . _ . _
 72
65
 73
4
 40
1.778
 49
1.27
 49
-0.254
 49
0.0
 49
-0.254
  0
LTYPE
  5
39
  2
DOT
 70
0
  3
Dot .  .  .  .  .  .  .  .  .  .  .  .  .  .  .  .
 72
65
 73
2
 40
0.508
 49
0.0
 49
-0.508
  0
LTYPE
  5
3A
  2
DOTX2
 70
0
  3
Dot (2x) .    .    .    .    .    .    .    . 
 72
65
 73
2
 40
1.016
 49
0.0
 49
-1.016
  0
LTYPE
  5
3B
  2
DOT2
 70
0
  3
Dot (.5) . . . . . . . . . . . . . . . . . . . 
 72
65
 73
2
 40
0.254
 49
0.0
 49
-0.254
  0
LTYPE
  5
3C
  2
DIVIDE
 70
0
  3
Divide __ . . __ . . __ . . __ . . __ . . __
 72
65
 73
6
 40
4.064
 49
2.54
 49
-0.508
 49
0.0
 49
-0.508
 49
0.0
 49
-0.508
  0
LTYPE
  5
3D
  2
DIVIDEX2
 70
0
  3
Divide (2x) ____  . .  ____  . .  ____  . .  ____
 72
65
 73
6
 40
6.604
 49
5.08
 49
-0.508
 49
0.0
 49
-0.508
 49
0.0
 49
-0.508
  0
LTYPE
  5
3E
  2
DIVIDE2
 70
0
  3
Divide(.5x) _ . _ . _ . _ . _ . _ . _ . _
 72
65
 73
6
 40
2.032
 49
1.27
 49
-0.254
 49
0.0
 49
-0.254
 49
0.0
 49
-0.254
  0
ENDTAB
  0
TABLE
  2
LAYER
 70
19
  0
LAYER
  5
27
  2
0
 70
0
 62
7
  6
Continuous
  0
LAYER
  5
28
  2
Defpoints
 70
0
 62
7
  6
Continuous
  0
LAYER
  5
8F
  2
AGL_ASSETS_ALL
 70
0
 62
4
  6
CONTINUOUS
  0
LAYER
  5
90
  2
AGL_FEED_PITS
 70
0
 62
6
  6
CONTINUOUS
  0
LAYER
  5
91
  2
DUCTS_CROSSING
 70
0
 62
6
  6
DASHED
  0
LAYER
  5
92
  2
DUCTS_INDICATIVE_ALL
 70
0
 62
8
  6
DASHED2
  0
LAYER
  5
93
  2
LABELS_ASSETS_ALL
 70
0
 62
8
  6
CONTINUOUS
  0
LAYER
  5
94
  2
AGL_WORKS_DEMARCATION
 70
0
 62
1
  6
Continuous
  0
LAYER
  5
95
  2
MARK_CENTERLINE
 70
0
 62
2
  6
DASHDOT
  0
LAYER
  5
96
  2
MARK_STOPBAR
 70
0
 62
12
  6
Continuous
  0
LAYER
  5
97
  2
MARK_EDGE
 70
0
 62
8
  6
Continuous
  0
LAYER
  5
98
  2
LABELS_WORKS
 70
0
 62
7
  6
Continuous
  0
LAYER
  5
99
  2
TITLE
 70
0
 62
7
  6
Continuous
  0
LAYER
  5
9A
  2
ACT_CORE_DUCT
 70
0
 62
1
  6
Continuous
  0
LAYER
  5
9B
  2
ACT_CORE_SAW
 70
0
 62
1
  6
Continuous
  0
LAYER
  5
9C
  2
ACT_CABLE_DUCT
 70
0
 62
5
  6
Continuous
  0
LAYER
  5
9D
  2
ACT_CABLE_SAW
 70
0
 62
30
  6
Continuous
  0
LAYER
  5
9E
  2
ACT_NOT_AFFECTED
 70
0
 62
8
  6
Continuous
  0
LAYER
  5
9F
  2
ACT_RRM
 70
0
 62
6
  6
Continuous
  0
ENDTAB
  0
TABLE
  2
STYLE
 70
26
  0
STYLE
  5
29
  2
Standard
 70
0
 40
0.0
 41
1.0
 50
0.0
 71
0
 42
2.5
  3
txt
  4

  0
STYLE
  5
3F
  2
OpenSans-Light
 70
0
 40
0.0
 41
1.0
 50
0.0
 71
0
 42
2.5
  3
OpenSans-Light.ttf
  4

  0
STYLE
  5
40
  2
OpenSans-Light-Italic
 70
0
 40
0.0
 41
1.0
 50
0.0
 71
0
 42
2.5
  3
OpenSans-LightItalic.ttf
  4

  0
STYLE
  5
41
  2
OpenSans
 70
0
 40
0.0
 41
1.0
 50
0.0
 71
0
 42
2.5
  3
OpenSans-Regular.ttf
  4

  0
STYLE
  5
42
  2
OpenSans-Italic
 70
0
 40
0.0
 41
1.0
 50
0.0
 71
0
 42
2.5
  3
OpenSans-Italic.ttf
  4

  0
STYLE
  5
43
  2
OpenSans-SemiBold
 70
0
 40
0.0
 41
1.0
 50
0.0
 71
0
 42
2.5
  3
OpenSans-SemiBold.ttf
  4

  0
STYLE
  5
44
  2
OpenSans-SemiBoldItalic
 70
0
 40
0.0
 41
1.0
 50
0.0
 71
0
 42
2.5
  3
OpenSans-SemiBoldItalic.ttf
  4

  0
STYLE
  5
45
  2
OpenSans-Bold
 70
0
 40
0.0
 41
1.0
 50
0.0
 71
0
 42
2.5
  3
OpenSans-Bold.ttf
  4

  0
STYLE
  5
46
  2
OpenSans-BoldItalic
 70
0
 40
0.0
 41
1.0
 50
0.0
 71
0
 42
2.5
  3
OpenSans-BoldItalic.ttf
  4

  0
STYLE
  5
47
  2
OpenSans-ExtraBold
 70
0
 40
0.0
 41
1.0
 50
0.0
 71
0
 42
2.5
  3
OpenSans-ExtraBold.ttf
  4

  0
STYLE
  5
48
  2
OpenSans-ExtraBoldItalic
 70
0
 40
0.0
 41
1.0
 50
0.0
 71
0
 42
2.5
  3
OpenSans-ExtraBoldItalic.ttf
  4

  0
STYLE
  5
49
  2
OpenSansCondensed-Bold
 70
0
 40
0.0
 41
1.0
 50
0.0
 71
0
 42
2.5
  3
OpenSansCondensed-Bold.ttf
  4

  0
STYLE
  5
4A
  2
OpenSansCondensed-Light
 70
0
 40
0.0
 41
1.0
 50
0.0
 71
0
 42
2.5
  3
OpenSansCondensed-Light.ttf
  4

  0
STYLE
  5
4B
  2
OpenSansCondensed-Italic
 70
0
 40
0.0
 41
1.0
 50
0.0
 71
0
 42
2.5
  3
OpenSansCondensed-LightItalic.ttf
  4

  0
STYLE
  5
4C
  2
LiberationSans
 70
0
 40
0.0
 41
1.0
 50
0.0
 71
0
 42
2.5
  3
LiberationSans-Regular.ttf
  4

  0
STYLE
  5
4D
  2
LiberationSans-Bold
 70
0
 40
0.0
 41
1.0
 50
0.0
 71
0
 42
2.5
  3
LiberationSans-Bold.ttf
  4

  0
STYLE
  5
4E
  2
LiberationSans-BoldItalic
 70
0
 40
0.0
 41
1.0
 50
0.0
 71
0
 42
2.5
  3
LiberationSans-BoldItalic.ttf
  4

  0
STYLE
  5
4F
  2
LiberationSans-Italic
 70
0
 40
0.0
 41
1.0
 50
0.0
 71
0
 42
2.5
  3
LiberationSans-Italic.ttf
  4

  0
STYLE
  5
50
  2
LiberationSerif
 70
0
 40
0.0
 41
1.0
 50
0.0
 71
0
 42
2.5
  3
LiberationSerif-Regular.ttf
  4

  0
STYLE
  5
51
  2
LiberationSerif-Bold
 70
0
 40
0.0
 41
1.0
 50
0.0
 71
0
 42
2.5
  3
LiberationSerif-Bold.ttf
  4

  0
STYLE
  5
52
  2
LiberationSerif-BoldItalic
 70
0
 40
0.0
 41
1.0
 50
0.0
 71
0
 42
2.5
  3
LiberationSerif-BoldItalic.ttf
  4

  0
STYLE
  5
53
  2
LiberationSerif-Italic
 70
0
 40
0.0
 41
1.0
 50
0.0
 71
0
 42
2.5
  3
LiberationSerif-Italic.ttf
  4

  0
STYLE
  5
54
  2
LiberationMono
 70
0
 40
0.0
 41
1.0
 50
0.0
 71
0
 42
2.5
  3
LiberationMono-Regular.ttf
  4

  0
STYLE
  5
55
  2
LiberationMono-Bold
 70
0
 40
0.0
 41
1.0
 50
0.0
 71
0
 42
2.5
  3
LiberationMono-Bold.ttf
  4

  0
STYLE
  5
56
  2
LiberationMono-BoldItalic
 70
0
 40
0.0
 41
1.0
 50
0.0
 71
0
 42
2.5
  3
LiberationMono-BoldItalic.ttf
  4

  0
STYLE
  5
57
  2
LiberationMono-Italic
 70
0
 40
0.0
 41
1.0
 50
0.0
 71
0
 42
2.5
  3
LiberationMono-Italic.ttf
  4

  0
ENDTAB
  0
TABLE
  2
VIEW
 70
0
  0
ENDTAB
  0
TABLE
  2
UCS
 70
0
  0
ENDTAB
  0
TABLE
  2
APPID
 70
3
  0
APPID
  5
2A
  2
ACAD
 70
0
  0
APPID
  5
14B
  2
HATCHBACKGROUNDCOLOR
 70
0
  0
APPID
  5
14C
  2
EZDXF
 70
0
  0
ENDTAB
  0
TABLE
  2
DIMSTYLE
 70
12
  0
DIMSTYLE
105
2B
  2
Standard
 70
0
  3

  4

  5

  6

  7

 40
1.0
 41
2.5
 42
0.625
 43
3.75
 44
1.25
 45
0.0
 46
0.0
 47
0.0
 48
0.0
140
2.5
141
2.5
142
0.0
143
0.03937007874
144
1.0
145
0.0
146
1.0
147
0.625
 71
0
 72
0
 73
0
 74
0
 75
0
 76
0
 77
1
 78
8
170
0
171
3
172
1
173
0
174
0
175
0
176
0
177
0
178
0
  0
DIMSTYLE
105
71
  2
EZDXF
 70
0
  3

  4

  5
ARCHTICK
  6

  7

 40
1.0
 41
0.175
 42
0.125
 43
3.75
 44
0.375
 45
0.0
 46
0.0
 47
0.0
 48
0.0
140
0.25
141
2.5
142
0.0
143
0.03937007874
144
100.0
145
0.0
146
0.5
147
0.1
 71
0
 72
0
 73
0
 74
0
 75
0
 76
0
 77
1
 78
12
170
0
171
3
172
1
173
0
174
0
175
0
176
0
177
0
178
0
  0
DIMSTYLE
105
7D
  2
EZ_M_100_H25_CM
 70
0
  3

  4

  5

  6

  7

 40
1.0
 41
0.25
 42
0.125
 43
3.75
 44
0.375
 45
0.0
 46
0.0
 47
0.0
 48
0.0
140
0.25
141
2.5
142
0.125
143
0.03937007874
144
100.0
145
0.0
146
0.5
147
0.1
 71
0
 72
0
 73
0
 74
0
 75
0
 76
0
 77
1
 78
12
170
0
171
3
172
1
173
0
174
0
175
0
176
0
177
0
178
0
  0
DIMSTYLE
105
7E
  2
EZ_M_50_H25_CM
 70
0
  3

  4

  5

  6

  7

 40
1.0
 41
0.125
 42
0.0625
 43
3.75
 44
0.1875
 45
0.0
 46
0.0
 47
0.0
 48
0.0
140
0.125
141
2.5
142
0.0625
143
0.03937007874
144
100.0
145
0.0
146
0.5
147
0.05
 71
0
 72
0
 73
0
 74
0
 75
0
 76
0
 77
1
 78
12
170
0
171
3
172
1
173
0
174
0
175
0
176
0
177
0
178
0
  0
DIMSTYLE
105
7F
  2
EZ_M_25_H25_CM
 70
0
  3

  4

  5

  6

  7

 40
1.0
 41
0.0625
 42
0.03125
 43
3.75
 44
0.09375
 45
0.0
 46
0.0
 47
0.0
 48
0.0
140
0.0625
141
2.5
142
0.03125
143
0.03937007874
144
100.0
145
0.0
146
0.5
147
0.025
 71
0
 72
0
 73
0
 74
0
 75
0
 76
0
 77
1
 78
12
170
0
171
3
172
1
173
0
174
0
175
0
176
0
177
0
178
0
  0
DIMSTYLE
105
80
  2
EZ_M_20_H25_CM
 70
0
  3

  4

  5

  6

  7

 40
1.0
 41
0.05
 42
0.025
 43
3.75
 44
0.07500000000000001
 45
0.0
 46
0.0
 47
0.0
 48
0.0
140
0.05
141
2.5
142
0.025
143
0.03937007874
144
100.0
145
0.0
146
0.5
147
0.020000000000000004
 71
0
 72
0
 73
0
 74
0
 75
0
 76
0
 77
1
 78
12
170
0
171
3
172
1
173
0
174
0
175
0
176
0
177
0
178
0
  0
DIMSTYLE
105
81
  2
EZ_M_10_H25_CM
 70
0
  3

  4

  5

  6

  7

 40
1.0
 41
0.025
 42
0.0125
 43
3.75
 44
0.037500000000000006
 45
0.0
 46
0.0
 47
0.0
 48
0.0
140
0.025
141
2.5
142
0.0125
143
0.03937007874
144
100.0
145
0.0
146
0.5
147
0.010000000000000002
 71
0
 72
0
 73
0
 74
0
 75
0
 76
0
 77
1
 78
12
170
0
171
3
172
1
173
0
174
0
175
0
176
0
177
0
178
0
  0
DIMSTYLE
105
82
  2
EZ_M_5_H25_CM
 70
0
  3

  4

  5

  6

  7

 40
1.0
 41
0.0125
 42
0.00625
 43
3.75
 44
0.018750000000000003
 45
0.0
 46
0.0
 47
0.0
 48
0.0
140
0.0125
141
2.5
142
0.00625
143
0.03937007874
144
100.0
145
0.0
146
0.5
147
0.005000000000000001
 71
0
 72
0
 73
0
 74
0
 75
0
 76
0
 77
1
 78
12
170
0
171
3
172
1
173
0
174
0
175
0
176
0
177
0
178
0
  0
DIMSTYLE
105
83
  2
EZ_M_1_H25_CM
 70
0
  3

  4

  5

  6

  7

 40
1.0
 41
0.0025
 42
0.00125
 43
3.75
 44
0.00375
 45
0.0
 46
0.0
 47
0.0
 48
0.0
140
0.0025
141
2.5
142
0.00125
143
0.03937007874
144
100.0
145
0.0
146
0.5
147
0.001
 71
0
 72
0
 73
0
 74
0
 75
0
 76
0
 77
1
 78
12
170
0
171
3
172
1
173
0
174
0
175
0
176
0
177
0
178
0
  0
DIMSTYLE
105
84
  2
EZ_RADIUS
 70
0
  3

  4

  5
CLOSEDBLANK
  6

  7

 40
1.0
 41
0.25
 42
0.125
 43
3.75
 44
0.375
 45
0.0
 46
0.0
 47
0.0
 48
0.0
140
0.25
141
0.0
142
0.0
143
0.03937007874
144
100.0
145
0.0
146
0.5
147
0.1
 71
0
 72
0
 73
0
 74
0
 75
0
 76
0
 77
1
 78
12
170
0
171
3
172
0
173
0
174
0
175
0
176
0
177
0
178
0
  0
DIMSTYLE
105
8D
  2
EZ_RADIUS_INSIDE
 70
0
  3

  4

  5
CLOSEDBLANK
  6

  7

 40
1.0
 41
0.25
 42
0.125
 43
3.75
 44
0.375
 45
0.0
 46
0.0
 47
0.0
 48
0.0
140
0.25
141
0.0
142
0.0
143
0.03937007874
144
100.0
145
0.0
146
0.5
147
0.1
 71
0
 72
0
 73
0
 74
0
 75
0
 76
0
 77
0
 78
12
170
0
171
3
172
0
173
0
174
1
175
0
176
0
177
0
178
0
  0
DIMSTYLE
105
8E
  2
EZ_CURVED
 70
0
  3

  4

  5

  6

  7

 40
1.0
 41
0.25
 42
0.125
 43
3.75
 44
0.375
 45
0.0
 46
0.0
 47
0.0
 48
0.0
140
0.25
141
2.5
142
0.0
143
0.03937007874
144
100.0
145
0.0
146
0.5
147
0.1
 71
0
 72
0
 73
0
 74
0
 75
0
 76
0
 77
1
 78
12
170
0
171
3
172
1
173
0
174
0
175
0
176
0
177
0
178
0
  0
ENDTAB
  0
ENDSEC
  0
SECTION
  2
BLOCKS
  0
BLOCK
  5
18
  8
0
  2
$Model_Space
 70
0
 10
0.0
 20
0.0
 30
0.0
  3
$Model_Space
  1

1001
EZDXF
1000
CREATED_BY_EZDXF
1000
1.4.4 @ 2026-07-28T13:39:25.736200+00:00
1000
WRITTEN_BY_EZDXF
1000
1.4.4 @ 2026-07-28T13:39:25.748843+00:00
  0
ENDBLK
  5
19
  8
0
  0
BLOCK
  5
1C
  8
0
  2
$Paper_Space
 70
0
 10
0.0
 20
0.0
 30
0.0
  3
$Paper_Space
  1

  0
ENDBLK
  5
1D
  8
0
  0
BLOCK
  5
73
  8
0
  2
_ARCHTICK
 70
0
 10
0.0
 20
0.0
 30
0.0
  3
_ARCHTICK
  1

  0
POLYLINE
  5
75
  8
0
  6
BYBLOCK
 62
0
 66
1
 10
0.0
 20
0.0
 30
0.0
 70
0
 40
0.15
 41
0.15
  0
VERTEX
  5
77
  8
0
  6
BYBLOCK
 10
-0.5
 20
-0.5
 30
0.0
 70
0
  0
VERTEX
  5
78
  8
0
  6
BYBLOCK
 10
0.5
 20
0.5
 30
0.0
 70
0
  0
SEQEND
  5
76
  8
0
  0
ENDBLK
  5
74
  8
0
  0
BLOCK
  5
7A
  8
0
  2
_CLOSEDFILLED
 70
0
 10
0.0
 20
0.0
 30
0.0
  3
_CLOSEDFILLED
  1

  0
SOLID
  5
7C
  8
0
  6
BYBLOCK
 62
0
 10
-1.0
 20
0.16439898372402537
 30
0.0
 11
0.0
 21
0.0
 31
0.0
 12
-1.0
 22
-0.16439898372402537
 32
0.0
 13
-1.0
 23
-0.16439898372402537
 33
0.0
  0
ENDBLK
  5
7B
  8
0
  0
BLOCK
  5
86
  8
0
  2
_CLOSEDBLANK
 70
0
 10
0.0
 20
0.0
 30
0.0
  3
_CLOSEDBLANK
  1

  0
POLYLINE
  5
88
  8
0
  6
BYBLOCK
 62
0
 66
1
 10
0.0
 20
0.0
 30
0.0
 70
1
  0
VERTEX
  5
8A
  8
0
  6
BYBLOCK
 10
-1.0
 20
0.16439898372402537
 30
0.0
 70
0
  0
VERTEX
  5
8B
  8
0
  6
BYBLOCK
 10
0.0
 20
0.0
 30
0.0
 70
0
  0
VERTEX
  5
8C
  8
0
  6
BYBLOCK
 10
-1.0
 20
-0.16439898372402537
 30
0.0
 70
0
  0
SEQEND
  5
89
  8
0
  0
ENDBLK
  5
87
  8
0
  0
ENDSEC
  0
SECTION
  2
ENTITIES
  0
CIRCLE
  5
A0
  8
AGL_ASSETS_ALL
 10
260953.711
 20
2704582.978
 30
0.0
 40
0.25
  0
TEXT
  5
A1
  8
LABELS_ASSETS_ALL
 10
260954.06100000002
 20
2704583.278
 30
0.0
 40
0.3
  1
RRM.545
  0
CIRCLE
  5
A2
  8
AGL_ASSETS_ALL
 10
260914.781
 20
2704614.336
 30
0.0
 40
0.25
  0
TEXT
  5
A3
  8
LABELS_ASSETS_ALL
 10
260915.131
 20
2704614.636
 30
0.0
 40
0.3
  1
RRM.546
  0
CIRCLE
  5
A4
  8
AGL_ASSETS_ALL
 10
260969.052
 20
2704602.109
 30
0.0
 40
0.25
  0
TEXT
  5
A5
  8
LABELS_ASSETS_ALL
 10
260969.402
 20
2704602.409
 30
0.0
 40
0.3
  1
RRM.554
  0
CIRCLE
  5
A6
  8
AGL_ASSETS_ALL
 10
260906.6
 20
2704652.263
 30
0.0
 40
0.25
  0
TEXT
  5
A7
  8
LABELS_ASSETS_ALL
 10
260906.95
 20
2704652.5629999996
 30
0.0
 40
0.3
  1
RRM.556
  0
CIRCLE
  5
A8
  8
AGL_ASSETS_ALL
 10
260916.1
 20
2704650.107
 30
0.0
 40
0.25
  0
TEXT
  5
A9
  8
LABELS_ASSETS_ALL
 10
260916.45
 20
2704650.4069999997
 30
0.0
 40
0.3
  1
X_CV_STH_PITS &.24043
  0
CIRCLE
  5
AA
  8
AGL_ASSETS_ALL
 10
260992.483
 20
2704566.569
 30
0.0
 40
0.25
  0
TEXT
  5
AB
  8
LABELS_ASSETS_ALL
 10
260992.833
 20
2704566.869
 30
0.0
 40
0.3
  1
TCCECH.03.010
  0
CIRCLE
  5
AC
  8
AGL_ASSETS_ALL
 10
260980.773
 20
2704575.967
 30
0.0
 40
0.25
  0
TEXT
  5
AD
  8
LABELS_ASSETS_ALL
 10
260981.123
 20
2704576.267
 30
0.0
 40
0.3
  1
TCCECH.04.009
  0
CIRCLE
  5
AE
  8
AGL_ASSETS_ALL
 10
260933.955
 20
2704613.556
 30
0.0
 40
0.25
  0
TEXT
  5
AF
  8
LABELS_ASSETS_ALL
 10
260934.305
 20
2704613.8559999997
 30
0.0
 40
0.3
  1
TCCECH.04.007
  0
CIRCLE
  5
B0
  8
AGL_ASSETS_ALL
 10
260922.272
 20
2704622.948
 30
0.0
 40
0.25
  0
TEXT
  5
B1
  8
LABELS_ASSETS_ALL
 10
260922.622
 20
2704623.2479999997
 30
0.0
 40
0.3
  1
TCCECH.03.007
  0
CIRCLE
  5
B2
  8
AGL_ASSETS_ALL
 10
260910.566
 20
2704632.326
 30
0.0
 40
0.25
  0
TEXT
  5
B3
  8
LABELS_ASSETS_ALL
 10
260910.916
 20
2704632.6259999997
 30
0.0
 40
0.3
  1
TCCECH.04.006
  0
CIRCLE
  5
B4
  8
AGL_ASSETS_ALL
 10
260898.861
 20
2704641.718
 30
0.0
 40
0.25
  0
TEXT
  5
B5
  8
LABELS_ASSETS_ALL
 10
260899.211
 20
2704642.0179999997
 30
0.0
 40
0.3
  1
TCCECH.03.006
  0
CIRCLE
  5
B6
  8
AGL_ASSETS_ALL
 10
260945.665
 20
2704604.147
 30
0.0
 40
0.25
  0
TEXT
  5
B7
  8
LABELS_ASSETS_ALL
 10
260946.015
 20
2704604.4469999997
 30
0.0
 40
0.3
  1
TCCECH.03.008
  0
CIRCLE
  5
B8
  8
AGL_ASSETS_ALL
 10
260957.377
 20
2704594.758
 30
0.0
 40
0.25
  0
TEXT
  5
B9
  8
LABELS_ASSETS_ALL
 10
260957.727
 20
2704595.0579999997
 30
0.0
 40
0.3
  1
TCCECH.04.008
  0
CIRCLE
  5
BA
  8
AGL_ASSETS_ALL
 10
260969.063
 20
2704585.374
 30
0.0
 40
0.25
  0
TEXT
  5
BB
  8
LABELS_ASSETS_ALL
 10
260969.413
 20
2704585.6739999996
 30
0.0
 40
0.3
  1
TCCECH.03.009
  0
CIRCLE
  5
BC
  8
AGL_ASSETS_ALL
 10
260951.391
 20
2704625.459
 30
0.0
 40
0.25
  0
TEXT
  5
BD
  8
LABELS_ASSETS_ALL
 10
260951.741
 20
2704625.7589999996
 30
0.0
 40
0.3
  1
P2.002
  0
CIRCLE
  5
BE
  8
AGL_ASSETS_ALL
 10
260955.33
 20
2704630.379
 30
0.0
 40
0.25
  0
TEXT
  5
BF
  8
LABELS_ASSETS_ALL
 10
260955.68
 20
2704630.679
 30
0.0
 40
0.3
  1
HH.E.055
  0
CIRCLE
  5
C0
  8
AGL_ASSETS_ALL
 10
260942.246
 20
2704642.459
 30
0.0
 40
0.25
  0
TEXT
  5
C1
  8
LABELS_ASSETS_ALL
 10
260942.59600000002
 20
2704642.7589999996
 30
0.0
 40
0.3
  1
HH.E.056
  0
LINE
  5
C2
  8
DUCTS_INDICATIVE_ALL
 10
260992.483
 20
2704566.569
 30
0.0
 11
261009.737
 21
2704578.477
 31
0.0
  0
LINE
  5
C3
  8
DUCTS_INDICATIVE_ALL
 10
260980.773
 20
2704575.967
 30
0.0
 11
261009.737
 21
2704578.477
 31
0.0
  0
LINE
  5
C4
  8
DUCTS_CROSSING
 10
260933.955
 20
2704613.556
 30
0.0
 11
260951.391
 21
2704625.459
 31
0.0
  0
LINE
  5
C5
  8
DUCTS_INDICATIVE_ALL
 10
260922.272
 20
2704622.948
 30
0.0
 11
260916.1
 21
2704650.107
 31
0.0
  0
LINE
  5
C6
  8
DUCTS_INDICATIVE_ALL
 10
260910.566
 20
2704632.326
 30
0.0
 11
260916.1
 21
2704650.107
 31
0.0
  0
LINE
  5
C7
  8
DUCTS_INDICATIVE_ALL
 10
260898.861
 20
2704641.718
 30
0.0
 11
260916.1
 21
2704650.107
 31
0.0
  0
LINE
  5
C8
  8
DUCTS_CROSSING
 10
260945.665
 20
2704604.147
 30
0.0
 11
260951.391
 21
2704625.459
 31
0.0
  0
LINE
  5
C9
  8
DUCTS_CROSSING
 10
260957.377
 20
2704594.758
 30
0.0
 11
260951.391
 21
2704625.459
 31
0.0
  0
LINE
  5
CA
  8
DUCTS_INDICATIVE_ALL
 10
260969.063
 20
2704585.374
 30
0.0
 11
261009.737
 21
2704578.477
 31
0.0
  0
POLYLINE
  5
CB
  8
AGL_FEED_PITS
 66
1
 10
0.0
 20
0.0
 30
0.0
 70
1
  0
VERTEX
  5
CD
  8
AGL_FEED_PITS
 10
260950.691
 20
2704624.7589999996
 30
0.0
 70
0
  0
VERTEX
  5
CE
  8
AGL_FEED_PITS
 10
260952.09100000001
 20
2704624.7589999996
 30
0.0
 70
0
  0
VERTEX
  5
CF
  8
AGL_FEED_PITS
 10
260952.09100000001
 20
2704626.159
 30
0.0
 70
0
  0
VERTEX
  5
D0
  8
AGL_FEED_PITS
 10
260950.691
 20
2704626.159
 30
0.0
 70
0
  0
SEQEND
  5
CC
  8
AGL_FEED_PITS
  0
TEXT
  5
D1
  8
AGL_FEED_PITS
 10
260952.291
 20
2704626.159
 30
0.0
 40
0.5
  1
P2.002
  0
POLYLINE
  5
D2
  8
MARK_CENTERLINE
 66
1
 10
0.0
 20
0.0
 30
0.0
 70
0
  0
VERTEX
  5
D4
  8
MARK_CENTERLINE
 10
261004.167
 20
2704557.183
 30
0.0
 70
0
  0
VERTEX
  5
D5
  8
MARK_CENTERLINE
 10
260992.483
 20
2704566.569
 30
0.0
 70
0
  0
VERTEX
  5
D6
  8
MARK_CENTERLINE
 10
260980.773
 20
2704575.967
 30
0.0
 70
0
  0
VERTEX
  5
D7
  8
MARK_CENTERLINE
 10
260969.063
 20
2704585.374
 30
0.0
 70
0
  0
VERTEX
  5
D8
  8
MARK_CENTERLINE
 10
260957.377
 20
2704594.758
 30
0.0
 70
0
  0
VERTEX
  5
D9
  8
MARK_CENTERLINE
 10
260945.665
 20
2704604.147
 30
0.0
 70
0
  0
VERTEX
  5
DA
  8
MARK_CENTERLINE
 10
260933.955
 20
2704613.556
 30
0.0
 70
0
  0
VERTEX
  5
DB
  8
MARK_CENTERLINE
 10
260922.272
 20
2704622.948
 30
0.0
 70
0
  0
VERTEX
  5
DC
  8
MARK_CENTERLINE
 10
260910.566
 20
2704632.326
 30
0.0
 70
0
  0
VERTEX
  5
DD
  8
MARK_CENTERLINE
 10
260898.861
 20
2704641.718
 30
0.0
 70
0
  0
VERTEX
  5
DE
  8
MARK_CENTERLINE
 10
260887.158
 20
2704651.119
 30
0.0
 70
0
  0
VERTEX
  5
DF
  8
MARK_CENTERLINE
 10
260881.322
 20
2704655.819
 30
0.0
 70
0
  0
SEQEND
  5
D3
  8
MARK_CENTERLINE
  0
POLYLINE
  5
E0
  8
MARK_EDGE
 66
1
 10
0.0
 20
0.0
 30
0.0
 70
0
  0
VERTEX
  5
E2
  8
MARK_EDGE
 10
260996.965
 20
2704548.218
 30
0.0
 70
0
  0
VERTEX
  5
E3
  8
MARK_EDGE
 10
260985.283
 20
2704557.602
 30
0.0
 70
0
  0
VERTEX
  5
E4
  8
MARK_EDGE
 10
260973.575
 20
2704566.998
 30
0.0
 70
0
  0
VERTEX
  5
E5
  8
MARK_EDGE
 10
260961.862
 20
2704576.408
 30
0.0
 70
0
  0
VERTEX
  5
E6
  8
MARK_EDGE
 10
260950.18
 20
2704585.788
 30
0.0
 70
0
  0
VERTEX
  5
E7
  8
MARK_EDGE
 10
260938.472
 20
2704595.174
 30
0.0
 70
0
  0
VERTEX
  5
E8
  8
MARK_EDGE
 10
260938.462
 20
2704595.182
 30
0.0
 70
0
  0
VERTEX
  5
E9
  8
MARK_EDGE
 10
260926.752
 20
2704604.591
 30
0.0
 70
0
  0
VERTEX
  5
EA
  8
MARK_EDGE
 10
260915.074
 20
2704613.979
 30
0.0
 70
0
  0
VERTEX
  5
EB
  8
MARK_EDGE
 10
260903.376
 20
2704623.351
 30
0.0
 70
0
  0
VERTEX
  5
EC
  8
MARK_EDGE
 10
260891.664
 20
2704632.748
 30
0.0
 70
0
  0
VERTEX
  5
ED
  8
MARK_EDGE
 10
260879.956
 20
2704642.153
 30
0.0
 70
0
  0
VERTEX
  5
EE
  8
MARK_EDGE
 10
260879.945
 20
2704642.162
 30
0.0
 70
0
  0
VERTEX
  5
EF
  8
MARK_EDGE
 10
260874.109
 20
2704646.862
 30
0.0
 70
0
  0
SEQEND
  5
E1
  8
MARK_EDGE
  0
POLYLINE
  5
F0
  8
MARK_EDGE
 66
1
 10
0.0
 20
0.0
 30
0.0
 70
0
  0
VERTEX
  5
F2
  8
MARK_EDGE
 10
261011.369
 20
2704566.148
 30
0.0
 70
0
  0
VERTEX
  5
F3
  8
MARK_EDGE
 10
260999.681
 20
2704575.538
 30
0.0
 70
0
  0
VERTEX
  5
F4
  8
MARK_EDGE
 10
260987.973
 20
2704584.934
 30
0.0
 70
0
  0
VERTEX
  5
F5
  8
MARK_EDGE
 10
260976.263
 20
2704594.341
 30
0.0
 70
0
  0
VERTEX
  5
F6
  8
MARK_EDGE
 10
260964.57
 20
2704603.731
 30
0.0
 70
0
  0
VERTEX
  5
F7
  8
MARK_EDGE
 10
260952.863
 20
2704613.116
 30
0.0
 70
0
  0
VERTEX
  5
F8
  8
MARK_EDGE
 10
260941.159
 20
2704622.52
 30
0.0
 70
0
  0
VERTEX
  5
F9
  8
MARK_EDGE
 10
260929.477
 20
2704631.911
 30
0.0
 70
0
  0
VERTEX
  5
FA
  8
MARK_EDGE
 10
260929.462
 20
2704631.923
 30
0.0
 70
0
  0
VERTEX
  5
FB
  8
MARK_EDGE
 10
260917.76
 20
2704641.298
 30
0.0
 70
0
  0
VERTEX
  5
FC
  8
MARK_EDGE
 10
260906.061
 20
2704650.686
 30
0.0
 70
0
  0
VERTEX
  5
FD
  8
MARK_EDGE
 10
260894.366
 20
2704660.08
 30
0.0
 70
0
  0
VERTEX
  5
FE
  8
MARK_EDGE
 10
260888.535
 20
2704664.776
 30
0.0
 70
0
  0
SEQEND
  5
F1
  8
MARK_EDGE
  0
TEXT
  5
FF
  8
MARK_CENTERLINE
 10
261005.167
 20
2704558.183
 30
0.0
 40
0.6
  1
TWY CENTERLINE (AS-BUILT TCC FITTINGS)
  0
POLYLINE
  5
100
  8
AGL_WORKS_DEMARCATION
 66
1
 10
0.0
 20
0.0
 30
0.0
 70
1
  0
VERTEX
  5
102
  8
AGL_WORKS_DEMARCATION
 10
260921.94
 20
2704625.78
 30
0.0
 70
0
  0
VERTEX
  5
103
  8
AGL_WORKS_DEMARCATION
 10
260971.899
 20
2704585.661
 30
0.0
 70
0
  0
VERTEX
  5
104
  8
AGL_WORKS_DEMARCATION
 10
260969.387
 20
2704582.533
 30
0.0
 70
0
  0
VERTEX
  5
105
  8
AGL_WORKS_DEMARCATION
 10
260919.428
 20
2704622.651
 30
0.0
 70
0
  0
SEQEND
  5
101
  8
AGL_WORKS_DEMARCATION
  0
TEXT
  5
106
  8
AGL_WORKS_DEMARCATION
 10
260906.94
 20
2704627.28
 30
0.0
 40
0.7
  1
AGL WORKS AREA - FIELD CONDITION (257.1 m2 TOTAL)
  0
CIRCLE
  5
107
  8
ACT_CABLE_DUCT
 62
5
 10
260922.272
 20
2704622.948
 30
0.0
 40
1.0
  0
CIRCLE
  5
108
  8
ACT_CABLE_DUCT
 62
3
 10
260922.272
 20
2704622.948
 30
0.0
 40
0.55
  0
TEXT
  5
109
  8
LABELS_WORKS
 10
260923.572
 20
2704623.948
 30
0.0
 40
0.55
  1
TCCECH-03/007
  0
CIRCLE
  5
10A
  8
ACT_CABLE_DUCT
 62
5
 10
260933.955
 20
2704613.556
 30
0.0
 40
1.0
  0
CIRCLE
  5
10B
  8
ACT_CABLE_DUCT
 62
3
 10
260933.955
 20
2704613.556
 30
0.0
 40
0.55
  0
TEXT
  5
10C
  8
LABELS_WORKS
 10
260935.25499999998
 20
2704614.556
 30
0.0
 40
0.55
  1
TCCECH-04/007
  0
CIRCLE
  5
10D
  8
ACT_CABLE_DUCT
 62
5
 10
260945.665
 20
2704604.147
 30
0.0
 40
1.0
  0
CIRCLE
  5
10E
  8
ACT_CABLE_DUCT
 62
3
 10
260945.665
 20
2704604.147
 30
0.0
 40
0.55
  0
TEXT
  5
10F
  8
LABELS_WORKS
 10
260946.965
 20
2704605.147
 30
0.0
 40
0.55
  1
TCCECH-03/008
  0
CIRCLE
  5
110
  8
ACT_CABLE_DUCT
 62
5
 10
260957.377
 20
2704594.758
 30
0.0
 40
1.0
  0
CIRCLE
  5
111
  8
ACT_CABLE_DUCT
 62
3
 10
260957.377
 20
2704594.758
 30
0.0
 40
0.55
  0
TEXT
  5
112
  8
LABELS_WORKS
 10
260958.677
 20
2704595.758
 30
0.0
 40
0.55
  1
TCCECH-04/008
  0
CIRCLE
  5
113
  8
ACT_CABLE_DUCT
 62
5
 10
260969.063
 20
2704585.374
 30
0.0
 40
1.0
  0
CIRCLE
  5
114
  8
ACT_CABLE_DUCT
 62
3
 10
260969.063
 20
2704585.374
 30
0.0
 40
0.55
  0
TEXT
  5
115
  8
LABELS_WORKS
 10
260970.36299999998
 20
2704586.374
 30
0.0
 40
0.55
  1
TCCECH-03/009
  0
CIRCLE
  5
116
  8
ACT_RRM
 62
6
 10
260930.02
 20
2704633.469
 30
0.0
 40
1.0
  0
CIRCLE
  5
117
  8
ACT_RRM
 62
7
 10
260930.02
 20
2704633.469
 30
0.0
 40
0.55
  0
TEXT
  5
118
  8
LABELS_WORKS
 10
260931.31999999998
 20
2704634.469
 30
0.0
 40
0.55
  1
RRM.555
  0
TEXT
  5
119
  8
TITLE
 10
260892.272
 20
2704548.974
 30
0.0
 40
1.6
  1
SHOP DRAWING - ELECTRICAL / AGL SCOPE (FIELD-GOVERNED)
  0
TEXT
  5
11A
  8
TITLE
 10
260892.272
 20
2704547.174
 30
0.0
 40
1.0
  1
TAXIWAY E (E4-E6) - LOCATION 2 - AGL WORKS PER FIELD VERIFICATION (Second_milling_area rev _1)
  0
TEXT
  5
11B
  8
TITLE
 10
260892.272
 20
2704545.634
 30
0.0
 40
0.7
  1
DWG NO: XXX-ELE-SHD-1002 REV P05  �  SCALE 1:250 @ A1  �  UTM 40N (EPSG:32640)  �  ISSUED 28.07.2026  �  PREPARED: MOHAMMED, AGL TEAM LEADER - ADB SAFEGATE AGL TEAM
  0
TEXT
  5
11C
  8
TITLE
 10
260892.272
 20
2704544.3740000003
 30
0.0
 40
0.7
  1
REFS: FIELD SHEETS Document_3 / Second_milling_area rev _1 (26.07.2026) � AS-BUILT ASSET SURVEY assets_20260726120533.xlsx
  0
TEXT
  5
11D
  8
TITLE
 10
260892.272
 20
2704541.3740000003
 30
0.0
 40
1.0
  1
SCOPE / QUANTITIES (PER FIELD VERIFICATION)
  0
TEXT
  5
11E
  8
TITLE
 10
260892.272
 20
2704540.2190000005
 30
0.0
 40
0.7
  1
SCOPE PER FIELD SHEET Second_milling_area rev _1 (LOCATION-02, 5 ROWS) - FIELD CONDITION GOVERNS.
  0
TEXT
  5
11F
  8
TITLE
 10
260892.272
 20
2704539.0640000007
 30
0.0
 40
0.7
  1
NEW SECONDARY CABLE ONLY (VIA DUCT): 5 No. - TCCECH-03/007, 04/007, 03/008, 04/008, 03/009. NO SHALLOW BASES AFFECTED.
  0
TEXT
  5
120
  8
TITLE
 10
260892.272
 20
2704537.909000001
 30
0.0
 40
0.7
  1
RRM.555: REMOVE / PROTECT BEFORE SAWCUT, RE-FIX ON ORIGINAL LINE AFTER PAVING
  0
TEXT
  5
121
  8
TITLE
 10
260892.272
 20
2704536.754000001
 30
0.0
 40
0.7
  1
ISOLATE CIRCUITS: TCCECH.03, TCCECH.04 - PROVE DEAD BEFORE WORKS
  0
TEXT
  5
122
  8
TITLE
 10
260892.272
 20
2704533.754000001
 30
0.0
 40
1.0
  1
GENERAL NOTES
  0
TEXT
  5
123
  8
TITLE
 10
260892.272
 20
2704532.5990000013
 30
0.0
 40
0.7
  1
1. BASE LAYER: AS-BUILT AGL ASSET SURVEY assets_20260726120533.xlsx (636 ASSETS, UTM 40N / EPSG:32640). ALL ASSET POSITIONS AS-BUILT.
  0
TEXT
  5
124
  8
TITLE
 10
260892.272
 20
2704531.4440000015
 30
0.0
 40
0.7
  1
2. AGL WORKS AREA (RED) PER FIELD CONDITION - RECTANGULAR STRIPS ALIGNED TO STOP BAR / CENTERLINE AROUND FIELD-VERIFIED AFFECTED ASSETS. CORING AT LOCATION 1 ONLY.
  0
TEXT
  5
125
  8
TITLE
 10
260892.272
 20
2704530.2890000017
 30
0.0
 40
0.7
  1
3. DUCT ROUTES INDICATIVE (LIGHT -> NEAREST MH/HH). CONFIRM AGAINST AGL DUCT-LAYOUT CAD (REV B) BEFORE WORKS.
  0
TEXT
  5
126
  8
TITLE
 10
260892.272
 20
2704529.134000002
 30
0.0
 40
0.7
  1
4. SECONDARY CABLES: NO JOINTS PERMITTED - FULL MANHOLE-TO-LIGHT REPLACEMENT.
  0
TEXT
  5
127
  8
TITLE
 10
260892.272
 20
2704527.979000002
 30
0.0
 40
0.7
  1
5. ISOLATE, LOCK OUT & PROVE DEAD ALL LISTED CIRCUITS AT CCR UNDER PERMIT BEFORE ANY CUTTING, CORING OR EXCAVATION.
  0
TEXT
  5
128
  8
TITLE
 10
260892.272
 20
2704526.8240000024
 30
0.0
 40
0.7
  1
6. REINSTATEMENT SETTING-OUT BY CIVIL SURVEY FROM AS-BUILT EASTING/NORTHING (UTM 40N), CHECKED AGAINST ADJACENT UNDISTURBED FITTINGS BEFORE CORING.
  0
TEXT
  5
129
  8
TITLE
 10
260892.272
 20
2704525.6690000026
 30
0.0
 40
0.7
  1
7. TAXIWAY CENTERLINE & STOP BAR ALIGNMENTS DERIVED FROM AS-BUILT AGL FITTING POSITIONS (TCC / SBC). EDGE / PAVEMENT BOUNDARY INDICATIVE AT 23 m WIDTH FROM AS-BUILT CL - CONFIRM ON SITE.
  0
TEXT
  5
12A
  8
TITLE
 10
260892.272
 20
2704522.6690000026
 30
0.0
 40
1.0
  1
LEGEND - WORKS ACTIONS (THIS SHEET)
  0
CIRCLE
  5
12B
  8
ACT_CABLE_DUCT
 62
5
 10
260893.272
 20
2704520.8190000025
 30
0.0
 40
1.0
  0
CIRCLE
  5
12C
  8
ACT_CABLE_DUCT
 62
3
 10
260893.272
 20
2704520.8190000025
 30
0.0
 40
0.55
  0
TEXT
  5
12D
  8
TITLE
 10
260895.272
 20
2704520.4690000024
 30
0.0
 40
0.7
  1
NEW SECONDARY CABLE ONLY (VIA DUCT) - OUTER BLUE / INNER GREEN
  0
CIRCLE
  5
12E
  8
ACT_RRM
 62
6
 10
260893.272
 20
2704518.6190000023
 30
0.0
 40
1.0
  0
CIRCLE
  5
12F
  8
ACT_RRM
 62
7
 10
260893.272
 20
2704518.6190000023
 30
0.0
 40
0.55
  0
TEXT
  5
130
  8
TITLE
 10
260895.272
 20
2704518.269000002
 30
0.0
 40
0.7
  1
RRM - REMOVE / PROTECT / RE-FIX - OUTER MAGENTA / INNER WHITE
  0
CIRCLE
  5
131
  8
AGL_ASSETS_ALL
 10
260893.272
 20
2704516.419000002
 30
0.0
 40
0.5
  0
TEXT
  5
132
  8
TITLE
 10
260895.272
 20
2704516.069000002
 30
0.0
 40
0.7
  1
EXISTING AGL ASSET (AS-BUILT)
  0
LINE
  5
133
  8
DUCTS_CROSSING
 10
260892.272
 20
2704514.219000002
 30
0.0
 11
260894.272
 21
2704514.219000002
 31
0.0
  0
TEXT
  5
134
  8
TITLE
 10
260895.272
 20
2704513.869000002
 30
0.0
 40
0.7
  1
SECONDARY DUCT RUN CROSSING CUT (INDICATIVE)
  0
LINE
  5
135
  8
DUCTS_INDICATIVE_ALL
 10
260892.272
 20
2704512.0190000017
 30
0.0
 11
260894.272
 21
2704512.0190000017
 31
0.0
  0
TEXT
  5
136
  8
TITLE
 10
260895.272
 20
2704511.6690000016
 30
0.0
 40
0.7
  1
INDICATIVE DUCT - LIGHT TO NEAREST PIT
  0
POLYLINE
  5
137
  8
AGL_WORKS_DEMARCATION
 66
1
 10
0.0
 20
0.0
 30
0.0
 70
1
  0
VERTEX
  5
139
  8
AGL_WORKS_DEMARCATION
 10
260892.272
 20
2704509.4690000014
 30
0.0
 70
0
  0
VERTEX
  5
13A
  8
AGL_WORKS_DEMARCATION
 10
260894.272
 20
2704509.4690000014
 30
0.0
 70
0
  0
VERTEX
  5
13B
  8
AGL_WORKS_DEMARCATION
 10
260894.272
 20
2704510.2690000013
 30
0.0
 70
0
  0
VERTEX
  5
13C
  8
AGL_WORKS_DEMARCATION
 10
260892.272
 20
2704510.2690000013
 30
0.0
 70
0
  0
SEQEND
  5
138
  8
AGL_WORKS_DEMARCATION
  0
TEXT
  5
13D
  8
TITLE
 10
260895.272
 20
2704509.4690000014
 30
0.0
 40
0.7
  1
AGL WORKS AREA - FIELD CONDITION (GOVERNING)
  0
POLYLINE
  5
13E
  8
AGL_FEED_PITS
 66
1
 10
0.0
 20
0.0
 30
0.0
 70
1
  0
VERTEX
  5
140
  8
AGL_FEED_PITS
 10
260892.272
 20
2704507.2690000013
 30
0.0
 70
0
  0
VERTEX
  5
141
  8
AGL_FEED_PITS
 10
260894.272
 20
2704507.2690000013
 30
0.0
 70
0
  0
VERTEX
  5
142
  8
AGL_FEED_PITS
 10
260894.272
 20
2704508.069000001
 30
0.0
 70
0
  0
VERTEX
  5
143
  8
AGL_FEED_PITS
 10
260892.272
 20
2704508.069000001
 30
0.0
 70
0
  0
SEQEND
  5
13F
  8
AGL_FEED_PITS
  0
TEXT
  5
144
  8
TITLE
 10
260895.272
 20
2704507.2690000013
 30
0.0
 40
0.7
  1
AGL FEED MANHOLE / HANDHOLE
  0
LINE
  5
145
  8
MARK_CENTERLINE
 10
260892.272
 20
2704505.419000001
 30
0.0
 11
260894.272
 21
2704505.419000001
 31
0.0
  0
TEXT
  5
146
  8
TITLE
 10
260895.272
 20
2704505.069000001
 30
0.0
 40
0.7
  1
TAXIWAY CENTERLINE (AS-BUILT, THROUGH TCC FITTINGS)
  0
LINE
  5
147
  8
MARK_STOPBAR
 10
260892.272
 20
2704503.219000001
 30
0.0
 11
260894.272
 21
2704503.219000001
 31
0.0
  0
TEXT
  5
148
  8
TITLE
 10
260895.272
 20
2704502.869000001
 30
0.0
 40
0.7
  1
STOP BAR (AS-BUILT, THROUGH SBC FITTINGS)
  0
LINE
  5
149
  8
MARK_EDGE
 10
260892.272
 20
2704501.019000001
 30
0.0
 11
260894.272
 21
2704501.019000001
 31
0.0
  0
TEXT
  5
14A
  8
TITLE
 10
260895.272
 20
2704500.6690000007
 30
0.0
 40
0.7
  1
TAXIWAY EDGE / PAVEMENT BOUNDARY (INDICATIVE 23 m - CONFIRM ON SITE)
  0
ENDSEC
  0
EOF
