  0
SECTION
  2
HEADER
  9
$ACADVER
  1
AC1009
  9
$DWGCODEPAGE
  3
ANSI_1252
  9
$INSBASE
 10
0.0
 20
0.0
 30
0.0
  9
$EXTMIN
 10
1e+20
 20
1e+20
 30
1e+20
  9
$EXTMAX
 10
-1e+20
 20
-1e+20
 30
-1e+20
  9
$LIMMIN
 10
0.0
 20
0.0
  9
$LIMMAX
 10
420.0
 20
297.0
  9
$ORTHOMODE
 70
0
  9
$REGENMODE
 70
1
  9
$FILLMODE
 70
1
  9
$DRAGMODE
 70
2
  9
$QTEXTMODE
 70
0
  9
$MIRRTEXT
 70
1
  9
$OSMODE
 70
20583
  9
$LTSCALE
 40
1.0
  9
$ATTMODE
 70
1
  9
$TEXTSIZE
 40
2.5
  9
$TRACEWID
 40
1.0
  9
$TEXTSTYLE
  7
OpenSans
  9
$CLAYER
  8
0
  9
$CELTYPE
  6
ByLayer
  9
$CECOLOR
 62
256
  9
$DIMSCALE
 40
1.0
  9
$DIMASZ
 40
0.175
  9
$DIMEXO
 40
0.125
  9
$DIMDLI
 40
3.75
  9
$DIMRND
 40
0.0
  9
$DIMDLE
 40
0.0
  9
$DIMEXE
 40
0.375
  9
$DIMTP
 40
0.0
  9
$DIMTM
 40
0.0
  9
$DIMTXT
 40
0.25
  9
$DIMCEN
 40
2.5
  9
$DIMTSZ
 40
0.0
  9
$DIMTOL
 70
0
  9
$DIMLIM
 70
0
  9
$DIMTIH
 70
0
  9
$DIMTOH
 70
0
  9
$DIMSE1
 70
0
  9
$DIMSE2
 70
0
  9
$DIMTAD
 70
1
  9
$DIMZIN
 70
12
  9
$DIMBLK
  1
ARCHTICK
  9
$DIMASO
 70
1
  9
$DIMSHO
 70
1
  9
$DIMPOST
  1

  9
$DIMAPOST
  1

  9
$DIMALT
 70
0
  9
$DIMALTD
 70
3
  9
$DIMALTF
 40
0.03937007874
  9
$DIMLFAC
 40
100.0
  9
$DIMTOFL
 70
1
  9
$DIMTVP
 40
0.0
  9
$DIMTIX
 70
0
  9
$DIMSOXD
 70
0
  9
$DIMSAH
 70
0
  9
$DIMBLK1
  1

  9
$DIMBLK2
  1

  9
$DIMSTYLE
  2
EZDXF
  9
$DIMCLRD
 70
0
  9
$DIMCLRE
 70
0
  9
$DIMCLRT
 70
0
  9
$DIMTFAC
 40
0.5
  9
$DIMGAP
 40
0.1
  9
$COORDS
 70
1
  9
$ATTDIA
 70
0
  9
$ATTREQ
 70
1
  9
$HANDLING
 70
1
  9
$LUNITS
 70
2
  9
$LUPREC
 70
4
  9
$SKETCHINC
 40
1.0
  9
$FILLETRAD
 40
10.0
  9
$AUNITS
 70
0
  9
$AUPREC
 70
2
  9
$MENU
  1
.
  9
$ELEVATION
 40
0.0
  9
$PELEVATION
 40
0.0
  9
$THICKNESS
 40
0.0
  9
$LIMCHECK
 70
0
  9
$CHAMFERA
 40
0.0
  9
$CHAMFERB
 40
0.0
  9
$SKPOLY
 70
0
  9
$TDCREATE
 40
2461250.5267708334
  9
$TDUPDATE
 40
2461250.5267708334
  9
$TDINDWG
 40
0.0
  9
$TDUSRTIMER
 40
0.0
  9
$USRTIMER
 70
1
  9
$ANGBASE
 50
0.0
  9
$ANGDIR
 70
0
  9
$PDMODE
 70
0
  9
$PDSIZE
 40
0.0
  9
$PLINEWID
 40
0.0
  9
$SPLFRAME
 70
0
  9
$SPLINETYPE
 70
6
  9
$SPLINESEGS
 70
8
  9
$HANDSEED
  5
1C9
  9
$SURFTAB1
 70
6
  9
$SURFTAB2
 70
6
  9
$SURFTYPE
 70
6
  9
$SURFU
 70
6
  9
$SURFV
 70
6
  9
$UCSNAME
  2

  9
$UCSORG
 10
0.0
 20
0.0
 30
0.0
  9
$UCSXDIR
 10
1.0
 20
0.0
 30
0.0
  9
$UCSYDIR
 10
0.0
 20
1.0
 30
0.0
  9
$PUCSNAME
  2

  9
$PUCSORG
 10
0.0
 20
0.0
 30
0.0
  9
$PUCSXDIR
 10
1.0
 20
0.0
 30
0.0
  9
$PUCSYDIR
 10
0.0
 20
1.0
 30
0.0
  9
$USERI1
 70
0
  9
$USERI2
 70
0
  9
$USERI3
 70
0
  9
$USERI4
 70
0
  9
$USERI5
 70
0
  9
$USERR1
 40
0.0
  9
$USERR2
 40
0.0
  9
$USERR3
 40
0.0
  9
$USERR4
 40
0.0
  9
$USERR5
 40
0.0
  9
$WORLDVIEW
 70
1
  9
$SHADEDGE
 70
3
  9
$SHADEDIF
 70
70
  9
$TILEMODE
 70
1
  9
$MAXACTVP
 70
64
  9
$PLIMCHECK
 70
0
  9
$PEXTMIN
 10
1e+20
 20
1e+20
 30
1e+20
  9
$PEXTMAX
 10
-1e+20
 20
-1e+20
 30
-1e+20
  9
$PLIMMIN
 10
0.0
 20
0.0
  9
$PLIMMAX
 10
420.0
 20
297.0
  9
$UNITMODE
 70
0
  9
$VISRETAIN
 70
1
  9
$PLINEGEN
 70
0
  9
$PSLTSCALE
 70
1
  0
ENDSEC
  0
SECTION
  2
TABLES
  0
TABLE
  2
VPORT
 70
1
  0
VPORT
  5
23
  2
*Active
 70
0
 10
0.0
 20
0.0
 11
1.0
 21
1.0
 12
0.0
 22
0.0
 13
0.0
 23
0.0
 14
0.5
 24
0.5
 15
0.5
 25
0.5
 16
0.0
 26
0.0
 36
1.0
 17
0.0
 27
0.0
 37
0.0
 40
1000.0
 41
1.34
 42
50.0
 43
0.0
 44
0.0
 50
0.0
 51
0.0
 71
0
 72
1000
 73
1
 74
3
 75
0
 76
0
 77
0
 78
0
  0
ENDTAB
  0
TABLE
  2
LTYPE
 70
21
  0
LTYPE
  5
24
  2
ByBlock
 70
0
  3

 72
65
 73
0
 40
0.0
  0
LTYPE
  5
25
  2
ByLayer
 70
0
  3

 72
65
 73
0
 40
0.0
  0
LTYPE
  5
26
  2
Continuous
 70
0
  3

 72
65
 73
0
 40
0.0
  0
LTYPE
  5
2D
  2
CENTER
 70
0
  3
Center ____ _ ____ _ ____ _ ____ _ ____ _ ____
 72
65
 73
4
 40
5.08
 49
3.175
 49
-0.635
 49
0.635
 49
-0.635
  0
LTYPE
  5
2E
  2
CENTERX2
 70
0
  3
Center (2x) ________  __  ________  __  ________
 72
65
 73
4
 40
8.89
 49
6.35
 49
-0.635
 49
1.27
 49
-0.635
  0
LTYPE
  5
2F
  2
CENTER2
 70
0
  3
Center (.5x) ____ _ ____ _ ____ _ ____ _ ____
 72
65
 73
4
 40
2.54
 49
1.587
 49
-0.318
 49
0.318
 49
-0.318
  0
LTYPE
  5
30
  2
DASHED
 70
0
  3
Dashed __ __ __ __ __ __ __ __ __ __ __ __ __ _
 72
65
 73
2
 40
1.524
 49
1.27
 49
-0.254
  0
LTYPE
  5
31
  2
DASHEDX2
 70
0
  3
Dashed (2x) ____  ____  ____  ____  ____  ____
 72
65
 73
2
 40
3.048
 49
2.54
 49
-0.508
  0
LTYPE
  5
32
  2
DASHED2
 70
0
  3
Dashed (.5x) _ _ _ _ _ _ _ _ _ _ _ _ _ _
 72
65
 73
2
 40
0.762
 49
0.635
 49
-0.127
  0
LTYPE
  5
33
  2
PHANTOM
 70
0
  3
Phantom ______  __  __  ______  __  __  ______
 72
65
 73
6
 40
6.35
 49
3.175
 49
-0.635
 49
0.635
 49
-0.635
 49
0.635
 49
-0.635
  0
LTYPE
  5
34
  2
PHANTOMX2
 70
0
  3
Phantom (2x)____________    ____    ____    ____________
 72
65
 73
6
 40
10.795
 49
6.35
 49
-0.635
 49
1.27
 49
-0.635
 49
1.27
 49
-0.635
  0
LTYPE
  5
35
  2
PHANTOM2
 70
0
  3
Phantom (.5x) ___ _ _ ___ _ _ ___ _ _ ___ _ _ ___
 72
65
 73
6
 40
3.175
 49
1.587
 49
-0.318
 49
0.318
 49
-0.318
 49
0.318
 49
-0.318
  0
LTYPE
  5
36
  2
DASHDOT
 70
0
  3
Dash dot __ . __ . __ . __ . __ . __ . __ . __
 72
65
 73
4
 40
3.556
 49
2.54
 49
-0.508
 49
0.0
 49
-0.508
  0
LTYPE
  5
37
  2
DASHDOTX2
 70
0
  3
Dash dot (2x) ____  .  ____  .  ____  .  ____
 72
65
 73
4
 40
6.096
 49
5.08
 49
-0.508
 49
0.0
 49
-0.508
  0
LTYPE
  5
38
  2
DASHDOT2
 70
0
  3
Dash dot (.5x) _ . _ . _ . _ . _ . _ . _ . _
 72
65
 73
4
 40
1.778
 49
1.27
 49
-0.254
 49
0.0
 49
-0.254
  0
LTYPE
  5
39
  2
DOT
 70
0
  3
Dot .  .  .  .  .  .  .  .  .  .  .  .  .  .  .  .
 72
65
 73
2
 40
0.508
 49
0.0
 49
-0.508
  0
LTYPE
  5
3A
  2
DOTX2
 70
0
  3
Dot (2x) .    .    .    .    .    .    .    . 
 72
65
 73
2
 40
1.016
 49
0.0
 49
-1.016
  0
LTYPE
  5
3B
  2
DOT2
 70
0
  3
Dot (.5) . . . . . . . . . . . . . . . . . . . 
 72
65
 73
2
 40
0.254
 49
0.0
 49
-0.254
  0
LTYPE
  5
3C
  2
DIVIDE
 70
0
  3
Divide __ . . __ . . __ . . __ . . __ . . __
 72
65
 73
6
 40
4.064
 49
2.54
 49
-0.508
 49
0.0
 49
-0.508
 49
0.0
 49
-0.508
  0
LTYPE
  5
3D
  2
DIVIDEX2
 70
0
  3
Divide (2x) ____  . .  ____  . .  ____  . .  ____
 72
65
 73
6
 40
6.604
 49
5.08
 49
-0.508
 49
0.0
 49
-0.508
 49
0.0
 49
-0.508
  0
LTYPE
  5
3E
  2
DIVIDE2
 70
0
  3
Divide(.5x) _ . _ . _ . _ . _ . _ . _ . _
 72
65
 73
6
 40
2.032
 49
1.27
 49
-0.254
 49
0.0
 49
-0.254
 49
0.0
 49
-0.254
  0
ENDTAB
  0
TABLE
  2
LAYER
 70
17
  0
LAYER
  5
27
  2
0
 70
0
 62
7
  6
Continuous
  0
LAYER
  5
28
  2
Defpoints
 70
0
 62
7
  6
Continuous
  0
LAYER
  5
8F
  2
AGL_ASSETS_ALL
 70
0
 62
4
  6
CONTINUOUS
  0
LAYER
  5
90
  2
AGL_FEED_PITS
 70
0
 62
6
  6
CONTINUOUS
  0
LAYER
  5
91
  2
DUCTS_CROSSING
 70
0
 62
6
  6
DASHED
  0
LAYER
  5
92
  2
DUCTS_INDICATIVE_ALL
 70
0
 62
8
  6
DASHED2
  0
LAYER
  5
93
  2
LABELS_ASSETS_ALL
 70
0
 62
8
  6
CONTINUOUS
  0
LAYER
  5
94
  2
CIVIL_MILL_REF
 70
0
 62
8
  6
DASHED
  0
LAYER
  5
95
  2
AGL_WORKS_DEMARCATION
 70
0
 62
1
  6
Continuous
  0
LAYER
  5
96
  2
LABELS_WORKS
 70
0
 62
7
  6
Continuous
  0
LAYER
  5
97
  2
TITLE
 70
0
 62
7
  6
Continuous
  0
LAYER
  5
98
  2
ACT_CORE_DUCT
 70
0
 62
1
  6
Continuous
  0
LAYER
  5
99
  2
ACT_CORE_SAW
 70
0
 62
1
  6
Continuous
  0
LAYER
  5
9A
  2
ACT_CABLE_DUCT
 70
0
 62
5
  6
Continuous
  0
LAYER
  5
9B
  2
ACT_CABLE_SAW
 70
0
 62
30
  6
Continuous
  0
LAYER
  5
9C
  2
ACT_NOT_AFFECTED
 70
0
 62
8
  6
Continuous
  0
LAYER
  5
9D
  2
ACT_RRM
 70
0
 62
6
  6
Continuous
  0
ENDTAB
  0
TABLE
  2
STYLE
 70
26
  0
STYLE
  5
29
  2
Standard
 70
0
 40
0.0
 41
1.0
 50
0.0
 71
0
 42
2.5
  3
txt
  4

  0
STYLE
  5
3F
  2
OpenSans-Light
 70
0
 40
0.0
 41
1.0
 50
0.0
 71
0
 42
2.5
  3
OpenSans-Light.ttf
  4

  0
STYLE
  5
40
  2
OpenSans-Light-Italic
 70
0
 40
0.0
 41
1.0
 50
0.0
 71
0
 42
2.5
  3
OpenSans-LightItalic.ttf
  4

  0
STYLE
  5
41
  2
OpenSans
 70
0
 40
0.0
 41
1.0
 50
0.0
 71
0
 42
2.5
  3
OpenSans-Regular.ttf
  4

  0
STYLE
  5
42
  2
OpenSans-Italic
 70
0
 40
0.0
 41
1.0
 50
0.0
 71
0
 42
2.5
  3
OpenSans-Italic.ttf
  4

  0
STYLE
  5
43
  2
OpenSans-SemiBold
 70
0
 40
0.0
 41
1.0
 50
0.0
 71
0
 42
2.5
  3
OpenSans-SemiBold.ttf
  4

  0
STYLE
  5
44
  2
OpenSans-SemiBoldItalic
 70
0
 40
0.0
 41
1.0
 50
0.0
 71
0
 42
2.5
  3
OpenSans-SemiBoldItalic.ttf
  4

  0
STYLE
  5
45
  2
OpenSans-Bold
 70
0
 40
0.0
 41
1.0
 50
0.0
 71
0
 42
2.5
  3
OpenSans-Bold.ttf
  4

  0
STYLE
  5
46
  2
OpenSans-BoldItalic
 70
0
 40
0.0
 41
1.0
 50
0.0
 71
0
 42
2.5
  3
OpenSans-BoldItalic.ttf
  4

  0
STYLE
  5
47
  2
OpenSans-ExtraBold
 70
0
 40
0.0
 41
1.0
 50
0.0
 71
0
 42
2.5
  3
OpenSans-ExtraBold.ttf
  4

  0
STYLE
  5
48
  2
OpenSans-ExtraBoldItalic
 70
0
 40
0.0
 41
1.0
 50
0.0
 71
0
 42
2.5
  3
OpenSans-ExtraBoldItalic.ttf
  4

  0
STYLE
  5
49
  2
OpenSansCondensed-Bold
 70
0
 40
0.0
 41
1.0
 50
0.0
 71
0
 42
2.5
  3
OpenSansCondensed-Bold.ttf
  4

  0
STYLE
  5
4A
  2
OpenSansCondensed-Light
 70
0
 40
0.0
 41
1.0
 50
0.0
 71
0
 42
2.5
  3
OpenSansCondensed-Light.ttf
  4

  0
STYLE
  5
4B
  2
OpenSansCondensed-Italic
 70
0
 40
0.0
 41
1.0
 50
0.0
 71
0
 42
2.5
  3
OpenSansCondensed-LightItalic.ttf
  4

  0
STYLE
  5
4C
  2
LiberationSans
 70
0
 40
0.0
 41
1.0
 50
0.0
 71
0
 42
2.5
  3
LiberationSans-Regular.ttf
  4

  0
STYLE
  5
4D
  2
LiberationSans-Bold
 70
0
 40
0.0
 41
1.0
 50
0.0
 71
0
 42
2.5
  3
LiberationSans-Bold.ttf
  4

  0
STYLE
  5
4E
  2
LiberationSans-BoldItalic
 70
0
 40
0.0
 41
1.0
 50
0.0
 71
0
 42
2.5
  3
LiberationSans-BoldItalic.ttf
  4

  0
STYLE
  5
4F
  2
LiberationSans-Italic
 70
0
 40
0.0
 41
1.0
 50
0.0
 71
0
 42
2.5
  3
LiberationSans-Italic.ttf
  4

  0
STYLE
  5
50
  2
LiberationSerif
 70
0
 40
0.0
 41
1.0
 50
0.0
 71
0
 42
2.5
  3
LiberationSerif-Regular.ttf
  4

  0
STYLE
  5
51
  2
LiberationSerif-Bold
 70
0
 40
0.0
 41
1.0
 50
0.0
 71
0
 42
2.5
  3
LiberationSerif-Bold.ttf
  4

  0
STYLE
  5
52
  2
LiberationSerif-BoldItalic
 70
0
 40
0.0
 41
1.0
 50
0.0
 71
0
 42
2.5
  3
LiberationSerif-BoldItalic.ttf
  4

  0
STYLE
  5
53
  2
LiberationSerif-Italic
 70
0
 40
0.0
 41
1.0
 50
0.0
 71
0
 42
2.5
  3
LiberationSerif-Italic.ttf
  4

  0
STYLE
  5
54
  2
LiberationMono
 70
0
 40
0.0
 41
1.0
 50
0.0
 71
0
 42
2.5
  3
LiberationMono-Regular.ttf
  4

  0
STYLE
  5
55
  2
LiberationMono-Bold
 70
0
 40
0.0
 41
1.0
 50
0.0
 71
0
 42
2.5
  3
LiberationMono-Bold.ttf
  4

  0
STYLE
  5
56
  2
LiberationMono-BoldItalic
 70
0
 40
0.0
 41
1.0
 50
0.0
 71
0
 42
2.5
  3
LiberationMono-BoldItalic.ttf
  4

  0
STYLE
  5
57
  2
LiberationMono-Italic
 70
0
 40
0.0
 41
1.0
 50
0.0
 71
0
 42
2.5
  3
LiberationMono-Italic.ttf
  4

  0
ENDTAB
  0
TABLE
  2
VIEW
 70
0
  0
ENDTAB
  0
TABLE
  2
UCS
 70
0
  0
ENDTAB
  0
TABLE
  2
APPID
 70
3
  0
APPID
  5
2A
  2
ACAD
 70
0
  0
APPID
  5
1C7
  2
HATCHBACKGROUNDCOLOR
 70
0
  0
APPID
  5
1C8
  2
EZDXF
 70
0
  0
ENDTAB
  0
TABLE
  2
DIMSTYLE
 70
12
  0
DIMSTYLE
105
2B
  2
Standard
 70
0
  3

  4

  5

  6

  7

 40
1.0
 41
2.5
 42
0.625
 43
3.75
 44
1.25
 45
0.0
 46
0.0
 47
0.0
 48
0.0
140
2.5
141
2.5
142
0.0
143
0.03937007874
144
1.0
145
0.0
146
1.0
147
0.625
 71
0
 72
0
 73
0
 74
0
 75
0
 76
0
 77
1
 78
8
170
0
171
3
172
1
173
0
174
0
175
0
176
0
177
0
178
0
  0
DIMSTYLE
105
71
  2
EZDXF
 70
0
  3

  4

  5
ARCHTICK
  6

  7

 40
1.0
 41
0.175
 42
0.125
 43
3.75
 44
0.375
 45
0.0
 46
0.0
 47
0.0
 48
0.0
140
0.25
141
2.5
142
0.0
143
0.03937007874
144
100.0
145
0.0
146
0.5
147
0.1
 71
0
 72
0
 73
0
 74
0
 75
0
 76
0
 77
1
 78
12
170
0
171
3
172
1
173
0
174
0
175
0
176
0
177
0
178
0
  0
DIMSTYLE
105
7D
  2
EZ_M_100_H25_CM
 70
0
  3

  4

  5

  6

  7

 40
1.0
 41
0.25
 42
0.125
 43
3.75
 44
0.375
 45
0.0
 46
0.0
 47
0.0
 48
0.0
140
0.25
141
2.5
142
0.125
143
0.03937007874
144
100.0
145
0.0
146
0.5
147
0.1
 71
0
 72
0
 73
0
 74
0
 75
0
 76
0
 77
1
 78
12
170
0
171
3
172
1
173
0
174
0
175
0
176
0
177
0
178
0
  0
DIMSTYLE
105
7E
  2
EZ_M_50_H25_CM
 70
0
  3

  4

  5

  6

  7

 40
1.0
 41
0.125
 42
0.0625
 43
3.75
 44
0.1875
 45
0.0
 46
0.0
 47
0.0
 48
0.0
140
0.125
141
2.5
142
0.0625
143
0.03937007874
144
100.0
145
0.0
146
0.5
147
0.05
 71
0
 72
0
 73
0
 74
0
 75
0
 76
0
 77
1
 78
12
170
0
171
3
172
1
173
0
174
0
175
0
176
0
177
0
178
0
  0
DIMSTYLE
105
7F
  2
EZ_M_25_H25_CM
 70
0
  3

  4

  5

  6

  7

 40
1.0
 41
0.0625
 42
0.03125
 43
3.75
 44
0.09375
 45
0.0
 46
0.0
 47
0.0
 48
0.0
140
0.0625
141
2.5
142
0.03125
143
0.03937007874
144
100.0
145
0.0
146
0.5
147
0.025
 71
0
 72
0
 73
0
 74
0
 75
0
 76
0
 77
1
 78
12
170
0
171
3
172
1
173
0
174
0
175
0
176
0
177
0
178
0
  0
DIMSTYLE
105
80
  2
EZ_M_20_H25_CM
 70
0
  3

  4

  5

  6

  7

 40
1.0
 41
0.05
 42
0.025
 43
3.75
 44
0.07500000000000001
 45
0.0
 46
0.0
 47
0.0
 48
0.0
140
0.05
141
2.5
142
0.025
143
0.03937007874
144
100.0
145
0.0
146
0.5
147
0.020000000000000004
 71
0
 72
0
 73
0
 74
0
 75
0
 76
0
 77
1
 78
12
170
0
171
3
172
1
173
0
174
0
175
0
176
0
177
0
178
0
  0
DIMSTYLE
105
81
  2
EZ_M_10_H25_CM
 70
0
  3

  4

  5

  6

  7

 40
1.0
 41
0.025
 42
0.0125
 43
3.75
 44
0.037500000000000006
 45
0.0
 46
0.0
 47
0.0
 48
0.0
140
0.025
141
2.5
142
0.0125
143
0.03937007874
144
100.0
145
0.0
146
0.5
147
0.010000000000000002
 71
0
 72
0
 73
0
 74
0
 75
0
 76
0
 77
1
 78
12
170
0
171
3
172
1
173
0
174
0
175
0
176
0
177
0
178
0
  0
DIMSTYLE
105
82
  2
EZ_M_5_H25_CM
 70
0
  3

  4

  5

  6

  7

 40
1.0
 41
0.0125
 42
0.00625
 43
3.75
 44
0.018750000000000003
 45
0.0
 46
0.0
 47
0.0
 48
0.0
140
0.0125
141
2.5
142
0.00625
143
0.03937007874
144
100.0
145
0.0
146
0.5
147
0.005000000000000001
 71
0
 72
0
 73
0
 74
0
 75
0
 76
0
 77
1
 78
12
170
0
171
3
172
1
173
0
174
0
175
0
176
0
177
0
178
0
  0
DIMSTYLE
105
83
  2
EZ_M_1_H25_CM
 70
0
  3

  4

  5

  6

  7

 40
1.0
 41
0.0025
 42
0.00125
 43
3.75
 44
0.00375
 45
0.0
 46
0.0
 47
0.0
 48
0.0
140
0.0025
141
2.5
142
0.00125
143
0.03937007874
144
100.0
145
0.0
146
0.5
147
0.001
 71
0
 72
0
 73
0
 74
0
 75
0
 76
0
 77
1
 78
12
170
0
171
3
172
1
173
0
174
0
175
0
176
0
177
0
178
0
  0
DIMSTYLE
105
84
  2
EZ_RADIUS
 70
0
  3

  4

  5
CLOSEDBLANK
  6

  7

 40
1.0
 41
0.25
 42
0.125
 43
3.75
 44
0.375
 45
0.0
 46
0.0
 47
0.0
 48
0.0
140
0.25
141
0.0
142
0.0
143
0.03937007874
144
100.0
145
0.0
146
0.5
147
0.1
 71
0
 72
0
 73
0
 74
0
 75
0
 76
0
 77
1
 78
12
170
0
171
3
172
0
173
0
174
0
175
0
176
0
177
0
178
0
  0
DIMSTYLE
105
8D
  2
EZ_RADIUS_INSIDE
 70
0
  3

  4

  5
CLOSEDBLANK
  6

  7

 40
1.0
 41
0.25
 42
0.125
 43
3.75
 44
0.375
 45
0.0
 46
0.0
 47
0.0
 48
0.0
140
0.25
141
0.0
142
0.0
143
0.03937007874
144
100.0
145
0.0
146
0.5
147
0.1
 71
0
 72
0
 73
0
 74
0
 75
0
 76
0
 77
0
 78
12
170
0
171
3
172
0
173
0
174
1
175
0
176
0
177
0
178
0
  0
DIMSTYLE
105
8E
  2
EZ_CURVED
 70
0
  3

  4

  5

  6

  7

 40
1.0
 41
0.25
 42
0.125
 43
3.75
 44
0.375
 45
0.0
 46
0.0
 47
0.0
 48
0.0
140
0.25
141
2.5
142
0.0
143
0.03937007874
144
100.0
145
0.0
146
0.5
147
0.1
 71
0
 72
0
 73
0
 74
0
 75
0
 76
0
 77
1
 78
12
170
0
171
3
172
1
173
0
174
0
175
0
176
0
177
0
178
0
  0
ENDTAB
  0
ENDSEC
  0
SECTION
  2
BLOCKS
  0
BLOCK
  5
18
  8
0
  2
$Model_Space
 70
0
 10
0.0
 20
0.0
 30
0.0
  3
$Model_Space
  1

1001
EZDXF
1000
CREATED_BY_EZDXF
1000
1.4.4 @ 2026-07-28T12:38:33.042503+00:00
1000
WRITTEN_BY_EZDXF
1000
1.4.4 @ 2026-07-28T12:38:33.059717+00:00
  0
ENDBLK
  5
19
  8
0
  0
BLOCK
  5
1C
  8
0
  2
$Paper_Space
 70
0
 10
0.0
 20
0.0
 30
0.0
  3
$Paper_Space
  1

  0
ENDBLK
  5
1D
  8
0
  0
BLOCK
  5
73
  8
0
  2
_ARCHTICK
 70
0
 10
0.0
 20
0.0
 30
0.0
  3
_ARCHTICK
  1

  0
POLYLINE
  5
75
  8
0
  6
BYBLOCK
 62
0
 66
1
 10
0.0
 20
0.0
 30
0.0
 70
0
 40
0.15
 41
0.15
  0
VERTEX
  5
77
  8
0
  6
BYBLOCK
 10
-0.5
 20
-0.5
 30
0.0
 70
0
  0
VERTEX
  5
78
  8
0
  6
BYBLOCK
 10
0.5
 20
0.5
 30
0.0
 70
0
  0
SEQEND
  5
76
  8
0
  0
ENDBLK
  5
74
  8
0
  0
BLOCK
  5
7A
  8
0
  2
_CLOSEDFILLED
 70
0
 10
0.0
 20
0.0
 30
0.0
  3
_CLOSEDFILLED
  1

  0
SOLID
  5
7C
  8
0
  6
BYBLOCK
 62
0
 10
-1.0
 20
0.16439898372402537
 30
0.0
 11
0.0
 21
0.0
 31
0.0
 12
-1.0
 22
-0.16439898372402537
 32
0.0
 13
-1.0
 23
-0.16439898372402537
 33
0.0
  0
ENDBLK
  5
7B
  8
0
  0
BLOCK
  5
86
  8
0
  2
_CLOSEDBLANK
 70
0
 10
0.0
 20
0.0
 30
0.0
  3
_CLOSEDBLANK
  1

  0
POLYLINE
  5
88
  8
0
  6
BYBLOCK
 62
0
 66
1
 10
0.0
 20
0.0
 30
0.0
 70
1
  0
VERTEX
  5
8A
  8
0
  6
BYBLOCK
 10
-1.0
 20
0.16439898372402537
 30
0.0
 70
0
  0
VERTEX
  5
8B
  8
0
  6
BYBLOCK
 10
0.0
 20
0.0
 30
0.0
 70
0
  0
VERTEX
  5
8C
  8
0
  6
BYBLOCK
 10
-1.0
 20
-0.16439898372402537
 30
0.0
 70
0
  0
SEQEND
  5
89
  8
0
  0
ENDBLK
  5
87
  8
0
  0
ENDSEC
  0
SECTION
  2
ENTITIES
  0
CIRCLE
  5
9E
  8
AGL_ASSETS_ALL
 10
261139.247
 20
2704409.053
 30
0.0
 40
0.25
  0
TEXT
  5
9F
  8
LABELS_ASSETS_ALL
 10
261139.597
 20
2704409.3529999997
 30
0.0
 40
0.3
  1
RRM.76
  0
CIRCLE
  5
A0
  8
AGL_ASSETS_ALL
 10
261126.618
 20
2704435.975
 30
0.0
 40
0.25
  0
TEXT
  5
A1
  8
LABELS_ASSETS_ALL
 10
261126.968
 20
2704436.275
 30
0.0
 40
0.3
  1
RRM.282
  0
CIRCLE
  5
A2
  8
AGL_ASSETS_ALL
 10
261165.952
 20
2704427.331
 30
0.0
 40
0.25
  0
TEXT
  5
A3
  8
LABELS_ASSETS_ALL
 10
261166.302
 20
2704427.6309999996
 30
0.0
 40
0.3
  1
TCCECH.04.018
  0
CIRCLE
  5
A4
  8
AGL_ASSETS_ALL
 10
261116.974
 20
2704447.553
 30
0.0
 40
0.25
  0
TEXT
  5
A5
  8
LABELS_ASSETS_ALL
 10
261117.324
 20
2704447.8529999997
 30
0.0
 40
0.3
  1
RRM.539
  0
CIRCLE
  5
A6
  8
AGL_ASSETS_ALL
 10
261105.989
 20
2704457.824
 30
0.0
 40
0.25
  0
TEXT
  5
A7
  8
LABELS_ASSETS_ALL
 10
261106.339
 20
2704458.124
 30
0.0
 40
0.3
  1
RRM.540
  0
CIRCLE
  5
A8
  8
AGL_ASSETS_ALL
 10
261091.098
 20
2704471.043
 30
0.0
 40
0.25
  0
TEXT
  5
A9
  8
LABELS_ASSETS_ALL
 10
261091.448
 20
2704471.343
 30
0.0
 40
0.3
  1
RRM.541
  0
CIRCLE
  5
AA
  8
AGL_ASSETS_ALL
 10
261134.006
 20
2704422.994
 30
0.0
 40
0.25
  0
TEXT
  5
AB
  8
LABELS_ASSETS_ALL
 10
261134.356
 20
2704423.2939999998
 30
0.0
 40
0.3
  1
RRM.636
  0
CIRCLE
  5
AC
  8
AGL_ASSETS_ALL
 10
261166.321
 20
2704426.923
 30
0.0
 40
0.25
  0
TEXT
  5
AD
  8
LABELS_ASSETS_ALL
 10
261166.671
 20
2704427.2229999998
 30
0.0
 40
0.3
  1
TCC103.12.019
  0
CIRCLE
  5
AE
  8
AGL_ASSETS_ALL
 10
261178.019
 20
2704417.499
 30
0.0
 40
0.25
  0
TEXT
  5
AF
  8
LABELS_ASSETS_ALL
 10
261178.369
 20
2704417.7989999996
 30
0.0
 40
0.3
  1
TCC103.11.019
  0
CIRCLE
  5
B0
  8
AGL_ASSETS_ALL
 10
261160.512
 20
2704431.681
 30
0.0
 40
0.25
  0
TEXT
  5
B1
  8
LABELS_ASSETS_ALL
 10
261160.862
 20
2704431.9809999997
 30
0.0
 40
0.3
  1
TCC103.11.020
  0
CIRCLE
  5
B2
  8
AGL_ASSETS_ALL
 10
261150.315
 20
2704459.604
 30
0.0
 40
0.25
  0
TEXT
  5
B3
  8
LABELS_ASSETS_ALL
 10
261150.665
 20
2704459.9039999996
 30
0.0
 40
0.3
  1
TEC102.02.047
  0
CIRCLE
  5
B4
  8
AGL_ASSETS_ALL
 10
261162.776
 20
2704451.272
 30
0.0
 40
0.25
  0
TEXT
  5
B5
  8
LABELS_ASSETS_ALL
 10
261163.12600000002
 20
2704451.5719999997
 30
0.0
 40
0.3
  1
TEC102.02.048
  0
CIRCLE
  5
B6
  8
AGL_ASSETS_ALL
 10
261171.675
 20
2704446.667
 30
0.0
 40
0.25
  0
TEXT
  5
B7
  8
LABELS_ASSETS_ALL
 10
261172.025
 20
2704446.9669999997
 30
0.0
 40
0.3
  1
TEC102.02.049
  0
CIRCLE
  5
B8
  8
AGL_ASSETS_ALL
 10
261172.146
 20
2704464.344
 30
0.0
 40
0.25
  0
TEXT
  5
B9
  8
LABELS_ASSETS_ALL
 10
261172.496
 20
2704464.644
 30
0.0
 40
0.3
  1
HH.E6.033
  0
CIRCLE
  5
BA
  8
AGL_ASSETS_ALL
 10
261114.034
 20
2704468.979
 30
0.0
 40
0.25
  0
TEXT
  5
BB
  8
LABELS_ASSETS_ALL
 10
261114.38400000002
 20
2704469.2789999996
 30
0.0
 40
0.3
  1
TCCECH.03.017
  0
CIRCLE
  5
BC
  8
AGL_ASSETS_ALL
 10
261108.434
 20
2704473.474
 30
0.0
 40
0.25
  0
TEXT
  5
BD
  8
LABELS_ASSETS_ALL
 10
261108.784
 20
2704473.7739999997
 30
0.0
 40
0.3
  1
TCCECH.04.016
  0
CIRCLE
  5
BE
  8
AGL_ASSETS_ALL
 10
261102.854
 20
2704477.954
 30
0.0
 40
0.25
  0
TEXT
  5
BF
  8
LABELS_ASSETS_ALL
 10
261103.204
 20
2704478.2539999997
 30
0.0
 40
0.3
  1
TCCECH.03.016
  0
CIRCLE
  5
C0
  8
AGL_ASSETS_ALL
 10
261097.26
 20
2704482.449
 30
0.0
 40
0.25
  0
TEXT
  5
C1
  8
LABELS_ASSETS_ALL
 10
261097.61000000002
 20
2704482.749
 30
0.0
 40
0.3
  1
TCCECH.04.015
  0
CIRCLE
  5
C2
  8
AGL_ASSETS_ALL
 10
261091.686
 20
2704486.925
 30
0.0
 40
0.25
  0
TEXT
  5
C3
  8
LABELS_ASSETS_ALL
 10
261092.036
 20
2704487.2249999996
 30
0.0
 40
0.3
  1
TCCECH.03.015
  0
CIRCLE
  5
C4
  8
AGL_ASSETS_ALL
 10
261116.977
 20
2704453.174
 30
0.0
 40
0.25
  0
TEXT
  5
C5
  8
LABELS_ASSETS_ALL
 10
261117.32700000002
 20
2704453.474
 30
0.0
 40
0.3
  1
SBC102.02.027
  0
CIRCLE
  5
C6
  8
AGL_ASSETS_ALL
 10
261178.712
 20
2704417.884
 30
0.0
 40
0.25
  0
TEXT
  5
C7
  8
LABELS_ASSETS_ALL
 10
261179.062
 20
2704418.184
 30
0.0
 40
0.3
  1
TCC103.11.027
  0
CIRCLE
  5
C8
  8
AGL_ASSETS_ALL
 10
261150.727
 20
2704422.891
 30
0.0
 40
0.25
  0
TEXT
  5
C9
  8
LABELS_ASSETS_ALL
 10
261151.07700000002
 20
2704423.1909999996
 30
0.0
 40
0.3
  1
TCCECH.03.038
  0
CIRCLE
  5
CA
  8
AGL_ASSETS_ALL
 10
261153.125
 20
2704416.147
 30
0.0
 40
0.25
  0
TEXT
  5
CB
  8
LABELS_ASSETS_ALL
 10
261153.475
 20
2704416.4469999997
 30
0.0
 40
0.3
  1
TCCECH.04.037
  0
CIRCLE
  5
CC
  8
AGL_ASSETS_ALL
 10
261155.348
 20
2704408.874
 30
0.0
 40
0.25
  0
TEXT
  5
CD
  8
LABELS_ASSETS_ALL
 10
261155.698
 20
2704409.1739999996
 30
0.0
 40
0.3
  1
TCCECH.03.039
  0
CIRCLE
  5
CE
  8
AGL_ASSETS_ALL
 10
261156.853
 20
2704401.616
 30
0.0
 40
0.25
  0
TEXT
  5
CF
  8
LABELS_ASSETS_ALL
 10
261157.203
 20
2704401.9159999997
 30
0.0
 40
0.3
  1
TCCECH.04.038
  0
CIRCLE
  5
D0
  8
AGL_ASSETS_ALL
 10
261178.767
 20
2704421.261
 30
0.0
 40
0.25
  0
TEXT
  5
D1
  8
LABELS_ASSETS_ALL
 10
261179.117
 20
2704421.5609999998
 30
0.0
 40
0.3
  1
TCCECH.04.019
  0
CIRCLE
  5
D2
  8
AGL_ASSETS_ALL
 10
261171.814
 20
2704424.025
 30
0.0
 40
0.25
  0
TEXT
  5
D3
  8
LABELS_ASSETS_ALL
 10
261172.16400000002
 20
2704424.3249999997
 30
0.0
 40
0.3
  1
TCCECH.03.020
  0
CIRCLE
  5
D4
  8
AGL_ASSETS_ALL
 10
261137.347
 20
2704476.239
 30
0.0
 40
0.25
  0
TEXT
  5
D5
  8
LABELS_ASSETS_ALL
 10
261137.69700000001
 20
2704476.539
 30
0.0
 40
0.3
  1
X_CV_STH_PITS &.27152
  0
CIRCLE
  5
D6
  8
AGL_ASSETS_ALL
 10
261102.026
 20
2704451.464
 30
0.0
 40
0.25
  0
TEXT
  5
D7
  8
LABELS_ASSETS_ALL
 10
261102.37600000002
 20
2704451.764
 30
0.0
 40
0.3
  1
X_CV_STH_PITS &.27153
  0
CIRCLE
  5
D8
  8
AGL_ASSETS_ALL
 10
261125.507
 20
2704424.358
 30
0.0
 40
0.25
  0
TEXT
  5
D9
  8
LABELS_ASSETS_ALL
 10
261125.85700000002
 20
2704424.658
 30
0.0
 40
0.3
  1
X_CV_STH_PITS &.27154
  0
CIRCLE
  5
DA
  8
AGL_ASSETS_ALL
 10
261105.822
 20
2704501.598
 30
0.0
 40
0.25
  0
CIRCLE
  5
DB
  8
AGL_ASSETS_ALL
 10
261172.196
 20
2704449.383
 30
0.0
 40
0.25
  0
TEXT
  5
DC
  8
LABELS_ASSETS_ALL
 10
261172.546
 20
2704449.6829999997
 30
0.0
 40
0.3
  1
X_CV_STH_PITS &.27162
  0
CIRCLE
  5
DD
  8
AGL_ASSETS_ALL
 10
261140.336
 20
2704484.943
 30
0.0
 40
0.25
  0
TEXT
  5
DE
  8
LABELS_ASSETS_ALL
 10
261140.68600000002
 20
2704485.243
 30
0.0
 40
0.3
  1
HH.E6.038
  0
CIRCLE
  5
DF
  8
AGL_ASSETS_ALL
 10
261142.742
 20
2704483.24
 30
0.0
 40
0.25
  0
TEXT
  5
E0
  8
LABELS_ASSETS_ALL
 10
261143.092
 20
2704483.54
 30
0.0
 40
0.3
  1
HH.E6.037
  0
CIRCLE
  5
E1
  8
AGL_ASSETS_ALL
 10
261153.565
 20
2704475.409
 30
0.0
 40
0.25
  0
TEXT
  5
E2
  8
LABELS_ASSETS_ALL
 10
261153.915
 20
2704475.709
 30
0.0
 40
0.3
  1
HH.E6.036
  0
CIRCLE
  5
E3
  8
AGL_ASSETS_ALL
 10
261163.886
 20
2704467.809
 30
0.0
 40
0.25
  0
TEXT
  5
E4
  8
LABELS_ASSETS_ALL
 10
261164.236
 20
2704468.1089999997
 30
0.0
 40
0.3
  1
HH.E6.035
  0
CIRCLE
  5
E5
  8
AGL_ASSETS_ALL
 10
261111.56
 20
2704433.461
 30
0.0
 40
0.25
  0
TEXT
  5
E6
  8
LABELS_ASSETS_ALL
 10
261111.91
 20
2704433.761
 30
0.0
 40
0.3
  1
HH.E6.040
  0
CIRCLE
  5
E7
  8
AGL_ASSETS_ALL
 10
261119.459
 20
2704420.693
 30
0.0
 40
0.25
  0
TEXT
  5
E8
  8
LABELS_ASSETS_ALL
 10
261119.809
 20
2704420.993
 30
0.0
 40
0.3
  1
HH.E6.041
  0
CIRCLE
  5
E9
  8
AGL_ASSETS_ALL
 10
261126.18
 20
2704404.289
 30
0.0
 40
0.25
  0
TEXT
  5
EA
  8
LABELS_ASSETS_ALL
 10
261126.53
 20
2704404.5889999997
 30
0.0
 40
0.3
  1
HH.E6.042
  0
CIRCLE
  5
EB
  8
AGL_ASSETS_ALL
 10
261168.896
 20
2704464.178
 30
0.0
 40
0.25
  0
TEXT
  5
EC
  8
LABELS_ASSETS_ALL
 10
261169.246
 20
2704464.4779999997
 30
0.0
 40
0.3
  1
HH.E6.034
  0
CIRCLE
  5
ED
  8
AGL_ASSETS_ALL
 10
261177.844
 20
2704459.371
 30
0.0
 40
0.25
  0
TEXT
  5
EE
  8
LABELS_ASSETS_ALL
 10
261178.19400000002
 20
2704459.6709999996
 30
0.0
 40
0.3
  1
HH.E6.032
  0
CIRCLE
  5
EF
  8
AGL_ASSETS_ALL
 10
261099.505
 20
2704446.409
 30
0.0
 40
0.25
  0
TEXT
  5
F0
  8
LABELS_ASSETS_ALL
 10
261099.855
 20
2704446.709
 30
0.0
 40
0.3
  1
HH.E6.039
  0
CIRCLE
  5
F1
  8
AGL_ASSETS_ALL
 10
261116.833
 20
2704492.878
 30
0.0
 40
0.25
  0
TEXT
  5
F2
  8
LABELS_ASSETS_ALL
 10
261117.18300000002
 20
2704493.178
 30
0.0
 40
0.3
  1
P6.009
  0
CIRCLE
  5
F3
  8
AGL_ASSETS_ALL
 10
261090.818
 20
2704460.52
 30
0.0
 40
0.25
  0
TEXT
  5
F4
  8
LABELS_ASSETS_ALL
 10
261091.168
 20
2704460.82
 30
0.0
 40
0.3
  1
P6.038
  0
CIRCLE
  5
F5
  8
AGL_ASSETS_ALL
 10
261089.803
 20
2704454.553
 30
0.0
 40
0.25
  0
TEXT
  5
F6
  8
LABELS_ASSETS_ALL
 10
261090.15300000002
 20
2704454.8529999997
 30
0.0
 40
0.3
  1
MH.E.024
  0
CIRCLE
  5
F7
  8
AGL_ASSETS_ALL
 10
261124.008
 20
2704497.189
 30
0.0
 40
0.25
  0
TEXT
  5
F8
  8
LABELS_ASSETS_ALL
 10
261124.358
 20
2704497.4889999996
 30
0.0
 40
0.3
  1
MH.E.014
  0
CIRCLE
  5
F9
  8
AGL_ASSETS_ALL
 10
261126.417
 20
2704483.739
 30
0.0
 40
0.25
  0
TEXT
  5
FA
  8
LABELS_ASSETS_ALL
 10
261126.767
 20
2704484.039
 30
0.0
 40
0.3
  1
X_CV_STH_PITS &.23918
  0
CIRCLE
  5
FB
  8
AGL_ASSETS_ALL
 10
261098.288
 20
2704437.375
 30
0.0
 40
0.25
  0
TEXT
  5
FC
  8
LABELS_ASSETS_ALL
 10
261098.638
 20
2704437.675
 30
0.0
 40
0.3
  1
SGC102.02.017
  0
CIRCLE
  5
FD
  8
AGL_ASSETS_ALL
 10
261144.416
 20
2704485.535
 30
0.0
 40
0.25
  0
TEXT
  5
FE
  8
LABELS_ASSETS_ALL
 10
261144.766
 20
2704485.835
 30
0.0
 40
0.3
  1
SGC102.02.016
  0
CIRCLE
  5
FF
  8
AGL_ASSETS_ALL
 10
261180.889
 20
2704442.844
 30
0.0
 40
0.25
  0
TEXT
  5
100
  8
LABELS_ASSETS_ALL
 10
261181.239
 20
2704443.144
 30
0.0
 40
0.3
  1
TEC102.02.050
  0
LINE
  5
101
  8
DUCTS_INDICATIVE_ALL
 10
261165.952
 20
2704427.331
 30
0.0
 11
261172.196
 21
2704449.383
 31
0.0
  0
LINE
  5
102
  8
DUCTS_INDICATIVE_ALL
 10
261119.622
 20
2704464.494
 30
0.0
 11
261126.417
 21
2704483.739
 31
0.0
  0
LINE
  5
103
  8
DUCTS_CROSSING
 10
261143.001
 20
2704445.726
 30
0.0
 11
261125.507
 21
2704424.358
 31
0.0
  0
LINE
  5
104
  8
DUCTS_INDICATIVE_ALL
 10
261154.618
 20
2704436.332
 30
0.0
 11
261172.196
 21
2704449.383
 31
0.0
  0
LINE
  5
105
  8
DUCTS_INDICATIVE_ALL
 10
261166.321
 20
2704426.923
 30
0.0
 11
261172.196
 21
2704449.383
 31
0.0
  0
LINE
  5
106
  8
DUCTS_INDICATIVE_ALL
 10
261178.019
 20
2704417.499
 30
0.0
 11
261188.985
 21
2704446.327
 31
0.0
  0
LINE
  5
107
  8
DUCTS_INDICATIVE_ALL
 10
261160.512
 20
2704431.681
 30
0.0
 11
261172.196
 21
2704449.383
 31
0.0
  0
LINE
  5
108
  8
DUCTS_CROSSING
 10
261148.823
 20
2704440.986
 30
0.0
 11
261172.196
 21
2704449.383
 31
0.0
  0
LINE
  5
109
  8
DUCTS_CROSSING
 10
261131.327
 20
2704455.161
 30
0.0
 11
261137.347
 21
2704476.239
 31
0.0
  0
LINE
  5
10A
  8
DUCTS_CROSSING
 10
261137.15
 20
2704450.421
 30
0.0
 11
261137.347
 21
2704476.239
 31
0.0
  0
LINE
  5
10B
  8
DUCTS_INDICATIVE_ALL
 10
261150.315
 20
2704459.604
 30
0.0
 11
261163.886
 21
2704467.809
 31
0.0
  0
LINE
  5
10C
  8
DUCTS_INDICATIVE_ALL
 10
261162.776
 20
2704451.272
 30
0.0
 11
261172.196
 21
2704449.383
 31
0.0
  0
LINE
  5
10D
  8
DUCTS_INDICATIVE_ALL
 10
261171.675
 20
2704446.667
 30
0.0
 11
261172.196
 21
2704449.383
 31
0.0
  0
LINE
  5
10E
  8
DUCTS_INDICATIVE_ALL
 10
261114.034
 20
2704468.979
 30
0.0
 11
261126.417
 21
2704483.739
 31
0.0
  0
LINE
  5
10F
  8
DUCTS_INDICATIVE_ALL
 10
261108.434
 20
2704473.474
 30
0.0
 11
261126.417
 21
2704483.739
 31
0.0
  0
LINE
  5
110
  8
DUCTS_INDICATIVE_ALL
 10
261102.854
 20
2704477.954
 30
0.0
 11
261116.833
 21
2704492.878
 31
0.0
  0
LINE
  5
111
  8
DUCTS_INDICATIVE_ALL
 10
261097.26
 20
2704482.449
 30
0.0
 11
261105.822
 21
2704501.598
 31
0.0
  0
LINE
  5
112
  8
DUCTS_INDICATIVE_ALL
 10
261091.686
 20
2704486.925
 30
0.0
 11
261105.822
 21
2704501.598
 31
0.0
  0
LINE
  5
113
  8
DUCTS_INDICATIVE_ALL
 10
261086.079
 20
2704491.404
 30
0.0
 11
261105.822
 21
2704501.598
 31
0.0
  0
LINE
  5
114
  8
DUCTS_INDICATIVE_ALL
 10
261074.403
 20
2704500.793
 30
0.0
 11
261105.822
 21
2704501.598
 31
0.0
  0
LINE
  5
115
  8
DUCTS_INDICATIVE_ALL
 10
261116.977
 20
2704453.174
 30
0.0
 11
261102.026
 21
2704451.464
 31
0.0
  0
LINE
  5
116
  8
DUCTS_CROSSING
 10
261125.221
 20
2704459.542
 30
0.0
 11
261137.347
 21
2704476.239
 31
0.0
  0
LINE
  5
117
  8
DUCTS_INDICATIVE_ALL
 10
261118.799
 20
2704455.499
 30
0.0
 11
261102.026
 21
2704451.464
 31
0.0
  0
LINE
  5
118
  8
DUCTS_CROSSING
 10
261120.678
 20
2704457.839
 30
0.0
 11
261102.026
 21
2704451.464
 31
0.0
  0
LINE
  5
119
  8
DUCTS_CROSSING
 10
261122.556
 20
2704460.179
 30
0.0
 11
261137.347
 21
2704476.239
 31
0.0
  0
LINE
  5
11A
  8
DUCTS_INDICATIVE_ALL
 10
261178.712
 20
2704417.884
 30
0.0
 11
261188.985
 21
2704446.327
 31
0.0
  0
LINE
  5
11B
  8
DUCTS_CROSSING
 10
261124.435
 20
2704462.519
 30
0.0
 11
261137.347
 21
2704476.239
 31
0.0
  0
LINE
  5
11C
  8
DUCTS_CROSSING
 10
261126.314
 20
2704464.859
 30
0.0
 11
261137.347
 21
2704476.239
 31
0.0
  0
LINE
  5
11D
  8
DUCTS_CROSSING
 10
261128.192
 20
2704467.2
 30
0.0
 11
261137.347
 21
2704476.239
 31
0.0
  0
LINE
  5
11E
  8
DUCTS_CROSSING
 10
261130.071
 20
2704469.54
 30
0.0
 11
261137.347
 21
2704476.239
 31
0.0
  0
LINE
  5
11F
  8
DUCTS_INDICATIVE_ALL
 10
261080.256
 20
2704496.104
 30
0.0
 11
261105.822
 21
2704501.598
 31
0.0
  0
LINE
  5
120
  8
DUCTS_CROSSING
 10
261125.704
 20
2704459.607
 30
0.0
 11
261137.347
 21
2704476.239
 31
0.0
  0
LINE
  5
121
  8
DUCTS_CROSSING
 10
261130.541
 20
2704454.245
 30
0.0
 11
261137.347
 21
2704476.239
 31
0.0
  0
LINE
  5
122
  8
DUCTS_CROSSING
 10
261135.446
 20
2704448.575
 30
0.0
 11
261125.507
 21
2704424.358
 31
0.0
  0
LINE
  5
123
  8
DUCTS_CROSSING
 10
261139.947
 20
2704442.571
 30
0.0
 11
261125.507
 21
2704424.358
 31
0.0
  0
LINE
  5
124
  8
DUCTS_CROSSING
 10
261144.01
 20
2704436.274
 30
0.0
 11
261125.507
 21
2704424.358
 31
0.0
  0
LINE
  5
125
  8
DUCTS_INDICATIVE_ALL
 10
261147.631
 20
2704429.7
 30
0.0
 11
261125.507
 21
2704424.358
 31
0.0
  0
LINE
  5
126
  8
DUCTS_INDICATIVE_ALL
 10
261150.727
 20
2704422.891
 30
0.0
 11
261125.507
 21
2704424.358
 31
0.0
  0
LINE
  5
127
  8
DUCTS_INDICATIVE_ALL
 10
261153.125
 20
2704416.147
 30
0.0
 11
261133.186
 21
2704398.629
 31
0.0
  0
LINE
  5
128
  8
DUCTS_INDICATIVE_ALL
 10
261155.348
 20
2704408.874
 30
0.0
 11
261133.186
 21
2704398.629
 31
0.0
  0
LINE
  5
129
  8
DUCTS_INDICATIVE_ALL
 10
261156.853
 20
2704401.616
 30
0.0
 11
261135.55
 21
2704394.489
 31
0.0
  0
LINE
  5
12A
  8
DUCTS_INDICATIVE_ALL
 10
261178.767
 20
2704421.261
 30
0.0
 11
261188.985
 21
2704446.327
 31
0.0
  0
LINE
  5
12B
  8
DUCTS_INDICATIVE_ALL
 10
261171.814
 20
2704424.025
 30
0.0
 11
261172.196
 21
2704449.383
 31
0.0
  0
LINE
  5
12C
  8
DUCTS_INDICATIVE_ALL
 10
261180.889
 20
2704442.844
 30
0.0
 11
261188.985
 21
2704446.327
 31
0.0
  0
POLYLINE
  5
12D
  8
AGL_FEED_PITS
 66
1
 10
0.0
 20
0.0
 30
0.0
 70
1
  0
VERTEX
  5
12F
  8
AGL_FEED_PITS
 10
261101.326
 20
2704450.764
 30
0.0
 70
0
  0
VERTEX
  5
130
  8
AGL_FEED_PITS
 10
261102.72600000002
 20
2704450.764
 30
0.0
 70
0
  0
VERTEX
  5
131
  8
AGL_FEED_PITS
 10
261102.72600000002
 20
2704452.1640000003
 30
0.0
 70
0
  0
VERTEX
  5
132
  8
AGL_FEED_PITS
 10
261101.326
 20
2704452.1640000003
 30
0.0
 70
0
  0
SEQEND
  5
12E
  8
AGL_FEED_PITS
  0
TEXT
  5
133
  8
AGL_FEED_PITS
 10
261102.926
 20
2704452.1640000003
 30
0.0
 40
0.5
  1
X_CV_STH_PITS &.27153
  0
POLYLINE
  5
134
  8
AGL_FEED_PITS
 66
1
 10
0.0
 20
0.0
 30
0.0
 70
1
  0
VERTEX
  5
136
  8
AGL_FEED_PITS
 10
261136.647
 20
2704475.539
 30
0.0
 70
0
  0
VERTEX
  5
137
  8
AGL_FEED_PITS
 10
261138.04700000002
 20
2704475.539
 30
0.0
 70
0
  0
VERTEX
  5
138
  8
AGL_FEED_PITS
 10
261138.04700000002
 20
2704476.9390000002
 30
0.0
 70
0
  0
VERTEX
  5
139
  8
AGL_FEED_PITS
 10
261136.647
 20
2704476.9390000002
 30
0.0
 70
0
  0
SEQEND
  5
135
  8
AGL_FEED_PITS
  0
TEXT
  5
13A
  8
AGL_FEED_PITS
 10
261138.247
 20
2704476.9390000002
 30
0.0
 40
0.5
  1
X_CV_STH_PITS &.27152
  0
POLYLINE
  5
13B
  8
AGL_FEED_PITS
 66
1
 10
0.0
 20
0.0
 30
0.0
 70
1
  0
VERTEX
  5
13D
  8
AGL_FEED_PITS
 10
261124.807
 20
2704423.658
 30
0.0
 70
0
  0
VERTEX
  5
13E
  8
AGL_FEED_PITS
 10
261126.20700000002
 20
2704423.658
 30
0.0
 70
0
  0
VERTEX
  5
13F
  8
AGL_FEED_PITS
 10
261126.20700000002
 20
2704425.058
 30
0.0
 70
0
  0
VERTEX
  5
140
  8
AGL_FEED_PITS
 10
261124.807
 20
2704425.058
 30
0.0
 70
0
  0
SEQEND
  5
13C
  8
AGL_FEED_PITS
  0
TEXT
  5
141
  8
AGL_FEED_PITS
 10
261126.407
 20
2704425.058
 30
0.0
 40
0.5
  1
X_CV_STH_PITS &.27154
  0
POLYLINE
  5
142
  8
AGL_FEED_PITS
 66
1
 10
0.0
 20
0.0
 30
0.0
 70
1
  0
VERTEX
  5
144
  8
AGL_FEED_PITS
 10
261171.49599999998
 20
2704448.6829999997
 30
0.0
 70
0
  0
VERTEX
  5
145
  8
AGL_FEED_PITS
 10
261172.896
 20
2704448.6829999997
 30
0.0
 70
0
  0
VERTEX
  5
146
  8
AGL_FEED_PITS
 10
261172.896
 20
2704450.083
 30
0.0
 70
0
  0
VERTEX
  5
147
  8
AGL_FEED_PITS
 10
261171.49599999998
 20
2704450.083
 30
0.0
 70
0
  0
SEQEND
  5
143
  8
AGL_FEED_PITS
  0
TEXT
  5
148
  8
AGL_FEED_PITS
 10
261173.096
 20
2704450.083
 30
0.0
 40
0.5
  1
X_CV_STH_PITS &.27162
  0
POLYLINE
  5
149
  8
CIVIL_MILL_REF
 66
1
 10
0.0
 20
0.0
 30
0.0
 70
1
  0
VERTEX
  5
14B
  8
CIVIL_MILL_REF
 10
261122.26
 20
2704464.861
 30
0.0
 70
0
  0
VERTEX
  5
14C
  8
CIVIL_MILL_REF
 10
261122.325
 20
2704464.809
 30
0.0
 70
0
  0
VERTEX
  5
14D
  8
CIVIL_MILL_REF
 10
261123.561
 20
2704466.351
 30
0.0
 70
0
  0
VERTEX
  5
14E
  8
CIVIL_MILL_REF
 10
261127.949
 20
2704471.804
 30
0.0
 70
0
  0
VERTEX
  5
14F
  8
CIVIL_MILL_REF
 10
261131.299
 20
2704469.101
 30
0.0
 70
0
  0
VERTEX
  5
150
  8
CIVIL_MILL_REF
 10
261126.903
 20
2704463.653
 30
0.0
 70
0
  0
VERTEX
  5
151
  8
CIVIL_MILL_REF
 10
261125.677
 20
2704462.123
 30
0.0
 70
0
  0
VERTEX
  5
152
  8
CIVIL_MILL_REF
 10
261155.019
 20
2704438.606
 30
0.0
 70
0
  0
VERTEX
  5
153
  8
CIVIL_MILL_REF
 10
261147.846
 20
2704430.207
 30
0.0
 70
0
  0
VERTEX
  5
154
  8
CIVIL_MILL_REF
 10
261116.608
 20
2704457.825
 30
0.0
 70
0
  0
SEQEND
  5
14A
  8
CIVIL_MILL_REF
  0
TEXT
  5
155
  8
CIVIL_MILL_REF
 10
261122.26
 20
2704466.061
 30
0.0
 40
0.6
  1
CIVIL MILLING DEMARCATION (REFERENCE ONLY)
  0
POLYLINE
  5
156
  8
AGL_WORKS_DEMARCATION
 66
1
 10
0.0
 20
0.0
 30
0.0
 70
1
  0
VERTEX
  5
158
  8
AGL_WORKS_DEMARCATION
 10
261153.532
 20
2704422.662
 30
0.0
 70
0
  0
VERTEX
  5
159
  8
AGL_WORKS_DEMARCATION
 10
261114.155
 20
2704452.816
 30
0.0
 70
0
  0
VERTEX
  5
15A
  8
AGL_WORKS_DEMARCATION
 10
261117.232
 20
2704456.742
 30
0.0
 70
0
  0
VERTEX
  5
15B
  8
AGL_WORKS_DEMARCATION
 10
261128.555
 20
2704470.846
 30
0.0
 70
0
  0
VERTEX
  5
15C
  8
AGL_WORKS_DEMARCATION
 10
261153.532
 20
2704422.662
 30
0.0
 70
0
  0
SEQEND
  5
157
  8
AGL_WORKS_DEMARCATION
  0
TEXT
  5
15D
  8
AGL_WORKS_DEMARCATION
 10
261113.555
 20
2704472.346
 30
0.0
 40
0.7
  1
AGL WORKS DEMARCATION - PER FIELD-VERIFIED AFFECTED ASSETS (572.6 m2)
  0
CIRCLE
  5
15E
  8
ACT_CORE_DUCT
 62
1
 10
261128.192
 20
2704467.2
 30
0.0
 40
1.0
  0
CIRCLE
  5
15F
  8
ACT_CORE_DUCT
 62
5
 10
261128.192
 20
2704467.2
 30
0.0
 40
0.55
  0
TEXT
  5
160
  8
LABELS_WORKS
 10
261129.492
 20
2704468.2
 30
0.0
 40
0.55
  1
SBC102-02/024
  0
CIRCLE
  5
161
  8
ACT_CORE_DUCT
 62
1
 10
261126.314
 20
2704464.859
 30
0.0
 40
1.0
  0
CIRCLE
  5
162
  8
ACT_CORE_DUCT
 62
5
 10
261126.314
 20
2704464.859
 30
0.0
 40
0.55
  0
TEXT
  5
163
  8
LABELS_WORKS
 10
261127.614
 20
2704465.859
 30
0.0
 40
0.55
  1
SBC102-01/027
  0
CIRCLE
  5
164
  8
ACT_CORE_DUCT
 62
1
 10
261124.435
 20
2704462.519
 30
0.0
 40
1.0
  0
CIRCLE
  5
165
  8
ACT_CORE_DUCT
 62
5
 10
261124.435
 20
2704462.519
 30
0.0
 40
0.55
  0
TEXT
  5
166
  8
LABELS_WORKS
 10
261125.735
 20
2704463.519
 30
0.0
 40
0.55
  1
SBC102-02/025
  0
CIRCLE
  5
167
  8
ACT_CORE_DUCT
 62
1
 10
261122.556
 20
2704460.179
 30
0.0
 40
1.0
  0
CIRCLE
  5
168
  8
ACT_CORE_DUCT
 62
5
 10
261122.556
 20
2704460.179
 30
0.0
 40
0.55
  0
TEXT
  5
169
  8
LABELS_WORKS
 10
261123.856
 20
2704461.179
 30
0.0
 40
0.55
  1
SBC102-01/028
  0
CIRCLE
  5
16A
  8
ACT_CORE_DUCT
 62
1
 10
261120.678
 20
2704457.839
 30
0.0
 40
1.0
  0
CIRCLE
  5
16B
  8
ACT_CORE_DUCT
 62
5
 10
261120.678
 20
2704457.839
 30
0.0
 40
0.55
  0
TEXT
  5
16C
  8
LABELS_WORKS
 10
261121.978
 20
2704458.839
 30
0.0
 40
0.55
  1
SBC102-02/026
  0
CIRCLE
  5
16D
  8
ACT_CORE_DUCT
 62
1
 10
261118.799
 20
2704455.499
 30
0.0
 40
1.0
  0
CIRCLE
  5
16E
  8
ACT_CORE_DUCT
 62
5
 10
261118.799
 20
2704455.499
 30
0.0
 40
0.55
  0
TEXT
  5
16F
  8
LABELS_WORKS
 10
261120.099
 20
2704456.499
 30
0.0
 40
0.55
  1
SBC102-01/029
  0
CIRCLE
  5
170
  8
ACT_CORE_SAW
 62
1
 10
261130.541
 20
2704454.245
 30
0.0
 40
1.0
  0
CIRCLE
  5
171
  8
ACT_CORE_SAW
 62
30
 10
261130.541
 20
2704454.245
 30
0.0
 40
0.55
  0
TEXT
  5
172
  8
LABELS_WORKS
 10
261131.841
 20
2704455.245
 30
0.0
 40
0.55
  1
TCCECH-04/034
  0
CIRCLE
  5
173
  8
ACT_CORE_SAW
 62
1
 10
261135.446
 20
2704448.575
 30
0.0
 40
1.0
  0
CIRCLE
  5
174
  8
ACT_CORE_SAW
 62
30
 10
261135.446
 20
2704448.575
 30
0.0
 40
0.55
  0
TEXT
  5
175
  8
LABELS_WORKS
 10
261136.74599999998
 20
2704449.575
 30
0.0
 40
0.55
  1
TCCECH-03/036
  0
CIRCLE
  5
176
  8
ACT_CORE_SAW
 62
1
 10
261139.947
 20
2704442.571
 30
0.0
 40
1.0
  0
CIRCLE
  5
177
  8
ACT_CORE_SAW
 62
30
 10
261139.947
 20
2704442.571
 30
0.0
 40
0.55
  0
TEXT
  5
178
  8
LABELS_WORKS
 10
261141.24699999997
 20
2704443.571
 30
0.0
 40
0.55
  1
TCCECH-04/035
  0
CIRCLE
  5
179
  8
ACT_CORE_SAW
 62
1
 10
261144.01
 20
2704436.274
 30
0.0
 40
1.0
  0
CIRCLE
  5
17A
  8
ACT_CORE_SAW
 62
30
 10
261144.01
 20
2704436.274
 30
0.0
 40
0.55
  0
TEXT
  5
17B
  8
LABELS_WORKS
 10
261145.31
 20
2704437.274
 30
0.0
 40
0.55
  1
TCCECH-03/037
  0
CIRCLE
  5
17C
  8
ACT_CORE_SAW
 62
1
 10
261147.631
 20
2704429.7
 30
0.0
 40
1.0
  0
CIRCLE
  5
17D
  8
ACT_CORE_SAW
 62
30
 10
261147.631
 20
2704429.7
 30
0.0
 40
0.55
  0
TEXT
  5
17E
  8
LABELS_WORKS
 10
261148.93099999998
 20
2704430.7
 30
0.0
 40
0.55
  1
TCCECH-04/036
  0
CIRCLE
  5
17F
  8
ACT_CABLE_DUCT
 62
5
 10
261116.977
 20
2704453.174
 30
0.0
 40
1.0
  0
CIRCLE
  5
180
  8
ACT_CABLE_DUCT
 62
3
 10
261116.977
 20
2704453.174
 30
0.0
 40
0.55
  0
TEXT
  5
181
  8
LABELS_WORKS
 10
261118.277
 20
2704454.174
 30
0.0
 40
0.55
  1
SBC102-02/027
  0
CIRCLE
  5
182
  8
ACT_CABLE_SAW
 62
30
 10
261125.221
 20
2704459.542
 30
0.0
 40
1.0
  0
CIRCLE
  5
183
  8
ACT_CABLE_SAW
 62
3
 10
261125.221
 20
2704459.542
 30
0.0
 40
0.55
  0
TEXT
  5
184
  8
LABELS_WORKS
 10
261126.52099999998
 20
2704460.542
 30
0.0
 40
0.55
  1
TCCECH-03/035
  0
CIRCLE
  5
185
  8
ACT_CABLE_SAW
 62
30
 10
261125.704
 20
2704459.607
 30
0.0
 40
1.0
  0
CIRCLE
  5
186
  8
ACT_CABLE_SAW
 62
3
 10
261125.704
 20
2704459.607
 30
0.0
 40
0.55
  0
TEXT
  5
187
  8
LABELS_WORKS
 10
261127.004
 20
2704460.607
 30
0.0
 40
0.55
  1
TCCECH-03/018
  0
CIRCLE
  5
188
  8
ACT_NOT_AFFECTED
 62
8
 10
261130.071
 20
2704469.54
 30
0.0
 40
1.0
  0
TEXT
  5
189
  8
LABELS_WORKS
 10
261131.37099999998
 20
2704470.54
 30
0.0
 40
0.55
  1
SBC102-01/026
  0
TEXT
  5
18A
  8
TITLE
 10
261086.608
 20
2704393.3000000003
 30
0.0
 40
1.6
  1
SHOP DRAWING - ELECTRICAL / AGL SCOPE (FIELD-GOVERNED)
  0
TEXT
  5
18B
  8
TITLE
 10
261086.608
 20
2704391.5000000005
 30
0.0
 40
1.0
  1
TAXIWAY E (E4-E6) - LOCATION 1 - AGL WORKS PER FIELD VERIFICATION (Document_3)
  0
TEXT
  5
18C
  8
TITLE
 10
261086.608
 20
2704389.9600000004
 30
0.0
 40
0.7
  1
DWG NO: XXX-ELE-SHD-1001 REV P03  �  SCALE 1:250 @ A1  �  UTM 40N (EPSG:32640)  �  ISSUED 28.07.2026  �  PREPARED: MOHAMMED, AGL TEAM LEADER - ADB SAFEGATE AGL TEAM
  0
TEXT
  5
18D
  8
TITLE
 10
261086.608
 20
2704388.7000000007
 30
0.0
 40
0.7
  1
REFS: FIELD SHEETS Document_3 / Second_milling_area rev _1 (26.07.2026) � AS-BUILT ASSET SURVEY assets_20260726120533.xlsx � CIVIL DWG IZ-ADAC-056-2024-TO9-RT-02 (REF ONLY)
  0
TEXT
  5
18E
  8
TITLE
 10
261086.608
 20
2704385.7000000007
 30
0.0
 40
1.0
  1
SCOPE / QUANTITIES (PER FIELD VERIFICATION)
  0
TEXT
  5
18F
  8
TITLE
 10
261086.608
 20
2704384.545000001
 30
0.0
 40
0.7
  1
SCOPE PER FIELD SHEET Document_3 (15 ROWS) - FIELD DATA GOVERNS. CIVIL / DESK COORDINATES SUPERSEDED.
  0
TEXT
  5
190
  8
TITLE
 10
261086.608
 20
2704383.390000001
 30
0.0
 40
0.7
  1
CORE OUT SHALLOW BASE + NEW CABLE: 11 No. - 6 VIA DUCT (SBC102-02/024, 01/027, 02/025, 01/028, 02/026, 01/029) + 5 VIA SAWCUT (TCCECH-04/034, 03/036, 04/035, 03/037, 04/036)
  0
TEXT
  5
191
  8
TITLE
 10
261086.608
 20
2704382.2350000013
 30
0.0
 40
0.7
  1
NEW SECONDARY CABLE ONLY: 3 No. - SBC102-02/027 (DUCT), TCCECH-03/035 & 03/018 (SAWCUT - BASES NOT AFFECTED, VERIFY AT CUT LINE)
  0
TEXT
  5
192
  8
TITLE
 10
261086.608
 20
2704381.0800000015
 30
0.0
 40
0.7
  1
FIELD VERIFIED NOT AFFECTED: SBC102-01/026 (NO CABLE / NO BASE WORKS)
  0
TEXT
  5
193
  8
TITLE
 10
261086.608
 20
2704379.9250000017
 30
0.0
 40
0.7
  1
TCC103 CIRCUIT FITTINGS NOT IN FIELD SCOPE - SHOWN AS EXISTING ONLY
  0
TEXT
  5
194
  8
TITLE
 10
261086.608
 20
2704378.770000002
 30
0.0
 40
0.7
  1
ISOLATE CIRCUITS: SBC102.01, SBC102.02, TCCECH.03, TCCECH.04 - PROVE DEAD BEFORE WORKS
  0
TEXT
  5
195
  8
TITLE
 10
261086.608
 20
2704377.615000002
 30
0.0
 40
0.7
  1
SITE RECORD 23.07.2026: 9 CORED OUT + 2 REINSTATEMENT FITTINGS ALREADY WORKED AT THIS LOCATION
  0
TEXT
  5
196
  8
TITLE
 10
261086.608
 20
2704374.615000002
 30
0.0
 40
1.0
  1
GENERAL NOTES
  0
TEXT
  5
197
  8
TITLE
 10
261086.608
 20
2704373.4600000023
 30
0.0
 40
0.7
  1
1. ALL ASSET POSITIONS AS-BUILT (ASSET SURVEY assets_20260726120533.xlsx / OVERLAY DXF, UTM 40N / EPSG:32640). DO NOT SCALE FROM CIVIL DRAWING.
  0
TEXT
  5
198
  8
TITLE
 10
261086.608
 20
2704372.3050000025
 30
0.0
 40
0.7
  1
2. AGL WORKS DEMARCATION (RED) DRAWN AROUND FIELD-VERIFIED AFFECTED ASSETS (+2.0 m). CIVIL MILLING POLYGON (GREY DASHED) FOR REFERENCE ONLY - SUPERSEDED WHERE IT DIFFERS.
  0
TEXT
  5
199
  8
TITLE
 10
261086.608
 20
2704371.1500000027
 30
0.0
 40
0.7
  1
3. SECONDARY CABLES: NO JOINTS PERMITTED - FULL MANHOLE-TO-LIGHT REPLACEMENT. CONFIRM ROUTES AGAINST AGL DUCT-LAYOUT CAD (REV B) BEFORE WORKS.
  0
TEXT
  5
19A
  8
TITLE
 10
261086.608
 20
2704369.995000003
 30
0.0
 40
0.7
  1
4. ISOLATE, LOCK OUT & PROVE DEAD ALL LISTED CIRCUITS AT CCR UNDER PERMIT BEFORE ANY CUTTING, CORING OR EXCAVATION.
  0
TEXT
  5
19B
  8
TITLE
 10
261086.608
 20
2704368.840000003
 30
0.0
 40
0.7
  1
5. REINSTATEMENT SETTING-OUT BY CIVIL SURVEY FROM AS-BUILT EASTING/NORTHING, CHECKED AGAINST ADJACENT UNDISTURBED FITTINGS BEFORE CORING.
  0
TEXT
  5
19C
  8
TITLE
 10
261086.608
 20
2704367.6850000033
 30
0.0
 40
0.7
  1
6. CIVIL WORKS PER DWG IZ-ADAC-056-2024-TO9-RT-02: SAWCUT, MILL 120 mm, GEOGRID + 60 BINDER + 60 PMB WEARING COURSE.
  0
TEXT
  5
19D
  8
TITLE
 10
261086.608
 20
2704364.6850000033
 30
0.0
 40
1.0
  1
LEGEND - WORKS ACTIONS (THIS SHEET)
  0
CIRCLE
  5
19E
  8
ACT_CORE_DUCT
 62
1
 10
261087.608
 20
2704362.835000003
 30
0.0
 40
1.0
  0
CIRCLE
  5
19F
  8
ACT_CORE_DUCT
 62
5
 10
261087.608
 20
2704362.835000003
 30
0.0
 40
0.55
  0
TEXT
  5
1A0
  8
TITLE
 10
261089.608
 20
2704362.485000003
 30
0.0
 40
0.7
  1
CORE OUT SHALLOW BASE + NEW SEC. CABLE (VIA DUCT) - OUTER RED / INNER BLUE
  0
CIRCLE
  5
1A1
  8
ACT_CORE_SAW
 62
1
 10
261087.608
 20
2704360.635000003
 30
0.0
 40
1.0
  0
CIRCLE
  5
1A2
  8
ACT_CORE_SAW
 62
30
 10
261087.608
 20
2704360.635000003
 30
0.0
 40
0.55
  0
TEXT
  5
1A3
  8
TITLE
 10
261089.608
 20
2704360.285000003
 30
0.0
 40
0.7
  1
CORE OUT SHALLOW BASE + NEW SEC. CABLE (VIA SAWCUT) - OUTER RED / INNER ORANGE
  0
CIRCLE
  5
1A4
  8
ACT_CABLE_DUCT
 62
5
 10
261087.608
 20
2704358.435000003
 30
0.0
 40
1.0
  0
CIRCLE
  5
1A5
  8
ACT_CABLE_DUCT
 62
3
 10
261087.608
 20
2704358.435000003
 30
0.0
 40
0.55
  0
TEXT
  5
1A6
  8
TITLE
 10
261089.608
 20
2704358.0850000028
 30
0.0
 40
0.7
  1
NEW SECONDARY CABLE ONLY (VIA DUCT) - OUTER BLUE / INNER GREEN
  0
CIRCLE
  5
1A7
  8
ACT_CABLE_SAW
 62
30
 10
261087.608
 20
2704356.2350000027
 30
0.0
 40
1.0
  0
CIRCLE
  5
1A8
  8
ACT_CABLE_SAW
 62
3
 10
261087.608
 20
2704356.2350000027
 30
0.0
 40
0.55
  0
TEXT
  5
1A9
  8
TITLE
 10
261089.608
 20
2704355.8850000026
 30
0.0
 40
0.7
  1
NEW SECONDARY CABLE ONLY (VIA SAWCUT) - OUTER ORANGE / INNER GREEN
  0
CIRCLE
  5
1AA
  8
ACT_NOT_AFFECTED
 62
8
 10
261087.608
 20
2704354.0350000025
 30
0.0
 40
1.0
  0
TEXT
  5
1AB
  8
TITLE
 10
261089.608
 20
2704353.6850000024
 30
0.0
 40
0.7
  1
FIELD VERIFIED - NOT AFFECTED (NO WORKS) - GREY
  0
CIRCLE
  5
1AC
  8
AGL_ASSETS_ALL
 10
261087.608
 20
2704351.8350000023
 30
0.0
 40
0.5
  0
TEXT
  5
1AD
  8
TITLE
 10
261089.608
 20
2704351.485000002
 30
0.0
 40
0.7
  1
EXISTING AGL ASSET (AS-BUILT)
  0
LINE
  5
1AE
  8
DUCTS_CROSSING
 10
261086.608
 20
2704349.635000002
 30
0.0
 11
261088.608
 21
2704349.635000002
 31
0.0
  0
TEXT
  5
1AF
  8
TITLE
 10
261089.608
 20
2704349.285000002
 30
0.0
 40
0.7
  1
SECONDARY DUCT RUN CROSSING CUT (INDICATIVE)
  0
LINE
  5
1B0
  8
DUCTS_INDICATIVE_ALL
 10
261086.608
 20
2704347.435000002
 30
0.0
 11
261088.608
 21
2704347.435000002
 31
0.0
  0
TEXT
  5
1B1
  8
TITLE
 10
261089.608
 20
2704347.085000002
 30
0.0
 40
0.7
  1
INDICATIVE DUCT - LIGHT TO NEAREST PIT
  0
POLYLINE
  5
1B2
  8
AGL_WORKS_DEMARCATION
 66
1
 10
0.0
 20
0.0
 30
0.0
 70
1
  0
VERTEX
  5
1B4
  8
AGL_WORKS_DEMARCATION
 10
261086.608
 20
2704344.8850000016
 30
0.0
 70
0
  0
VERTEX
  5
1B5
  8
AGL_WORKS_DEMARCATION
 10
261088.608
 20
2704344.8850000016
 30
0.0
 70
0
  0
VERTEX
  5
1B6
  8
AGL_WORKS_DEMARCATION
 10
261088.608
 20
2704345.6850000015
 30
0.0
 70
0
  0
VERTEX
  5
1B7
  8
AGL_WORKS_DEMARCATION
 10
261086.608
 20
2704345.6850000015
 30
0.0
 70
0
  0
SEQEND
  5
1B3
  8
AGL_WORKS_DEMARCATION
  0
TEXT
  5
1B8
  8
TITLE
 10
261089.608
 20
2704344.8850000016
 30
0.0
 40
0.7
  1
AGL WORKS DEMARCATION (GOVERNING)
  0
POLYLINE
  5
1B9
  8
CIVIL_MILL_REF
 66
1
 10
0.0
 20
0.0
 30
0.0
 70
1
  0
VERTEX
  5
1BB
  8
CIVIL_MILL_REF
 10
261086.608
 20
2704342.6850000015
 30
0.0
 70
0
  0
VERTEX
  5
1BC
  8
CIVIL_MILL_REF
 10
261088.608
 20
2704342.6850000015
 30
0.0
 70
0
  0
VERTEX
  5
1BD
  8
CIVIL_MILL_REF
 10
261088.608
 20
2704343.4850000013
 30
0.0
 70
0
  0
VERTEX
  5
1BE
  8
CIVIL_MILL_REF
 10
261086.608
 20
2704343.4850000013
 30
0.0
 70
0
  0
SEQEND
  5
1BA
  8
CIVIL_MILL_REF
  0
TEXT
  5
1BF
  8
TITLE
 10
261089.608
 20
2704342.6850000015
 30
0.0
 40
0.7
  1
CIVIL MILLING DEMARCATION (REFERENCE ONLY)
  0
POLYLINE
  5
1C0
  8
AGL_FEED_PITS
 66
1
 10
0.0
 20
0.0
 30
0.0
 70
1
  0
VERTEX
  5
1C2
  8
AGL_FEED_PITS
 10
261086.608
 20
2704340.4850000013
 30
0.0
 70
0
  0
VERTEX
  5
1C3
  8
AGL_FEED_PITS
 10
261088.608
 20
2704340.4850000013
 30
0.0
 70
0
  0
VERTEX
  5
1C4
  8
AGL_FEED_PITS
 10
261088.608
 20
2704341.285000001
 30
0.0
 70
0
  0
VERTEX
  5
1C5
  8
AGL_FEED_PITS
 10
261086.608
 20
2704341.285000001
 30
0.0
 70
0
  0
SEQEND
  5
1C1
  8
AGL_FEED_PITS
  0
TEXT
  5
1C6
  8
TITLE
 10
261089.608
 20
2704340.4850000013
 30
0.0
 40
0.7
  1
AGL FEED MANHOLE / HANDHOLE
  0
ENDSEC
  0
EOF
