  0
SECTION
  2
HEADER
  9
$ACADVER
  1
AC1009
  9
$DWGCODEPAGE
  3
ANSI_1252
  9
$INSBASE
 10
0.0
 20
0.0
 30
0.0
  9
$EXTMIN
 10
1e+20
 20
1e+20
 30
1e+20
  9
$EXTMAX
 10
-1e+20
 20
-1e+20
 30
-1e+20
  9
$LIMMIN
 10
0.0
 20
0.0
  9
$LIMMAX
 10
420.0
 20
297.0
  9
$ORTHOMODE
 70
0
  9
$REGENMODE
 70
1
  9
$FILLMODE
 70
1
  9
$DRAGMODE
 70
2
  9
$QTEXTMODE
 70
0
  9
$MIRRTEXT
 70
1
  9
$OSMODE
 70
20583
  9
$LTSCALE
 40
1.0
  9
$ATTMODE
 70
1
  9
$TEXTSIZE
 40
2.5
  9
$TRACEWID
 40
1.0
  9
$TEXTSTYLE
  7
OpenSans
  9
$CLAYER
  8
0
  9
$CELTYPE
  6
ByLayer
  9
$CECOLOR
 62
256
  9
$DIMSCALE
 40
1.0
  9
$DIMASZ
 40
0.175
  9
$DIMEXO
 40
0.125
  9
$DIMDLI
 40
3.75
  9
$DIMRND
 40
0.0
  9
$DIMDLE
 40
0.0
  9
$DIMEXE
 40
0.375
  9
$DIMTP
 40
0.0
  9
$DIMTM
 40
0.0
  9
$DIMTXT
 40
0.25
  9
$DIMCEN
 40
2.5
  9
$DIMTSZ
 40
0.0
  9
$DIMTOL
 70
0
  9
$DIMLIM
 70
0
  9
$DIMTIH
 70
0
  9
$DIMTOH
 70
0
  9
$DIMSE1
 70
0
  9
$DIMSE2
 70
0
  9
$DIMTAD
 70
1
  9
$DIMZIN
 70
12
  9
$DIMBLK
  1
ARCHTICK
  9
$DIMASO
 70
1
  9
$DIMSHO
 70
1
  9
$DIMPOST
  1

  9
$DIMAPOST
  1

  9
$DIMALT
 70
0
  9
$DIMALTD
 70
3
  9
$DIMALTF
 40
0.03937007874
  9
$DIMLFAC
 40
100.0
  9
$DIMTOFL
 70
1
  9
$DIMTVP
 40
0.0
  9
$DIMTIX
 70
0
  9
$DIMSOXD
 70
0
  9
$DIMSAH
 70
0
  9
$DIMBLK1
  1

  9
$DIMBLK2
  1

  9
$DIMSTYLE
  2
EZDXF
  9
$DIMCLRD
 70
0
  9
$DIMCLRE
 70
0
  9
$DIMCLRT
 70
0
  9
$DIMTFAC
 40
0.5
  9
$DIMGAP
 40
0.1
  9
$COORDS
 70
1
  9
$ATTDIA
 70
0
  9
$ATTREQ
 70
1
  9
$HANDLING
 70
1
  9
$LUNITS
 70
2
  9
$LUPREC
 70
4
  9
$SKETCHINC
 40
1.0
  9
$FILLETRAD
 40
10.0
  9
$AUNITS
 70
0
  9
$AUPREC
 70
2
  9
$MENU
  1
.
  9
$ELEVATION
 40
0.0
  9
$PELEVATION
 40
0.0
  9
$THICKNESS
 40
0.0
  9
$LIMCHECK
 70
0
  9
$CHAMFERA
 40
0.0
  9
$CHAMFERB
 40
0.0
  9
$SKPOLY
 70
0
  9
$TDCREATE
 40
2461250.5460416665
  9
$TDUPDATE
 40
2461250.5460416665
  9
$TDINDWG
 40
0.0
  9
$TDUSRTIMER
 40
0.0
  9
$USRTIMER
 70
1
  9
$ANGBASE
 50
0.0
  9
$ANGDIR
 70
0
  9
$PDMODE
 70
0
  9
$PDSIZE
 40
0.0
  9
$PLINEWID
 40
0.0
  9
$SPLFRAME
 70
0
  9
$SPLINETYPE
 70
6
  9
$SPLINESEGS
 70
8
  9
$HANDSEED
  5
23E
  9
$SURFTAB1
 70
6
  9
$SURFTAB2
 70
6
  9
$SURFTYPE
 70
6
  9
$SURFU
 70
6
  9
$SURFV
 70
6
  9
$UCSNAME
  2

  9
$UCSORG
 10
0.0
 20
0.0
 30
0.0
  9
$UCSXDIR
 10
1.0
 20
0.0
 30
0.0
  9
$UCSYDIR
 10
0.0
 20
1.0
 30
0.0
  9
$PUCSNAME
  2

  9
$PUCSORG
 10
0.0
 20
0.0
 30
0.0
  9
$PUCSXDIR
 10
1.0
 20
0.0
 30
0.0
  9
$PUCSYDIR
 10
0.0
 20
1.0
 30
0.0
  9
$USERI1
 70
0
  9
$USERI2
 70
0
  9
$USERI3
 70
0
  9
$USERI4
 70
0
  9
$USERI5
 70
0
  9
$USERR1
 40
0.0
  9
$USERR2
 40
0.0
  9
$USERR3
 40
0.0
  9
$USERR4
 40
0.0
  9
$USERR5
 40
0.0
  9
$WORLDVIEW
 70
1
  9
$SHADEDGE
 70
3
  9
$SHADEDIF
 70
70
  9
$TILEMODE
 70
1
  9
$MAXACTVP
 70
64
  9
$PLIMCHECK
 70
0
  9
$PEXTMIN
 10
1e+20
 20
1e+20
 30
1e+20
  9
$PEXTMAX
 10
-1e+20
 20
-1e+20
 30
-1e+20
  9
$PLIMMIN
 10
0.0
 20
0.0
  9
$PLIMMAX
 10
420.0
 20
297.0
  9
$UNITMODE
 70
0
  9
$VISRETAIN
 70
1
  9
$PLINEGEN
 70
0
  9
$PSLTSCALE
 70
1
  0
ENDSEC
  0
SECTION
  2
TABLES
  0
TABLE
  2
VPORT
 70
1
  0
VPORT
  5
23
  2
*Active
 70
0
 10
0.0
 20
0.0
 11
1.0
 21
1.0
 12
0.0
 22
0.0
 13
0.0
 23
0.0
 14
0.5
 24
0.5
 15
0.5
 25
0.5
 16
0.0
 26
0.0
 36
1.0
 17
0.0
 27
0.0
 37
0.0
 40
1000.0
 41
1.34
 42
50.0
 43
0.0
 44
0.0
 50
0.0
 51
0.0
 71
0
 72
1000
 73
1
 74
3
 75
0
 76
0
 77
0
 78
0
  0
ENDTAB
  0
TABLE
  2
LTYPE
 70
21
  0
LTYPE
  5
24
  2
ByBlock
 70
0
  3

 72
65
 73
0
 40
0.0
  0
LTYPE
  5
25
  2
ByLayer
 70
0
  3

 72
65
 73
0
 40
0.0
  0
LTYPE
  5
26
  2
Continuous
 70
0
  3

 72
65
 73
0
 40
0.0
  0
LTYPE
  5
2D
  2
CENTER
 70
0
  3
Center ____ _ ____ _ ____ _ ____ _ ____ _ ____
 72
65
 73
4
 40
5.08
 49
3.175
 49
-0.635
 49
0.635
 49
-0.635
  0
LTYPE
  5
2E
  2
CENTERX2
 70
0
  3
Center (2x) ________  __  ________  __  ________
 72
65
 73
4
 40
8.89
 49
6.35
 49
-0.635
 49
1.27
 49
-0.635
  0
LTYPE
  5
2F
  2
CENTER2
 70
0
  3
Center (.5x) ____ _ ____ _ ____ _ ____ _ ____
 72
65
 73
4
 40
2.54
 49
1.587
 49
-0.318
 49
0.318
 49
-0.318
  0
LTYPE
  5
30
  2
DASHED
 70
0
  3
Dashed __ __ __ __ __ __ __ __ __ __ __ __ __ _
 72
65
 73
2
 40
1.524
 49
1.27
 49
-0.254
  0
LTYPE
  5
31
  2
DASHEDX2
 70
0
  3
Dashed (2x) ____  ____  ____  ____  ____  ____
 72
65
 73
2
 40
3.048
 49
2.54
 49
-0.508
  0
LTYPE
  5
32
  2
DASHED2
 70
0
  3
Dashed (.5x) _ _ _ _ _ _ _ _ _ _ _ _ _ _
 72
65
 73
2
 40
0.762
 49
0.635
 49
-0.127
  0
LTYPE
  5
33
  2
PHANTOM
 70
0
  3
Phantom ______  __  __  ______  __  __  ______
 72
65
 73
6
 40
6.35
 49
3.175
 49
-0.635
 49
0.635
 49
-0.635
 49
0.635
 49
-0.635
  0
LTYPE
  5
34
  2
PHANTOMX2
 70
0
  3
Phantom (2x)____________    ____    ____    ____________
 72
65
 73
6
 40
10.795
 49
6.35
 49
-0.635
 49
1.27
 49
-0.635
 49
1.27
 49
-0.635
  0
LTYPE
  5
35
  2
PHANTOM2
 70
0
  3
Phantom (.5x) ___ _ _ ___ _ _ ___ _ _ ___ _ _ ___
 72
65
 73
6
 40
3.175
 49
1.587
 49
-0.318
 49
0.318
 49
-0.318
 49
0.318
 49
-0.318
  0
LTYPE
  5
36
  2
DASHDOT
 70
0
  3
Dash dot __ . __ . __ . __ . __ . __ . __ . __
 72
65
 73
4
 40
3.556
 49
2.54
 49
-0.508
 49
0.0
 49
-0.508
  0
LTYPE
  5
37
  2
DASHDOTX2
 70
0
  3
Dash dot (2x) ____  .  ____  .  ____  .  ____
 72
65
 73
4
 40
6.096
 49
5.08
 49
-0.508
 49
0.0
 49
-0.508
  0
LTYPE
  5
38
  2
DASHDOT2
 70
0
  3
Dash dot (.5x) _ . _ . _ . _ . _ . _ . _ . _
 72
65
 73
4
 40
1.778
 49
1.27
 49
-0.254
 49
0.0
 49
-0.254
  0
LTYPE
  5
39
  2
DOT
 70
0
  3
Dot .  .  .  .  .  .  .  .  .  .  .  .  .  .  .  .
 72
65
 73
2
 40
0.508
 49
0.0
 49
-0.508
  0
LTYPE
  5
3A
  2
DOTX2
 70
0
  3
Dot (2x) .    .    .    .    .    .    .    . 
 72
65
 73
2
 40
1.016
 49
0.0
 49
-1.016
  0
LTYPE
  5
3B
  2
DOT2
 70
0
  3
Dot (.5) . . . . . . . . . . . . . . . . . . . 
 72
65
 73
2
 40
0.254
 49
0.0
 49
-0.254
  0
LTYPE
  5
3C
  2
DIVIDE
 70
0
  3
Divide __ . . __ . . __ . . __ . . __ . . __
 72
65
 73
6
 40
4.064
 49
2.54
 49
-0.508
 49
0.0
 49
-0.508
 49
0.0
 49
-0.508
  0
LTYPE
  5
3D
  2
DIVIDEX2
 70
0
  3
Divide (2x) ____  . .  ____  . .  ____  . .  ____
 72
65
 73
6
 40
6.604
 49
5.08
 49
-0.508
 49
0.0
 49
-0.508
 49
0.0
 49
-0.508
  0
LTYPE
  5
3E
  2
DIVIDE2
 70
0
  3
Divide(.5x) _ . _ . _ . _ . _ . _ . _ . _
 72
65
 73
6
 40
2.032
 49
1.27
 49
-0.254
 49
0.0
 49
-0.254
 49
0.0
 49
-0.254
  0
ENDTAB
  0
TABLE
  2
LAYER
 70
19
  0
LAYER
  5
27
  2
0
 70
0
 62
7
  6
Continuous
  0
LAYER
  5
28
  2
Defpoints
 70
0
 62
7
  6
Continuous
  0
LAYER
  5
8F
  2
AGL_ASSETS_ALL
 70
0
 62
4
  6
CONTINUOUS
  0
LAYER
  5
90
  2
AGL_FEED_PITS
 70
0
 62
6
  6
CONTINUOUS
  0
LAYER
  5
91
  2
DUCTS_CROSSING
 70
0
 62
6
  6
DASHED
  0
LAYER
  5
92
  2
DUCTS_INDICATIVE_ALL
 70
0
 62
8
  6
DASHED2
  0
LAYER
  5
93
  2
LABELS_ASSETS_ALL
 70
0
 62
8
  6
CONTINUOUS
  0
LAYER
  5
94
  2
AGL_WORKS_DEMARCATION
 70
0
 62
1
  6
Continuous
  0
LAYER
  5
95
  2
MARK_CENTERLINE
 70
0
 62
2
  6
DASHDOT
  0
LAYER
  5
96
  2
MARK_STOPBAR
 70
0
 62
12
  6
Continuous
  0
LAYER
  5
97
  2
MARK_EDGE
 70
0
 62
8
  6
Continuous
  0
LAYER
  5
98
  2
LABELS_WORKS
 70
0
 62
7
  6
Continuous
  0
LAYER
  5
99
  2
TITLE
 70
0
 62
7
  6
Continuous
  0
LAYER
  5
9A
  2
ACT_CORE_DUCT
 70
0
 62
1
  6
Continuous
  0
LAYER
  5
9B
  2
ACT_CORE_SAW
 70
0
 62
1
  6
Continuous
  0
LAYER
  5
9C
  2
ACT_CABLE_DUCT
 70
0
 62
5
  6
Continuous
  0
LAYER
  5
9D
  2
ACT_CABLE_SAW
 70
0
 62
30
  6
Continuous
  0
LAYER
  5
9E
  2
ACT_NOT_AFFECTED
 70
0
 62
8
  6
Continuous
  0
LAYER
  5
9F
  2
ACT_RRM
 70
0
 62
6
  6
Continuous
  0
ENDTAB
  0
TABLE
  2
STYLE
 70
26
  0
STYLE
  5
29
  2
Standard
 70
0
 40
0.0
 41
1.0
 50
0.0
 71
0
 42
2.5
  3
txt
  4

  0
STYLE
  5
3F
  2
OpenSans-Light
 70
0
 40
0.0
 41
1.0
 50
0.0
 71
0
 42
2.5
  3
OpenSans-Light.ttf
  4

  0
STYLE
  5
40
  2
OpenSans-Light-Italic
 70
0
 40
0.0
 41
1.0
 50
0.0
 71
0
 42
2.5
  3
OpenSans-LightItalic.ttf
  4

  0
STYLE
  5
41
  2
OpenSans
 70
0
 40
0.0
 41
1.0
 50
0.0
 71
0
 42
2.5
  3
OpenSans-Regular.ttf
  4

  0
STYLE
  5
42
  2
OpenSans-Italic
 70
0
 40
0.0
 41
1.0
 50
0.0
 71
0
 42
2.5
  3
OpenSans-Italic.ttf
  4

  0
STYLE
  5
43
  2
OpenSans-SemiBold
 70
0
 40
0.0
 41
1.0
 50
0.0
 71
0
 42
2.5
  3
OpenSans-SemiBold.ttf
  4

  0
STYLE
  5
44
  2
OpenSans-SemiBoldItalic
 70
0
 40
0.0
 41
1.0
 50
0.0
 71
0
 42
2.5
  3
OpenSans-SemiBoldItalic.ttf
  4

  0
STYLE
  5
45
  2
OpenSans-Bold
 70
0
 40
0.0
 41
1.0
 50
0.0
 71
0
 42
2.5
  3
OpenSans-Bold.ttf
  4

  0
STYLE
  5
46
  2
OpenSans-BoldItalic
 70
0
 40
0.0
 41
1.0
 50
0.0
 71
0
 42
2.5
  3
OpenSans-BoldItalic.ttf
  4

  0
STYLE
  5
47
  2
OpenSans-ExtraBold
 70
0
 40
0.0
 41
1.0
 50
0.0
 71
0
 42
2.5
  3
OpenSans-ExtraBold.ttf
  4

  0
STYLE
  5
48
  2
OpenSans-ExtraBoldItalic
 70
0
 40
0.0
 41
1.0
 50
0.0
 71
0
 42
2.5
  3
OpenSans-ExtraBoldItalic.ttf
  4

  0
STYLE
  5
49
  2
OpenSansCondensed-Bold
 70
0
 40
0.0
 41
1.0
 50
0.0
 71
0
 42
2.5
  3
OpenSansCondensed-Bold.ttf
  4

  0
STYLE
  5
4A
  2
OpenSansCondensed-Light
 70
0
 40
0.0
 41
1.0
 50
0.0
 71
0
 42
2.5
  3
OpenSansCondensed-Light.ttf
  4

  0
STYLE
  5
4B
  2
OpenSansCondensed-Italic
 70
0
 40
0.0
 41
1.0
 50
0.0
 71
0
 42
2.5
  3
OpenSansCondensed-LightItalic.ttf
  4

  0
STYLE
  5
4C
  2
LiberationSans
 70
0
 40
0.0
 41
1.0
 50
0.0
 71
0
 42
2.5
  3
LiberationSans-Regular.ttf
  4

  0
STYLE
  5
4D
  2
LiberationSans-Bold
 70
0
 40
0.0
 41
1.0
 50
0.0
 71
0
 42
2.5
  3
LiberationSans-Bold.ttf
  4

  0
STYLE
  5
4E
  2
LiberationSans-BoldItalic
 70
0
 40
0.0
 41
1.0
 50
0.0
 71
0
 42
2.5
  3
LiberationSans-BoldItalic.ttf
  4

  0
STYLE
  5
4F
  2
LiberationSans-Italic
 70
0
 40
0.0
 41
1.0
 50
0.0
 71
0
 42
2.5
  3
LiberationSans-Italic.ttf
  4

  0
STYLE
  5
50
  2
LiberationSerif
 70
0
 40
0.0
 41
1.0
 50
0.0
 71
0
 42
2.5
  3
LiberationSerif-Regular.ttf
  4

  0
STYLE
  5
51
  2
LiberationSerif-Bold
 70
0
 40
0.0
 41
1.0
 50
0.0
 71
0
 42
2.5
  3
LiberationSerif-Bold.ttf
  4

  0
STYLE
  5
52
  2
LiberationSerif-BoldItalic
 70
0
 40
0.0
 41
1.0
 50
0.0
 71
0
 42
2.5
  3
LiberationSerif-BoldItalic.ttf
  4

  0
STYLE
  5
53
  2
LiberationSerif-Italic
 70
0
 40
0.0
 41
1.0
 50
0.0
 71
0
 42
2.5
  3
LiberationSerif-Italic.ttf
  4

  0
STYLE
  5
54
  2
LiberationMono
 70
0
 40
0.0
 41
1.0
 50
0.0
 71
0
 42
2.5
  3
LiberationMono-Regular.ttf
  4

  0
STYLE
  5
55
  2
LiberationMono-Bold
 70
0
 40
0.0
 41
1.0
 50
0.0
 71
0
 42
2.5
  3
LiberationMono-Bold.ttf
  4

  0
STYLE
  5
56
  2
LiberationMono-BoldItalic
 70
0
 40
0.0
 41
1.0
 50
0.0
 71
0
 42
2.5
  3
LiberationMono-BoldItalic.ttf
  4

  0
STYLE
  5
57
  2
LiberationMono-Italic
 70
0
 40
0.0
 41
1.0
 50
0.0
 71
0
 42
2.5
  3
LiberationMono-Italic.ttf
  4

  0
ENDTAB
  0
TABLE
  2
VIEW
 70
0
  0
ENDTAB
  0
TABLE
  2
UCS
 70
0
  0
ENDTAB
  0
TABLE
  2
APPID
 70
3
  0
APPID
  5
2A
  2
ACAD
 70
0
  0
APPID
  5
23C
  2
HATCHBACKGROUNDCOLOR
 70
0
  0
APPID
  5
23D
  2
EZDXF
 70
0
  0
ENDTAB
  0
TABLE
  2
DIMSTYLE
 70
12
  0
DIMSTYLE
105
2B
  2
Standard
 70
0
  3

  4

  5

  6

  7

 40
1.0
 41
2.5
 42
0.625
 43
3.75
 44
1.25
 45
0.0
 46
0.0
 47
0.0
 48
0.0
140
2.5
141
2.5
142
0.0
143
0.03937007874
144
1.0
145
0.0
146
1.0
147
0.625
 71
0
 72
0
 73
0
 74
0
 75
0
 76
0
 77
1
 78
8
170
0
171
3
172
1
173
0
174
0
175
0
176
0
177
0
178
0
  0
DIMSTYLE
105
71
  2
EZDXF
 70
0
  3

  4

  5
ARCHTICK
  6

  7

 40
1.0
 41
0.175
 42
0.125
 43
3.75
 44
0.375
 45
0.0
 46
0.0
 47
0.0
 48
0.0
140
0.25
141
2.5
142
0.0
143
0.03937007874
144
100.0
145
0.0
146
0.5
147
0.1
 71
0
 72
0
 73
0
 74
0
 75
0
 76
0
 77
1
 78
12
170
0
171
3
172
1
173
0
174
0
175
0
176
0
177
0
178
0
  0
DIMSTYLE
105
7D
  2
EZ_M_100_H25_CM
 70
0
  3

  4

  5

  6

  7

 40
1.0
 41
0.25
 42
0.125
 43
3.75
 44
0.375
 45
0.0
 46
0.0
 47
0.0
 48
0.0
140
0.25
141
2.5
142
0.125
143
0.03937007874
144
100.0
145
0.0
146
0.5
147
0.1
 71
0
 72
0
 73
0
 74
0
 75
0
 76
0
 77
1
 78
12
170
0
171
3
172
1
173
0
174
0
175
0
176
0
177
0
178
0
  0
DIMSTYLE
105
7E
  2
EZ_M_50_H25_CM
 70
0
  3

  4

  5

  6

  7

 40
1.0
 41
0.125
 42
0.0625
 43
3.75
 44
0.1875
 45
0.0
 46
0.0
 47
0.0
 48
0.0
140
0.125
141
2.5
142
0.0625
143
0.03937007874
144
100.0
145
0.0
146
0.5
147
0.05
 71
0
 72
0
 73
0
 74
0
 75
0
 76
0
 77
1
 78
12
170
0
171
3
172
1
173
0
174
0
175
0
176
0
177
0
178
0
  0
DIMSTYLE
105
7F
  2
EZ_M_25_H25_CM
 70
0
  3

  4

  5

  6

  7

 40
1.0
 41
0.0625
 42
0.03125
 43
3.75
 44
0.09375
 45
0.0
 46
0.0
 47
0.0
 48
0.0
140
0.0625
141
2.5
142
0.03125
143
0.03937007874
144
100.0
145
0.0
146
0.5
147
0.025
 71
0
 72
0
 73
0
 74
0
 75
0
 76
0
 77
1
 78
12
170
0
171
3
172
1
173
0
174
0
175
0
176
0
177
0
178
0
  0
DIMSTYLE
105
80
  2
EZ_M_20_H25_CM
 70
0
  3

  4

  5

  6

  7

 40
1.0
 41
0.05
 42
0.025
 43
3.75
 44
0.07500000000000001
 45
0.0
 46
0.0
 47
0.0
 48
0.0
140
0.05
141
2.5
142
0.025
143
0.03937007874
144
100.0
145
0.0
146
0.5
147
0.020000000000000004
 71
0
 72
0
 73
0
 74
0
 75
0
 76
0
 77
1
 78
12
170
0
171
3
172
1
173
0
174
0
175
0
176
0
177
0
178
0
  0
DIMSTYLE
105
81
  2
EZ_M_10_H25_CM
 70
0
  3

  4

  5

  6

  7

 40
1.0
 41
0.025
 42
0.0125
 43
3.75
 44
0.037500000000000006
 45
0.0
 46
0.0
 47
0.0
 48
0.0
140
0.025
141
2.5
142
0.0125
143
0.03937007874
144
100.0
145
0.0
146
0.5
147
0.010000000000000002
 71
0
 72
0
 73
0
 74
0
 75
0
 76
0
 77
1
 78
12
170
0
171
3
172
1
173
0
174
0
175
0
176
0
177
0
178
0
  0
DIMSTYLE
105
82
  2
EZ_M_5_H25_CM
 70
0
  3

  4

  5

  6

  7

 40
1.0
 41
0.0125
 42
0.00625
 43
3.75
 44
0.018750000000000003
 45
0.0
 46
0.0
 47
0.0
 48
0.0
140
0.0125
141
2.5
142
0.00625
143
0.03937007874
144
100.0
145
0.0
146
0.5
147
0.005000000000000001
 71
0
 72
0
 73
0
 74
0
 75
0
 76
0
 77
1
 78
12
170
0
171
3
172
1
173
0
174
0
175
0
176
0
177
0
178
0
  0
DIMSTYLE
105
83
  2
EZ_M_1_H25_CM
 70
0
  3

  4

  5

  6

  7

 40
1.0
 41
0.0025
 42
0.00125
 43
3.75
 44
0.00375
 45
0.0
 46
0.0
 47
0.0
 48
0.0
140
0.0025
141
2.5
142
0.00125
143
0.03937007874
144
100.0
145
0.0
146
0.5
147
0.001
 71
0
 72
0
 73
0
 74
0
 75
0
 76
0
 77
1
 78
12
170
0
171
3
172
1
173
0
174
0
175
0
176
0
177
0
178
0
  0
DIMSTYLE
105
84
  2
EZ_RADIUS
 70
0
  3

  4

  5
CLOSEDBLANK
  6

  7

 40
1.0
 41
0.25
 42
0.125
 43
3.75
 44
0.375
 45
0.0
 46
0.0
 47
0.0
 48
0.0
140
0.25
141
0.0
142
0.0
143
0.03937007874
144
100.0
145
0.0
146
0.5
147
0.1
 71
0
 72
0
 73
0
 74
0
 75
0
 76
0
 77
1
 78
12
170
0
171
3
172
0
173
0
174
0
175
0
176
0
177
0
178
0
  0
DIMSTYLE
105
8D
  2
EZ_RADIUS_INSIDE
 70
0
  3

  4

  5
CLOSEDBLANK
  6

  7

 40
1.0
 41
0.25
 42
0.125
 43
3.75
 44
0.375
 45
0.0
 46
0.0
 47
0.0
 48
0.0
140
0.25
141
0.0
142
0.0
143
0.03937007874
144
100.0
145
0.0
146
0.5
147
0.1
 71
0
 72
0
 73
0
 74
0
 75
0
 76
0
 77
0
 78
12
170
0
171
3
172
0
173
0
174
1
175
0
176
0
177
0
178
0
  0
DIMSTYLE
105
8E
  2
EZ_CURVED
 70
0
  3

  4

  5

  6

  7

 40
1.0
 41
0.25
 42
0.125
 43
3.75
 44
0.375
 45
0.0
 46
0.0
 47
0.0
 48
0.0
140
0.25
141
2.5
142
0.0
143
0.03937007874
144
100.0
145
0.0
146
0.5
147
0.1
 71
0
 72
0
 73
0
 74
0
 75
0
 76
0
 77
1
 78
12
170
0
171
3
172
1
173
0
174
0
175
0
176
0
177
0
178
0
  0
ENDTAB
  0
ENDSEC
  0
SECTION
  2
BLOCKS
  0
BLOCK
  5
18
  8
0
  2
$Model_Space
 70
0
 10
0.0
 20
0.0
 30
0.0
  3
$Model_Space
  1

1001
EZDXF
1000
CREATED_BY_EZDXF
1000
1.4.4 @ 2026-07-28T13:06:18.131418+00:00
1000
WRITTEN_BY_EZDXF
1000
1.4.4 @ 2026-07-28T13:06:18.149751+00:00
  0
ENDBLK
  5
19
  8
0
  0
BLOCK
  5
1C
  8
0
  2
$Paper_Space
 70
0
 10
0.0
 20
0.0
 30
0.0
  3
$Paper_Space
  1

  0
ENDBLK
  5
1D
  8
0
  0
BLOCK
  5
73
  8
0
  2
_ARCHTICK
 70
0
 10
0.0
 20
0.0
 30
0.0
  3
_ARCHTICK
  1

  0
POLYLINE
  5
75
  8
0
  6
BYBLOCK
 62
0
 66
1
 10
0.0
 20
0.0
 30
0.0
 70
0
 40
0.15
 41
0.15
  0
VERTEX
  5
77
  8
0
  6
BYBLOCK
 10
-0.5
 20
-0.5
 30
0.0
 70
0
  0
VERTEX
  5
78
  8
0
  6
BYBLOCK
 10
0.5
 20
0.5
 30
0.0
 70
0
  0
SEQEND
  5
76
  8
0
  0
ENDBLK
  5
74
  8
0
  0
BLOCK
  5
7A
  8
0
  2
_CLOSEDFILLED
 70
0
 10
0.0
 20
0.0
 30
0.0
  3
_CLOSEDFILLED
  1

  0
SOLID
  5
7C
  8
0
  6
BYBLOCK
 62
0
 10
-1.0
 20
0.16439898372402537
 30
0.0
 11
0.0
 21
0.0
 31
0.0
 12
-1.0
 22
-0.16439898372402537
 32
0.0
 13
-1.0
 23
-0.16439898372402537
 33
0.0
  0
ENDBLK
  5
7B
  8
0
  0
BLOCK
  5
86
  8
0
  2
_CLOSEDBLANK
 70
0
 10
0.0
 20
0.0
 30
0.0
  3
_CLOSEDBLANK
  1

  0
POLYLINE
  5
88
  8
0
  6
BYBLOCK
 62
0
 66
1
 10
0.0
 20
0.0
 30
0.0
 70
1
  0
VERTEX
  5
8A
  8
0
  6
BYBLOCK
 10
-1.0
 20
0.16439898372402537
 30
0.0
 70
0
  0
VERTEX
  5
8B
  8
0
  6
BYBLOCK
 10
0.0
 20
0.0
 30
0.0
 70
0
  0
VERTEX
  5
8C
  8
0
  6
BYBLOCK
 10
-1.0
 20
-0.16439898372402537
 30
0.0
 70
0
  0
SEQEND
  5
89
  8
0
  0
ENDBLK
  5
87
  8
0
  0
ENDSEC
  0
SECTION
  2
ENTITIES
  0
CIRCLE
  5
A0
  8
AGL_ASSETS_ALL
 10
260887.086
 20
2704667.999
 30
0.0
 40
0.25
  0
TEXT
  5
A1
  8
LABELS_ASSETS_ALL
 10
260887.43600000002
 20
2704668.2989999996
 30
0.0
 40
0.3
  1
RRM.283
  0
CIRCLE
  5
A2
  8
AGL_ASSETS_ALL
 10
260850.976
 20
2704710.059
 30
0.0
 40
0.25
  0
TEXT
  5
A3
  8
LABELS_ASSETS_ALL
 10
260851.326
 20
2704710.3589999997
 30
0.0
 40
0.3
  1
P4.036.399
  0
CIRCLE
  5
A4
  8
AGL_ASSETS_ALL
 10
260887.158
 20
2704651.119
 30
0.0
 40
0.25
  0
TEXT
  5
A5
  8
LABELS_ASSETS_ALL
 10
260887.508
 20
2704651.4189999998
 30
0.0
 40
0.3
  1
TCCECH.04.005
  0
CIRCLE
  5
A6
  8
AGL_ASSETS_ALL
 10
260875.475
 20
2704660.496
 30
0.0
 40
0.25
  0
TEXT
  5
A7
  8
LABELS_ASSETS_ALL
 10
260875.825
 20
2704660.7959999996
 30
0.0
 40
0.3
  1
TCCECH.04.004
  0
CIRCLE
  5
A8
  8
AGL_ASSETS_ALL
 10
260848.728
 20
2704667.434
 30
0.0
 40
0.25
  0
TEXT
  5
A9
  8
LABELS_ASSETS_ALL
 10
260849.078
 20
2704667.7339999997
 30
0.0
 40
0.3
  1
RRM.547
  0
CIRCLE
  5
AA
  8
AGL_ASSETS_ALL
 10
260831.782
 20
2704679.137
 30
0.0
 40
0.25
  0
TEXT
  5
AB
  8
LABELS_ASSETS_ALL
 10
260832.132
 20
2704679.437
 30
0.0
 40
0.3
  1
RRM.548
  0
CIRCLE
  5
AC
  8
AGL_ASSETS_ALL
 10
260838.723
 20
2704711.376
 30
0.0
 40
0.25
  0
TEXT
  5
AD
  8
LABELS_ASSETS_ALL
 10
260839.073
 20
2704711.676
 30
0.0
 40
0.3
  1
RRM.558
  0
CIRCLE
  5
AE
  8
AGL_ASSETS_ALL
 10
260829.282
 20
2704722.951
 30
0.0
 40
0.25
  0
TEXT
  5
AF
  8
LABELS_ASSETS_ALL
 10
260829.632
 20
2704723.2509999997
 30
0.0
 40
0.3
  1
RRM.559
  0
CIRCLE
  5
B0
  8
AGL_ASSETS_ALL
 10
260818.817
 20
2704686.339
 30
0.0
 40
0.25
  0
TEXT
  5
B1
  8
LABELS_ASSETS_ALL
 10
260819.16700000002
 20
2704686.639
 30
0.0
 40
0.3
  1
RRM.655
  0
CIRCLE
  5
B2
  8
AGL_ASSETS_ALL
 10
260849.501
 20
2704700.887
 30
0.0
 40
0.25
  0
TEXT
  5
B3
  8
LABELS_ASSETS_ALL
 10
260849.851
 20
2704701.187
 30
0.0
 40
0.3
  1
RRM.669
  0
CIRCLE
  5
B4
  8
AGL_ASSETS_ALL
 10
260833.577
 20
2704659.492
 30
0.0
 40
0.25
  0
TEXT
  5
B5
  8
LABELS_ASSETS_ALL
 10
260833.927
 20
2704659.792
 30
0.0
 40
0.3
  1
HH.E.144
  0
CIRCLE
  5
B6
  8
AGL_ASSETS_ALL
 10
260898.861
 20
2704641.718
 30
0.0
 40
0.25
  0
TEXT
  5
B7
  8
LABELS_ASSETS_ALL
 10
260899.211
 20
2704642.0179999997
 30
0.0
 40
0.3
  1
TCCECH.03.006
  0
CIRCLE
  5
B8
  8
AGL_ASSETS_ALL
 10
260869.617
 20
2704665.202
 30
0.0
 40
0.25
  0
TEXT
  5
B9
  8
LABELS_ASSETS_ALL
 10
260869.967
 20
2704665.502
 30
0.0
 40
0.3
  1
TCCECH.03.004
  0
CIRCLE
  5
BA
  8
AGL_ASSETS_ALL
 10
260863.744
 20
2704669.882
 30
0.0
 40
0.25
  0
TEXT
  5
BB
  8
LABELS_ASSETS_ALL
 10
260864.094
 20
2704670.182
 30
0.0
 40
0.3
  1
TCCECH.04.003
  0
CIRCLE
  5
BC
  8
AGL_ASSETS_ALL
 10
260857.92
 20
2704674.589
 30
0.0
 40
0.25
  0
TEXT
  5
BD
  8
LABELS_ASSETS_ALL
 10
260858.27000000002
 20
2704674.889
 30
0.0
 40
0.3
  1
TCCECH.03.003
  0
CIRCLE
  5
BE
  8
AGL_ASSETS_ALL
 10
260852.058
 20
2704679.31
 30
0.0
 40
0.25
  0
TEXT
  5
BF
  8
LABELS_ASSETS_ALL
 10
260852.408
 20
2704679.61
 30
0.0
 40
0.3
  1
TCCECH.04.002
  0
CIRCLE
  5
C0
  8
AGL_ASSETS_ALL
 10
260881.322
 20
2704655.819
 30
0.0
 40
0.25
  0
TEXT
  5
C1
  8
LABELS_ASSETS_ALL
 10
260881.672
 20
2704656.119
 30
0.0
 40
0.3
  1
TCCECH.03.005
  0
CIRCLE
  5
C2
  8
AGL_ASSETS_ALL
 10
260811.959
 20
2704704.312
 30
0.0
 40
0.25
  0
TEXT
  5
C3
  8
LABELS_ASSETS_ALL
 10
260812.309
 20
2704704.6119999997
 30
0.0
 40
0.3
  1
TCCECH.05.034
  0
CIRCLE
  5
C4
  8
AGL_ASSETS_ALL
 10
260825.648
 20
2704698.239
 30
0.0
 40
0.25
  0
TEXT
  5
C5
  8
LABELS_ASSETS_ALL
 10
260825.998
 20
2704698.539
 30
0.0
 40
0.3
  1
TCCECH.05.033
  0
CIRCLE
  5
C6
  8
AGL_ASSETS_ALL
 10
260832.138
 20
2704694.451
 30
0.0
 40
0.25
  0
TEXT
  5
C7
  8
LABELS_ASSETS_ALL
 10
260832.488
 20
2704694.7509999997
 30
0.0
 40
0.3
  1
TCCECH.06.035
  0
CIRCLE
  5
C8
  8
AGL_ASSETS_ALL
 10
260818.919
 20
2704701.529
 30
0.0
 40
0.25
  0
TEXT
  5
C9
  8
LABELS_ASSETS_ALL
 10
260819.269
 20
2704701.829
 30
0.0
 40
0.3
  1
TCCECH.06.036
  0
CIRCLE
  5
CA
  8
AGL_ASSETS_ALL
 10
260814.569
 20
2704704.917
 30
0.0
 40
0.25
  0
TEXT
  5
CB
  8
LABELS_ASSETS_ALL
 10
260814.919
 20
2704705.2169999997
 30
0.0
 40
0.3
  1
EL.EBASE.13328
  0
CIRCLE
  5
CC
  8
AGL_ASSETS_ALL
 10
260821.313
 20
2704701.81
 30
0.0
 40
0.25
  0
TEXT
  5
CD
  8
LABELS_ASSETS_ALL
 10
260821.663
 20
2704702.11
 30
0.0
 40
0.3
  1
EL.EBASE.13329
  0
CIRCLE
  5
CE
  8
AGL_ASSETS_ALL
 10
260827.948
 20
2704698.262
 30
0.0
 40
0.25
  0
TEXT
  5
CF
  8
LABELS_ASSETS_ALL
 10
260828.298
 20
2704698.562
 30
0.0
 40
0.3
  1
EL.EBASE.13330
  0
CIRCLE
  5
D0
  8
AGL_ASSETS_ALL
 10
260834.272
 20
2704694.276
 30
0.0
 40
0.25
  0
TEXT
  5
D1
  8
LABELS_ASSETS_ALL
 10
260834.622
 20
2704694.576
 30
0.0
 40
0.3
  1
EL.EBASE.13331
  0
CIRCLE
  5
D2
  8
AGL_ASSETS_ALL
 10
260846.204
 20
2704683.98
 30
0.0
 40
0.25
  0
TEXT
  5
D3
  8
LABELS_ASSETS_ALL
 10
260846.554
 20
2704684.28
 30
0.0
 40
0.3
  1
TCCECH.03.002
  0
CIRCLE
  5
D4
  8
AGL_ASSETS_ALL
 10
260844.902
 20
2704683.114
 30
0.0
 40
0.25
  0
TEXT
  5
D5
  8
LABELS_ASSETS_ALL
 10
260845.252
 20
2704683.414
 30
0.0
 40
0.3
  1
SBC102.01.040
  0
CIRCLE
  5
D6
  8
AGL_ASSETS_ALL
 10
260843.011
 20
2704680.776
 30
0.0
 40
0.25
  0
TEXT
  5
D7
  8
LABELS_ASSETS_ALL
 10
260843.361
 20
2704681.076
 30
0.0
 40
0.3
  1
SBC102.02.037
  0
CIRCLE
  5
D8
  8
AGL_ASSETS_ALL
 10
260841.134
 20
2704678.432
 30
0.0
 40
0.25
  0
TEXT
  5
D9
  8
LABELS_ASSETS_ALL
 10
260841.484
 20
2704678.732
 30
0.0
 40
0.3
  1
SBC102.01.041
  0
CIRCLE
  5
DA
  8
AGL_ASSETS_ALL
 10
260839.265
 20
2704676.09
 30
0.0
 40
0.25
  0
TEXT
  5
DB
  8
LABELS_ASSETS_ALL
 10
260839.61500000002
 20
2704676.3899999997
 30
0.0
 40
0.3
  1
SBC102.02.038
  0
CIRCLE
  5
DC
  8
AGL_ASSETS_ALL
 10
260816.944
 20
2704707.459
 30
0.0
 40
0.25
  0
TEXT
  5
DD
  8
LABELS_ASSETS_ALL
 10
260817.294
 20
2704707.7589999996
 30
0.0
 40
0.3
  1
TCC102.01.052
  0
CIRCLE
  5
DE
  8
AGL_ASSETS_ALL
 10
260828.667
 20
2704698.02
 30
0.0
 40
0.25
  0
TEXT
  5
DF
  8
LABELS_ASSETS_ALL
 10
260829.017
 20
2704698.32
 30
0.0
 40
0.3
  1
TCC102.02.050
  0
CIRCLE
  5
E0
  8
AGL_ASSETS_ALL
 10
260838.357
 20
2704690.266
 30
0.0
 40
0.25
  0
TEXT
  5
E1
  8
LABELS_ASSETS_ALL
 10
260838.707
 20
2704690.5659999996
 30
0.0
 40
0.3
  1
TCCECH.03.001
  0
CIRCLE
  5
E2
  8
AGL_ASSETS_ALL
 10
260811.671
 20
2704722.913
 30
0.0
 40
0.25
  0
TEXT
  5
E3
  8
LABELS_ASSETS_ALL
 10
260812.021
 20
2704723.213
 30
0.0
 40
0.3
  1
TCCECH.05.016
  0
CIRCLE
  5
E4
  8
AGL_ASSETS_ALL
 10
260819.5
 20
2704710.14
 30
0.0
 40
0.25
  0
TEXT
  5
E5
  8
LABELS_ASSETS_ALL
 10
260819.85
 20
2704710.44
 30
0.0
 40
0.3
  1
TCCECH.05.017
  0
CIRCLE
  5
E6
  8
AGL_ASSETS_ALL
 10
260834.525
 20
2704693.355
 30
0.0
 40
0.25
  0
TEXT
  5
E7
  8
LABELS_ASSETS_ALL
 10
260834.875
 20
2704693.655
 30
0.0
 40
0.3
  1
TCCECH.06.019
  0
CIRCLE
  5
E8
  8
AGL_ASSETS_ALL
 10
260815.341
 20
2704716.393
 30
0.0
 40
0.25
  0
TEXT
  5
E9
  8
LABELS_ASSETS_ALL
 10
260815.691
 20
2704716.693
 30
0.0
 40
0.3
  1
TCCECH.06.017
  0
CIRCLE
  5
EA
  8
AGL_ASSETS_ALL
 10
260824.093
 20
2704704.217
 30
0.0
 40
0.25
  0
TEXT
  5
EB
  8
LABELS_ASSETS_ALL
 10
260824.443
 20
2704704.517
 30
0.0
 40
0.3
  1
TCCECH.06.018
  0
CIRCLE
  5
EC
  8
AGL_ASSETS_ALL
 10
260840.391
 20
2704688.644
 30
0.0
 40
0.25
  0
TEXT
  5
ED
  8
LABELS_ASSETS_ALL
 10
260840.741
 20
2704688.9439999997
 30
0.0
 40
0.3
  1
TCCECH.04.001
  0
CIRCLE
  5
EE
  8
AGL_ASSETS_ALL
 10
260829.124
 20
2704698.661
 30
0.0
 40
0.25
  0
TEXT
  5
EF
  8
LABELS_ASSETS_ALL
 10
260829.47400000002
 20
2704698.9609999997
 30
0.0
 40
0.3
  1
TCCECH.05.018
  0
CIRCLE
  5
F0
  8
AGL_ASSETS_ALL
 10
260860.736
 20
2704699.365
 30
0.0
 40
0.25
  0
TEXT
  5
F1
  8
LABELS_ASSETS_ALL
 10
260861.086
 20
2704699.665
 30
0.0
 40
0.3
  1
P4.037
  0
CIRCLE
  5
F2
  8
AGL_ASSETS_ALL
 10
260892.942
 20
2704672.332
 30
0.0
 40
0.25
  0
TEXT
  5
F3
  8
LABELS_ASSETS_ALL
 10
260893.29200000002
 20
2704672.6319999998
 30
0.0
 40
0.3
  1
P4.039
  0
CIRCLE
  5
F4
  8
AGL_ASSETS_ALL
 10
260897.182
 20
2704677.025
 30
0.0
 40
0.25
  0
TEXT
  5
F5
  8
LABELS_ASSETS_ALL
 10
260897.532
 20
2704677.3249999997
 30
0.0
 40
0.3
  1
HH.E.057
  0
CIRCLE
  5
F6
  8
AGL_ASSETS_ALL
 10
260863.584
 20
2704705.744
 30
0.0
 40
0.25
  0
TEXT
  5
F7
  8
LABELS_ASSETS_ALL
 10
260863.934
 20
2704706.0439999998
 30
0.0
 40
0.3
  1
HH.E.061
  0
CIRCLE
  5
F8
  8
AGL_ASSETS_ALL
 10
260865.685
 20
2704704.046
 30
0.0
 40
0.25
  0
TEXT
  5
F9
  8
LABELS_ASSETS_ALL
 10
260866.035
 20
2704704.346
 30
0.0
 40
0.3
  1
HH.E.060
  0
CIRCLE
  5
FA
  8
AGL_ASSETS_ALL
 10
260849.014
 20
2704719.955
 30
0.0
 40
0.25
  0
TEXT
  5
FB
  8
LABELS_ASSETS_ALL
 10
260849.364
 20
2704720.255
 30
0.0
 40
0.3
  1
HH.E4.010
  0
CIRCLE
  5
FC
  8
AGL_ASSETS_ALL
 10
260886.171
 20
2704685.745
 30
0.0
 40
0.25
  0
TEXT
  5
FD
  8
LABELS_ASSETS_ALL
 10
260886.521
 20
2704686.045
 30
0.0
 40
0.3
  1
HH.E.058
  0
CIRCLE
  5
FE
  8
AGL_ASSETS_ALL
 10
260876.598
 20
2704695.549
 30
0.0
 40
0.25
  0
TEXT
  5
FF
  8
LABELS_ASSETS_ALL
 10
260876.948
 20
2704695.849
 30
0.0
 40
0.3
  1
HH.E.059
  0
CIRCLE
  5
100
  8
AGL_ASSETS_ALL
 10
260822.781
 20
2704674.857
 30
0.0
 40
0.25
  0
TEXT
  5
101
  8
LABELS_ASSETS_ALL
 10
260823.131
 20
2704675.1569999997
 30
0.0
 40
0.3
  1
P4.041
  0
CIRCLE
  5
102
  8
AGL_ASSETS_ALL
 10
260852.515
 20
2704717.014
 30
0.0
 40
0.25
  0
TEXT
  5
103
  8
LABELS_ASSETS_ALL
 10
260852.86500000002
 20
2704717.314
 30
0.0
 40
0.3
  1
MH.E.015
  0
CIRCLE
  5
104
  8
AGL_ASSETS_ALL
 10
260816.234
 20
2704671.645
 30
0.0
 40
0.25
  0
TEXT
  5
105
  8
LABELS_ASSETS_ALL
 10
260816.584
 20
2704671.945
 30
0.0
 40
0.3
  1
MH.E.023
  0
CIRCLE
  5
106
  8
AGL_ASSETS_ALL
 10
260822.69
 20
2704654.181
 30
0.0
 40
0.25
  0
TEXT
  5
107
  8
LABELS_ASSETS_ALL
 10
260823.04
 20
2704654.4809999997
 30
0.0
 40
0.3
  1
SGC102.02.015
  0
CIRCLE
  5
108
  8
AGL_ASSETS_ALL
 10
260863.709
 20
2704713.999
 30
0.0
 40
0.25
  0
TEXT
  5
109
  8
LABELS_ASSETS_ALL
 10
260864.059
 20
2704714.2989999996
 30
0.0
 40
0.3
  1
SGC102.02.014
  0
LINE
  5
10A
  8
DUCTS_INDICATIVE_ALL
 10
260887.158
 20
2704651.119
 30
0.0
 11
260892.942
 21
2704672.332
 31
0.0
  0
LINE
  5
10B
  8
DUCTS_INDICATIVE_ALL
 10
260875.475
 20
2704660.496
 30
0.0
 11
260892.942
 21
2704672.332
 31
0.0
  0
LINE
  5
10C
  8
DUCTS_INDICATIVE_ALL
 10
260898.861
 20
2704641.718
 30
0.0
 11
260916.1
 21
2704650.107
 31
0.0
  0
LINE
  5
10D
  8
DUCTS_INDICATIVE_ALL
 10
260869.617
 20
2704665.202
 30
0.0
 11
260892.942
 21
2704672.332
 31
0.0
  0
LINE
  5
10E
  8
DUCTS_CROSSING
 10
260863.744
 20
2704669.882
 30
0.0
 11
260886.171
 21
2704685.745
 31
0.0
  0
LINE
  5
10F
  8
DUCTS_CROSSING
 10
260857.92
 20
2704674.589
 30
0.0
 11
260860.736
 21
2704699.365
 31
0.0
  0
LINE
  5
110
  8
DUCTS_CROSSING
 10
260852.058
 20
2704679.31
 30
0.0
 11
260860.736
 21
2704699.365
 31
0.0
  0
LINE
  5
111
  8
DUCTS_INDICATIVE_ALL
 10
260881.322
 20
2704655.819
 30
0.0
 11
260892.942
 21
2704672.332
 31
0.0
  0
LINE
  5
112
  8
DUCTS_INDICATIVE_ALL
 10
260811.959
 20
2704704.312
 30
0.0
 11
260790.765
 21
2704689.255
 31
0.0
  0
LINE
  5
113
  8
DUCTS_INDICATIVE_ALL
 10
260825.648
 20
2704698.239
 30
0.0
 11
260822.781
 21
2704674.857
 31
0.0
  0
LINE
  5
114
  8
DUCTS_INDICATIVE_ALL
 10
260832.138
 20
2704694.451
 30
0.0
 11
260822.781
 21
2704674.857
 31
0.0
  0
LINE
  5
115
  8
DUCTS_INDICATIVE_ALL
 10
260818.919
 20
2704701.529
 30
0.0
 11
260822.781
 21
2704674.857
 31
0.0
  0
LINE
  5
116
  8
DUCTS_CROSSING
 10
260846.204
 20
2704683.98
 30
0.0
 11
260860.736
 21
2704699.365
 31
0.0
  0
LINE
  5
117
  8
DUCTS_CROSSING
 10
260852.411
 20
2704692.495
 30
0.0
 11
260860.736
 21
2704699.365
 31
0.0
  0
LINE
  5
118
  8
DUCTS_CROSSING
 10
260850.527
 20
2704690.141
 30
0.0
 11
260860.736
 21
2704699.365
 31
0.0
  0
LINE
  5
119
  8
DUCTS_CROSSING
 10
260848.647
 20
2704687.783
 30
0.0
 11
260860.736
 21
2704699.365
 31
0.0
  0
LINE
  5
11A
  8
DUCTS_CROSSING
 10
260846.783
 20
2704685.439
 30
0.0
 11
260860.736
 21
2704699.365
 31
0.0
  0
LINE
  5
11B
  8
DUCTS_CROSSING
 10
260844.902
 20
2704683.114
 30
0.0
 11
260860.736
 21
2704699.365
 31
0.0
  0
LINE
  5
11C
  8
DUCTS_INDICATIVE_ALL
 10
260843.011
 20
2704680.776
 30
0.0
 11
260822.781
 21
2704674.857
 31
0.0
  0
LINE
  5
11D
  8
DUCTS_INDICATIVE_ALL
 10
260841.134
 20
2704678.432
 30
0.0
 11
260822.781
 21
2704674.857
 31
0.0
  0
LINE
  5
11E
  8
DUCTS_INDICATIVE_ALL
 10
260839.265
 20
2704676.09
 30
0.0
 11
260822.781
 21
2704674.857
 31
0.0
  0
LINE
  5
11F
  8
DUCTS_INDICATIVE_ALL
 10
260816.944
 20
2704707.459
 30
0.0
 11
260829.691
 21
2704735.023
 31
0.0
  0
LINE
  5
120
  8
DUCTS_INDICATIVE_ALL
 10
260828.667
 20
2704698.02
 30
0.0
 11
260822.781
 21
2704674.857
 31
0.0
  0
LINE
  5
121
  8
DUCTS_INDICATIVE_ALL
 10
260838.357
 20
2704690.266
 30
0.0
 11
260822.781
 21
2704674.857
 31
0.0
  0
LINE
  5
122
  8
DUCTS_INDICATIVE_ALL
 10
260811.671
 20
2704722.913
 30
0.0
 11
260829.691
 21
2704735.023
 31
0.0
  0
LINE
  5
123
  8
DUCTS_INDICATIVE_ALL
 10
260819.5
 20
2704710.14
 30
0.0
 11
260829.691
 21
2704735.023
 31
0.0
  0
LINE
  5
124
  8
DUCTS_INDICATIVE_ALL
 10
260834.525
 20
2704693.355
 30
0.0
 11
260822.781
 21
2704674.857
 31
0.0
  0
LINE
  5
125
  8
DUCTS_INDICATIVE_ALL
 10
260815.341
 20
2704716.393
 30
0.0
 11
260829.691
 21
2704735.023
 31
0.0
  0
LINE
  5
126
  8
DUCTS_INDICATIVE_ALL
 10
260824.093
 20
2704704.217
 30
0.0
 11
260850.976
 21
2704710.059
 31
0.0
  0
LINE
  5
127
  8
DUCTS_INDICATIVE_ALL
 10
260840.391
 20
2704688.644
 30
0.0
 11
260822.781
 21
2704674.857
 31
0.0
  0
LINE
  5
128
  8
DUCTS_INDICATIVE_ALL
 10
260829.124
 20
2704698.661
 30
0.0
 11
260822.781
 21
2704674.857
 31
0.0
  0
POLYLINE
  5
129
  8
AGL_FEED_PITS
 66
1
 10
0.0
 20
0.0
 30
0.0
 70
1
  0
VERTEX
  5
12B
  8
AGL_FEED_PITS
 10
260860.036
 20
2704698.665
 30
0.0
 70
0
  0
VERTEX
  5
12C
  8
AGL_FEED_PITS
 10
260861.43600000002
 20
2704698.665
 30
0.0
 70
0
  0
VERTEX
  5
12D
  8
AGL_FEED_PITS
 10
260861.43600000002
 20
2704700.0650000004
 30
0.0
 70
0
  0
VERTEX
  5
12E
  8
AGL_FEED_PITS
 10
260860.036
 20
2704700.0650000004
 30
0.0
 70
0
  0
SEQEND
  5
12A
  8
AGL_FEED_PITS
  0
TEXT
  5
12F
  8
AGL_FEED_PITS
 10
260861.636
 20
2704700.0650000004
 30
0.0
 40
0.5
  1
P4.037
  0
POLYLINE
  5
130
  8
AGL_FEED_PITS
 66
1
 10
0.0
 20
0.0
 30
0.0
 70
1
  0
VERTEX
  5
132
  8
AGL_FEED_PITS
 10
260885.471
 20
2704685.045
 30
0.0
 70
0
  0
VERTEX
  5
133
  8
AGL_FEED_PITS
 10
260886.871
 20
2704685.045
 30
0.0
 70
0
  0
VERTEX
  5
134
  8
AGL_FEED_PITS
 10
260886.871
 20
2704686.4450000003
 30
0.0
 70
0
  0
VERTEX
  5
135
  8
AGL_FEED_PITS
 10
260885.471
 20
2704686.4450000003
 30
0.0
 70
0
  0
SEQEND
  5
131
  8
AGL_FEED_PITS
  0
TEXT
  5
136
  8
AGL_FEED_PITS
 10
260887.071
 20
2704686.4450000003
 30
0.0
 40
0.5
  1
HH.E.058
  0
POLYLINE
  5
137
  8
MARK_CENTERLINE
 66
1
 10
0.0
 20
0.0
 30
0.0
 70
0
  0
VERTEX
  5
139
  8
MARK_CENTERLINE
 10
260910.566
 20
2704632.326
 30
0.0
 70
0
  0
VERTEX
  5
13A
  8
MARK_CENTERLINE
 10
260898.861
 20
2704641.718
 30
0.0
 70
0
  0
VERTEX
  5
13B
  8
MARK_CENTERLINE
 10
260887.158
 20
2704651.119
 30
0.0
 70
0
  0
VERTEX
  5
13C
  8
MARK_CENTERLINE
 10
260881.322
 20
2704655.819
 30
0.0
 70
0
  0
VERTEX
  5
13D
  8
MARK_CENTERLINE
 10
260875.475
 20
2704660.496
 30
0.0
 70
0
  0
VERTEX
  5
13E
  8
MARK_CENTERLINE
 10
260869.617
 20
2704665.202
 30
0.0
 70
0
  0
VERTEX
  5
13F
  8
MARK_CENTERLINE
 10
260863.744
 20
2704669.882
 30
0.0
 70
0
  0
VERTEX
  5
140
  8
MARK_CENTERLINE
 10
260857.92
 20
2704674.589
 30
0.0
 70
0
  0
VERTEX
  5
141
  8
MARK_CENTERLINE
 10
260852.058
 20
2704679.31
 30
0.0
 70
0
  0
VERTEX
  5
142
  8
MARK_CENTERLINE
 10
260846.204
 20
2704683.98
 30
0.0
 70
0
  0
VERTEX
  5
143
  8
MARK_CENTERLINE
 10
260840.391
 20
2704688.644
 30
0.0
 70
0
  0
VERTEX
  5
144
  8
MARK_CENTERLINE
 10
260838.357
 20
2704690.266
 30
0.0
 70
0
  0
VERTEX
  5
145
  8
MARK_CENTERLINE
 10
260834.525
 20
2704693.355
 30
0.0
 70
0
  0
VERTEX
  5
146
  8
MARK_CENTERLINE
 10
260832.138
 20
2704694.451
 30
0.0
 70
0
  0
VERTEX
  5
147
  8
MARK_CENTERLINE
 10
260829.124
 20
2704698.661
 30
0.0
 70
0
  0
VERTEX
  5
148
  8
MARK_CENTERLINE
 10
260829.124
 20
2704698.661
 30
0.0
 70
0
  0
VERTEX
  5
149
  8
MARK_CENTERLINE
 10
260825.648
 20
2704698.239
 30
0.0
 70
0
  0
VERTEX
  5
14A
  8
MARK_CENTERLINE
 10
260824.093
 20
2704704.217
 30
0.0
 70
0
  0
VERTEX
  5
14B
  8
MARK_CENTERLINE
 10
260818.919
 20
2704701.529
 30
0.0
 70
0
  0
VERTEX
  5
14C
  8
MARK_CENTERLINE
 10
260816.944
 20
2704707.459
 30
0.0
 70
0
  0
VERTEX
  5
14D
  8
MARK_CENTERLINE
 10
260819.5
 20
2704710.14
 30
0.0
 70
0
  0
VERTEX
  5
14E
  8
MARK_CENTERLINE
 10
260815.341
 20
2704716.393
 30
0.0
 70
0
  0
VERTEX
  5
14F
  8
MARK_CENTERLINE
 10
260811.671
 20
2704722.913
 30
0.0
 70
0
  0
VERTEX
  5
150
  8
MARK_CENTERLINE
 10
260808.498
 20
2704729.712
 30
0.0
 70
0
  0
VERTEX
  5
151
  8
MARK_CENTERLINE
 10
260805.27
 20
2704716.831
 30
0.0
 70
0
  0
VERTEX
  5
152
  8
MARK_CENTERLINE
 10
260804.826
 20
2704706.618
 30
0.0
 70
0
  0
VERTEX
  5
153
  8
MARK_CENTERLINE
 10
260811.959
 20
2704704.312
 30
0.0
 70
0
  0
VERTEX
  5
154
  8
MARK_CENTERLINE
 10
260797.523
 20
2704708.396
 30
0.0
 70
0
  0
SEQEND
  5
138
  8
MARK_CENTERLINE
  0
POLYLINE
  5
155
  8
MARK_STOPBAR
 66
1
 10
0.0
 20
0.0
 30
0.0
 70
0
  0
VERTEX
  5
157
  8
MARK_STOPBAR
 10
260852.411
 20
2704692.495
 30
0.0
 70
0
  0
VERTEX
  5
158
  8
MARK_STOPBAR
 10
260850.527
 20
2704690.141
 30
0.0
 70
0
  0
VERTEX
  5
159
  8
MARK_STOPBAR
 10
260848.647
 20
2704687.783
 30
0.0
 70
0
  0
VERTEX
  5
15A
  8
MARK_STOPBAR
 10
260846.783
 20
2704685.439
 30
0.0
 70
0
  0
VERTEX
  5
15B
  8
MARK_STOPBAR
 10
260844.902
 20
2704683.114
 30
0.0
 70
0
  0
VERTEX
  5
15C
  8
MARK_STOPBAR
 10
260843.011
 20
2704680.776
 30
0.0
 70
0
  0
VERTEX
  5
15D
  8
MARK_STOPBAR
 10
260841.134
 20
2704678.432
 30
0.0
 70
0
  0
VERTEX
  5
15E
  8
MARK_STOPBAR
 10
260839.265
 20
2704676.09
 30
0.0
 70
0
  0
SEQEND
  5
156
  8
MARK_STOPBAR
  0
POLYLINE
  5
15F
  8
MARK_EDGE
 66
1
 10
0.0
 20
0.0
 30
0.0
 70
0
  0
VERTEX
  5
161
  8
MARK_EDGE
 10
260903.369
 20
2704623.356
 30
0.0
 70
0
  0
VERTEX
  5
162
  8
MARK_EDGE
 10
260891.664
 20
2704632.748
 30
0.0
 70
0
  0
VERTEX
  5
163
  8
MARK_EDGE
 10
260879.956
 20
2704642.153
 30
0.0
 70
0
  0
VERTEX
  5
164
  8
MARK_EDGE
 10
260879.945
 20
2704642.162
 30
0.0
 70
0
  0
VERTEX
  5
165
  8
MARK_EDGE
 10
260874.124
 20
2704646.85
 30
0.0
 70
0
  0
VERTEX
  5
166
  8
MARK_EDGE
 10
260868.292
 20
2704651.516
 30
0.0
 70
0
  0
VERTEX
  5
167
  8
MARK_EDGE
 10
260868.273
 20
2704651.531
 30
0.0
 70
0
  0
VERTEX
  5
168
  8
MARK_EDGE
 10
260862.432
 20
2704656.222
 30
0.0
 70
0
  0
VERTEX
  5
169
  8
MARK_EDGE
 10
260856.577
 20
2704660.888
 30
0.0
 70
0
  0
VERTEX
  5
16A
  8
MARK_EDGE
 10
260856.515
 20
2704660.938
 30
0.0
 70
0
  0
VERTEX
  5
16B
  8
MARK_EDGE
 10
260850.699
 20
2704665.639
 30
0.0
 70
0
  0
VERTEX
  5
16C
  8
MARK_EDGE
 10
260844.866
 20
2704670.337
 30
0.0
 70
0
  0
VERTEX
  5
16D
  8
MARK_EDGE
 10
260839.032
 20
2704674.99
 30
0.0
 70
0
  0
VERTEX
  5
16E
  8
MARK_EDGE
 10
260839.007
 20
2704675.01
 30
0.0
 70
0
  0
VERTEX
  5
16F
  8
MARK_EDGE
 10
260833.208
 20
2704679.664
 30
0.0
 70
0
  0
VERTEX
  5
170
  8
MARK_EDGE
 10
260831.187
 20
2704681.275
 30
0.0
 70
0
  0
VERTEX
  5
171
  8
MARK_EDGE
 10
260831.14
 20
2704681.313
 30
0.0
 70
0
  0
VERTEX
  5
172
  8
MARK_EDGE
 10
260828.424
 20
2704683.502
 30
0.0
 70
0
  0
VERTEX
  5
173
  8
MARK_EDGE
 10
260827.339
 20
2704684.0
 30
0.0
 70
0
  0
VERTEX
  5
174
  8
MARK_EDGE
 10
260826.282
 20
2704684.553
 30
0.0
 70
0
  0
VERTEX
  5
175
  8
MARK_EDGE
 10
260825.288
 20
2704685.214
 30
0.0
 70
0
  0
VERTEX
  5
176
  8
MARK_EDGE
 10
260824.368
 20
2704685.973
 30
0.0
 70
0
  0
VERTEX
  5
177
  8
MARK_EDGE
 10
260823.531
 20
2704686.824
 30
0.0
 70
0
  0
VERTEX
  5
178
  8
MARK_EDGE
 10
260823.415
 20
2704686.969
 30
0.0
 70
0
  0
VERTEX
  5
179
  8
MARK_EDGE
 10
260822.665
 20
2704687.133
 30
0.0
 70
0
  0
VERTEX
  5
17A
  8
MARK_EDGE
 10
260821.616
 20
2704687.469
 30
0.0
 70
0
  0
VERTEX
  5
17B
  8
MARK_EDGE
 10
260820.604
 20
2704687.904
 30
0.0
 70
0
  0
VERTEX
  5
17C
  8
MARK_EDGE
 10
260819.639
 20
2704688.434
 30
0.0
 70
0
  0
VERTEX
  5
17D
  8
MARK_EDGE
 10
260818.728
 20
2704689.054
 30
0.0
 70
0
  0
VERTEX
  5
17E
  8
MARK_EDGE
 10
260817.881
 20
2704689.758
 30
0.0
 70
0
  0
VERTEX
  5
17F
  8
MARK_EDGE
 10
260817.517
 20
2704690.125
 30
0.0
 70
0
  0
VERTEX
  5
180
  8
MARK_EDGE
 10
260816.713
 20
2704690.243
 30
0.0
 70
0
  0
VERTEX
  5
181
  8
MARK_EDGE
 10
260815.641
 20
2704690.506
 30
0.0
 70
0
  0
VERTEX
  5
182
  8
MARK_EDGE
 10
260814.599
 20
2704690.871
 30
0.0
 70
0
  0
VERTEX
  5
183
  8
MARK_EDGE
 10
260813.597
 20
2704691.334
 30
0.0
 70
0
  0
VERTEX
  5
184
  8
MARK_EDGE
 10
260812.644
 20
2704691.892
 30
0.0
 70
0
  0
VERTEX
  5
185
  8
MARK_EDGE
 10
260811.749
 20
2704692.538
 30
0.0
 70
0
  0
VERTEX
  5
186
  8
MARK_EDGE
 10
260811.408
 20
2704692.837
 30
0.0
 70
0
  0
VERTEX
  5
187
  8
MARK_EDGE
 10
260811.021
 20
2704692.85
 30
0.0
 70
0
  0
VERTEX
  5
188
  8
MARK_EDGE
 10
260809.915
 20
2704692.995
 30
0.0
 70
0
  0
VERTEX
  5
189
  8
MARK_EDGE
 10
260808.828
 20
2704693.246
 30
0.0
 70
0
  0
VERTEX
  5
18A
  8
MARK_EDGE
 10
260794.392
 20
2704697.33
 30
0.0
 70
0
  0
SEQEND
  5
160
  8
MARK_EDGE
  0
POLYLINE
  5
18B
  8
MARK_EDGE
 66
1
 10
0.0
 20
0.0
 30
0.0
 70
0
  0
VERTEX
  5
18D
  8
MARK_EDGE
 10
260917.763
 20
2704641.296
 30
0.0
 70
0
  0
VERTEX
  5
18E
  8
MARK_EDGE
 10
260906.061
 20
2704650.686
 30
0.0
 70
0
  0
VERTEX
  5
18F
  8
MARK_EDGE
 10
260894.366
 20
2704660.08
 30
0.0
 70
0
  0
VERTEX
  5
190
  8
MARK_EDGE
 10
260888.535
 20
2704664.776
 30
0.0
 70
0
  0
VERTEX
  5
191
  8
MARK_EDGE
 10
260888.505
 20
2704664.799
 30
0.0
 70
0
  0
VERTEX
  5
192
  8
MARK_EDGE
 10
260882.668
 20
2704669.469
 30
0.0
 70
0
  0
VERTEX
  5
193
  8
MARK_EDGE
 10
260876.819
 20
2704674.167
 30
0.0
 70
0
  0
VERTEX
  5
194
  8
MARK_EDGE
 10
260876.784
 20
2704674.196
 30
0.0
 70
0
  0
VERTEX
  5
195
  8
MARK_EDGE
 10
260870.942
 20
2704678.851
 30
0.0
 70
0
  0
VERTEX
  5
196
  8
MARK_EDGE
 10
260865.149
 20
2704683.533
 30
0.0
 70
0
  0
VERTEX
  5
197
  8
MARK_EDGE
 10
260865.133
 20
2704683.546
 30
0.0
 70
0
  0
VERTEX
  5
198
  8
MARK_EDGE
 10
260859.271
 20
2704688.267
 30
0.0
 70
0
  0
VERTEX
  5
199
  8
MARK_EDGE
 10
260859.23
 20
2704688.3
 30
0.0
 70
0
  0
VERTEX
  5
19A
  8
MARK_EDGE
 10
260853.388
 20
2704692.96
 30
0.0
 70
0
  0
VERTEX
  5
19B
  8
MARK_EDGE
 10
260847.588
 20
2704697.614
 30
0.0
 70
0
  0
VERTEX
  5
19C
  8
MARK_EDGE
 10
260847.561
 20
2704697.635
 30
0.0
 70
0
  0
VERTEX
  5
19D
  8
MARK_EDGE
 10
260845.551
 20
2704699.238
 30
0.0
 70
0
  0
VERTEX
  5
19E
  8
MARK_EDGE
 10
260841.742
 20
2704702.308
 30
0.0
 70
0
  0
VERTEX
  5
19F
  8
MARK_EDGE
 10
260840.978
 20
2704702.874
 30
0.0
 70
0
  0
VERTEX
  5
1A0
  8
MARK_EDGE
 10
260840.17
 20
2704703.374
 30
0.0
 70
0
  0
VERTEX
  5
1A1
  8
MARK_EDGE
 10
260839.734
 20
2704703.597
 30
0.0
 70
0
  0
VERTEX
  5
1A2
  8
MARK_EDGE
 10
260838.475
 20
2704705.355
 30
0.0
 70
0
  0
VERTEX
  5
1A3
  8
MARK_EDGE
 10
260837.78
 20
2704706.232
 30
0.0
 70
0
  0
VERTEX
  5
1A4
  8
MARK_EDGE
 10
260837.004
 20
2704707.037
 30
0.0
 70
0
  0
VERTEX
  5
1A5
  8
MARK_EDGE
 10
260836.153
 20
2704707.763
 30
0.0
 70
0
  0
VERTEX
  5
1A6
  8
MARK_EDGE
 10
260835.235
 20
2704708.403
 30
0.0
 70
0
  0
VERTEX
  5
1A7
  8
MARK_EDGE
 10
260834.656
 20
2704708.728
 30
0.0
 70
0
  0
VERTEX
  5
1A8
  8
MARK_EDGE
 10
260834.428
 20
2704709.26
 30
0.0
 70
0
  0
VERTEX
  5
1A9
  8
MARK_EDGE
 10
260833.875
 20
2704710.264
 30
0.0
 70
0
  0
VERTEX
  5
1AA
  8
MARK_EDGE
 10
260833.224
 20
2704711.208
 30
0.0
 70
0
  0
VERTEX
  5
1AB
  8
MARK_EDGE
 10
260832.482
 20
2704712.083
 30
0.0
 70
0
  0
VERTEX
  5
1AC
  8
MARK_EDGE
 10
260831.657
 20
2704712.879
 30
0.0
 70
0
  0
VERTEX
  5
1AD
  8
MARK_EDGE
 10
260830.757
 20
2704713.589
 30
0.0
 70
0
  0
VERTEX
  5
1AE
  8
MARK_EDGE
 10
260830.38
 20
2704713.83
 30
0.0
 70
0
  0
VERTEX
  5
1AF
  8
MARK_EDGE
 10
260830.118
 20
2704714.558
 30
0.0
 70
0
  0
VERTEX
  5
1B0
  8
MARK_EDGE
 10
260829.644
 20
2704715.558
 30
0.0
 70
0
  0
VERTEX
  5
1B1
  8
MARK_EDGE
 10
260829.075
 20
2704716.509
 30
0.0
 70
0
  0
VERTEX
  5
1B2
  8
MARK_EDGE
 10
260825.153
 20
2704722.406
 30
0.0
 70
0
  0
VERTEX
  5
1B3
  8
MARK_EDGE
 10
260821.907
 20
2704728.173
 30
0.0
 70
0
  0
VERTEX
  5
1B4
  8
MARK_EDGE
 10
260818.919
 20
2704734.575
 30
0.0
 70
0
  0
VERTEX
  5
1B5
  8
MARK_EDGE
 10
260818.391
 20
2704735.575
 30
0.0
 70
0
  0
VERTEX
  5
1B6
  8
MARK_EDGE
 10
260817.767
 20
2704736.519
 30
0.0
 70
0
  0
VERTEX
  5
1B7
  8
MARK_EDGE
 10
260817.054
 20
2704737.396
 30
0.0
 70
0
  0
VERTEX
  5
1B8
  8
MARK_EDGE
 10
260816.258
 20
2704738.199
 30
0.0
 70
0
  0
VERTEX
  5
1B9
  8
MARK_EDGE
 10
260815.387
 20
2704738.92
 30
0.0
 70
0
  0
VERTEX
  5
1BA
  8
MARK_EDGE
 10
260814.449
 20
2704739.553
 30
0.0
 70
0
  0
VERTEX
  5
1BB
  8
MARK_EDGE
 10
260813.454
 20
2704740.089
 30
0.0
 70
0
  0
VERTEX
  5
1BC
  8
MARK_EDGE
 10
260812.41
 20
2704740.526
 30
0.0
 70
0
  0
VERTEX
  5
1BD
  8
MARK_EDGE
 10
260811.329
 20
2704740.858
 30
0.0
 70
0
  0
VERTEX
  5
1BE
  8
MARK_EDGE
 10
260810.221
 20
2704741.082
 30
0.0
 70
0
  0
VERTEX
  5
1BF
  8
MARK_EDGE
 10
260809.096
 20
2704741.196
 30
0.0
 70
0
  0
VERTEX
  5
1C0
  8
MARK_EDGE
 10
260807.965
 20
2704741.2
 30
0.0
 70
0
  0
VERTEX
  5
1C1
  8
MARK_EDGE
 10
260806.839
 20
2704741.092
 30
0.0
 70
0
  0
VERTEX
  5
1C2
  8
MARK_EDGE
 10
260805.73
 20
2704740.874
 30
0.0
 70
0
  0
VERTEX
  5
1C3
  8
MARK_EDGE
 10
260804.647
 20
2704740.548
 30
0.0
 70
0
  0
VERTEX
  5
1C4
  8
MARK_EDGE
 10
260803.601
 20
2704740.117
 30
0.0
 70
0
  0
VERTEX
  5
1C5
  8
MARK_EDGE
 10
260802.603
 20
2704739.586
 30
0.0
 70
0
  0
VERTEX
  5
1C6
  8
MARK_EDGE
 10
260801.661
 20
2704738.959
 30
0.0
 70
0
  0
VERTEX
  5
1C7
  8
MARK_EDGE
 10
260800.786
 20
2704738.243
 30
0.0
 70
0
  0
VERTEX
  5
1C8
  8
MARK_EDGE
 10
260799.986
 20
2704737.444
 30
0.0
 70
0
  0
VERTEX
  5
1C9
  8
MARK_EDGE
 10
260799.267
 20
2704736.571
 30
0.0
 70
0
  0
VERTEX
  5
1CA
  8
MARK_EDGE
 10
260798.638
 20
2704735.631
 30
0.0
 70
0
  0
VERTEX
  5
1CB
  8
MARK_EDGE
 10
260798.105
 20
2704734.634
 30
0.0
 70
0
  0
VERTEX
  5
1CC
  8
MARK_EDGE
 10
260797.671
 20
2704733.59
 30
0.0
 70
0
  0
VERTEX
  5
1CD
  8
MARK_EDGE
 10
260797.343
 20
2704732.507
 30
0.0
 70
0
  0
VERTEX
  5
1CE
  8
MARK_EDGE
 10
260794.115
 20
2704719.626
 30
0.0
 70
0
  0
VERTEX
  5
1CF
  8
MARK_EDGE
 10
260794.062
 20
2704719.359
 30
0.0
 70
0
  0
SEQEND
  5
18C
  8
MARK_EDGE
  0
TEXT
  5
1D0
  8
MARK_CENTERLINE
 10
260911.566
 20
2704633.326
 30
0.0
 40
0.6
  1
TWY CENTERLINE (AS-BUILT TCC FITTINGS)
  0
POLYLINE
  5
1D1
  8
AGL_WORKS_DEMARCATION
 66
1
 10
0.0
 20
0.0
 30
0.0
 70
1
  0
VERTEX
  5
1D3
  8
AGL_WORKS_DEMARCATION
 10
260864.558
 20
2704667.612
 30
0.0
 70
0
  0
VERTEX
  5
1D4
  8
AGL_WORKS_DEMARCATION
 10
260835.767
 20
2704674.914
 30
0.0
 70
0
  0
VERTEX
  5
1D5
  8
AGL_WORKS_DEMARCATION
 10
260839.572
 20
2704679.681
 30
0.0
 70
0
  0
VERTEX
  5
1D6
  8
AGL_WORKS_DEMARCATION
 10
260841.45
 20
2704682.026
 30
0.0
 70
0
  0
VERTEX
  5
1D7
  8
AGL_WORKS_DEMARCATION
 10
260851.599
 20
2704694.679
 30
0.0
 70
0
  0
VERTEX
  5
1D8
  8
AGL_WORKS_DEMARCATION
 10
260861.701
 20
2704692.809
 30
0.0
 70
0
  0
VERTEX
  5
1D9
  8
AGL_WORKS_DEMARCATION
 10
260874.687
 20
2704681.404
 30
0.0
 70
0
  0
VERTEX
  5
1DA
  8
AGL_WORKS_DEMARCATION
 10
260864.558
 20
2704667.612
 30
0.0
 70
0
  0
SEQEND
  5
1D2
  8
AGL_WORKS_DEMARCATION
  0
TEXT
  5
1DB
  8
AGL_WORKS_DEMARCATION
 10
260836.599
 20
2704696.179
 30
0.0
 40
0.7
  1
AGL WORKS DEMARCATION - PER FIELD-VERIFIED AFFECTED ASSETS (614.4 m2)
  0
CIRCLE
  5
1DC
  8
ACT_CORE_SAW
 62
1
 10
260852.411
 20
2704692.495
 30
0.0
 40
1.0
  0
CIRCLE
  5
1DD
  8
ACT_CORE_SAW
 62
30
 10
260852.411
 20
2704692.495
 30
0.0
 40
0.55
  0
TEXT
  5
1DE
  8
LABELS_WORKS
 10
260853.71099999998
 20
2704693.495
 30
0.0
 40
0.55
  1
SBC102-01/038
  0
CIRCLE
  5
1DF
  8
ACT_CORE_SAW
 62
1
 10
260848.647
 20
2704687.783
 30
0.0
 40
1.0
  0
CIRCLE
  5
1E0
  8
ACT_CORE_SAW
 62
30
 10
260848.647
 20
2704687.783
 30
0.0
 40
0.55
  0
TEXT
  5
1E1
  8
LABELS_WORKS
 10
260849.947
 20
2704688.783
 30
0.0
 40
0.55
  1
SBC102-01/039
  0
CIRCLE
  5
1E2
  8
ACT_CORE_SAW
 62
1
 10
260850.527
 20
2704690.141
 30
0.0
 40
1.0
  0
CIRCLE
  5
1E3
  8
ACT_CORE_SAW
 62
30
 10
260850.527
 20
2704690.141
 30
0.0
 40
0.55
  0
TEXT
  5
1E4
  8
LABELS_WORKS
 10
260851.827
 20
2704691.141
 30
0.0
 40
0.55
  1
SBC102-02/035
  0
CIRCLE
  5
1E5
  8
ACT_CORE_SAW
 62
1
 10
260846.783
 20
2704685.439
 30
0.0
 40
1.0
  0
CIRCLE
  5
1E6
  8
ACT_CORE_SAW
 62
30
 10
260846.783
 20
2704685.439
 30
0.0
 40
0.55
  0
TEXT
  5
1E7
  8
LABELS_WORKS
 10
260848.08299999998
 20
2704686.439
 30
0.0
 40
0.55
  1
SBC102-02/036
  0
CIRCLE
  5
1E8
  8
ACT_CABLE_DUCT
 62
5
 10
260844.902
 20
2704683.114
 30
0.0
 40
1.0
  0
CIRCLE
  5
1E9
  8
ACT_CABLE_DUCT
 62
3
 10
260844.902
 20
2704683.114
 30
0.0
 40
0.55
  0
TEXT
  5
1EA
  8
LABELS_WORKS
 10
260846.202
 20
2704684.114
 30
0.0
 40
0.55
  1
SBC102-01/040
  0
CIRCLE
  5
1EB
  8
ACT_CABLE_DUCT
 62
5
 10
260841.134
 20
2704678.432
 30
0.0
 40
1.0
  0
CIRCLE
  5
1EC
  8
ACT_CABLE_DUCT
 62
3
 10
260841.134
 20
2704678.432
 30
0.0
 40
0.55
  0
TEXT
  5
1ED
  8
LABELS_WORKS
 10
260842.43399999998
 20
2704679.432
 30
0.0
 40
0.55
  1
SBC102-01/041
  0
CIRCLE
  5
1EE
  8
ACT_CABLE_DUCT
 62
5
 10
260843.011
 20
2704680.776
 30
0.0
 40
1.0
  0
CIRCLE
  5
1EF
  8
ACT_CABLE_DUCT
 62
3
 10
260843.011
 20
2704680.776
 30
0.0
 40
0.55
  0
TEXT
  5
1F0
  8
LABELS_WORKS
 10
260844.311
 20
2704681.776
 30
0.0
 40
0.55
  1
SBC102-02/037
  0
CIRCLE
  5
1F1
  8
ACT_CABLE_DUCT
 62
5
 10
260839.265
 20
2704676.09
 30
0.0
 40
1.0
  0
CIRCLE
  5
1F2
  8
ACT_CABLE_DUCT
 62
3
 10
260839.265
 20
2704676.09
 30
0.0
 40
0.55
  0
TEXT
  5
1F3
  8
LABELS_WORKS
 10
260840.565
 20
2704677.09
 30
0.0
 40
0.55
  1
SBC102-02/038
  0
CIRCLE
  5
1F4
  8
ACT_CABLE_DUCT
 62
5
 10
260846.204
 20
2704683.98
 30
0.0
 40
1.0
  0
CIRCLE
  5
1F5
  8
ACT_CABLE_DUCT
 62
3
 10
260846.204
 20
2704683.98
 30
0.0
 40
0.55
  0
TEXT
  5
1F6
  8
LABELS_WORKS
 10
260847.504
 20
2704684.98
 30
0.0
 40
0.55
  1
TCCECH-03/002
  0
CIRCLE
  5
1F7
  8
ACT_CABLE_DUCT
 62
5
 10
260852.058
 20
2704679.31
 30
0.0
 40
1.0
  0
CIRCLE
  5
1F8
  8
ACT_CABLE_DUCT
 62
3
 10
260852.058
 20
2704679.31
 30
0.0
 40
0.55
  0
TEXT
  5
1F9
  8
LABELS_WORKS
 10
260853.35799999998
 20
2704680.31
 30
0.0
 40
0.55
  1
TCCECH-04/002
  0
CIRCLE
  5
1FA
  8
ACT_CABLE_DUCT
 62
5
 10
260857.92
 20
2704674.589
 30
0.0
 40
1.0
  0
CIRCLE
  5
1FB
  8
ACT_CABLE_DUCT
 62
3
 10
260857.92
 20
2704674.589
 30
0.0
 40
0.55
  0
TEXT
  5
1FC
  8
LABELS_WORKS
 10
260859.22
 20
2704675.589
 30
0.0
 40
0.55
  1
TCCECH-03/003
  0
CIRCLE
  5
1FD
  8
ACT_CABLE_DUCT
 62
5
 10
260863.744
 20
2704669.882
 30
0.0
 40
1.0
  0
CIRCLE
  5
1FE
  8
ACT_CABLE_DUCT
 62
3
 10
260863.744
 20
2704669.882
 30
0.0
 40
0.55
  0
TEXT
  5
1FF
  8
LABELS_WORKS
 10
260865.044
 20
2704670.882
 30
0.0
 40
0.55
  1
TCCECH-04/003
  0
CIRCLE
  5
200
  8
ACT_RRM
 62
6
 10
260871.99
 20
2704681.111
 30
0.0
 40
1.0
  0
CIRCLE
  5
201
  8
ACT_RRM
 62
7
 10
260871.99
 20
2704681.111
 30
0.0
 40
0.55
  0
TEXT
  5
202
  8
LABELS_WORKS
 10
260873.28999999998
 20
2704682.111
 30
0.0
 40
0.55
  1
RRM.557
  0
CIRCLE
  5
203
  8
ACT_RRM
 62
6
 10
260860.795
 20
2704690.943
 30
0.0
 40
1.0
  0
CIRCLE
  5
204
  8
ACT_RRM
 62
7
 10
260860.795
 20
2704690.943
 30
0.0
 40
0.55
  0
TEXT
  5
205
  8
LABELS_WORKS
 10
260862.095
 20
2704691.943
 30
0.0
 40
0.55
  1
RRM.670
  0
TEXT
  5
206
  8
TITLE
 10
260809.265
 20
2704633.4820000003
 30
0.0
 40
1.6
  1
SHOP DRAWING - ELECTRICAL / AGL SCOPE (FIELD-GOVERNED)
  0
TEXT
  5
207
  8
TITLE
 10
260809.265
 20
2704631.6820000005
 30
0.0
 40
1.0
  1
TAXIWAY E (E4-E6) - LOCATION 3 - AGL WORKS PER FIELD VERIFICATION (Second_milling_area rev _1)
  0
TEXT
  5
208
  8
TITLE
 10
260809.265
 20
2704630.1420000005
 30
0.0
 40
0.7
  1
DWG NO: XXX-ELE-SHD-1003 REV P04  �  SCALE 1:250 @ A1  �  UTM 40N (EPSG:32640)  �  ISSUED 28.07.2026  �  PREPARED: MOHAMMED, AGL TEAM LEADER - ADB SAFEGATE AGL TEAM
  0
TEXT
  5
209
  8
TITLE
 10
260809.265
 20
2704628.8820000007
 30
0.0
 40
0.7
  1
REFS: FIELD SHEETS Document_3 / Second_milling_area rev _1 (26.07.2026) � AS-BUILT ASSET SURVEY assets_20260726120533.xlsx
  0
TEXT
  5
20A
  8
TITLE
 10
260809.265
 20
2704625.8820000007
 30
0.0
 40
1.0
  1
SCOPE / QUANTITIES (PER FIELD VERIFICATION)
  0
TEXT
  5
20B
  8
TITLE
 10
260809.265
 20
2704624.727000001
 30
0.0
 40
0.7
  1
SCOPE PER FIELD SHEET Second_milling_area rev _1 (12 ROWS) - FIELD CONDITION GOVERNS. rev _1 SUPERSEDES EARLIER REV (ALL-NO).
  0
TEXT
  5
20C
  8
TITLE
 10
260809.265
 20
2704623.572000001
 30
0.0
 40
0.7
  1
SHALLOW BASE AFFECTED + NEW CABLE (VIA SAWCUT): 4 No. - SBC102-01/038, 01/039, 02/035, 02/036 (EP7 STOP BAR)
  0
TEXT
  5
20D
  8
TITLE
 10
260809.265
 20
2704622.4170000013
 30
0.0
 40
0.7
  1
NEW SECONDARY CABLE ONLY (VIA DUCT): 8 No. - SBC102-01/040, 01/041, 02/037, 02/038, TCCECH-03/002, 04/002, 03/003, 04/003
  0
TEXT
  5
20E
  8
TITLE
 10
260809.265
 20
2704621.2620000015
 30
0.0
 40
0.7
  1
RRM.557 & RRM.670: REMOVE / PROTECT BEFORE SAWCUT, RE-FIX ON ORIGINAL LINE AFTER PAVING
  0
TEXT
  5
20F
  8
TITLE
 10
260809.265
 20
2704620.1070000017
 30
0.0
 40
0.7
  1
ISOLATE CIRCUITS: SBC102.01, SBC102.02, TCCECH.03, TCCECH.04 - PROVE DEAD BEFORE WORKS
  0
TEXT
  5
210
  8
TITLE
 10
260809.265
 20
2704617.1070000017
 30
0.0
 40
1.0
  1
GENERAL NOTES
  0
TEXT
  5
211
  8
TITLE
 10
260809.265
 20
2704615.952000002
 30
0.0
 40
0.7
  1
1. BASE LAYER: AS-BUILT AGL ASSET SURVEY assets_20260726120533.xlsx (636 ASSETS, UTM 40N / EPSG:32640). ALL ASSET POSITIONS AS-BUILT.
  0
TEXT
  5
212
  8
TITLE
 10
260809.265
 20
2704614.797000002
 30
0.0
 40
0.7
  1
2. AGL WORKS DEMARCATION (RED) DRAWN AROUND FIELD-VERIFIED AFFECTED ASSETS (+2.0 m) - FIELD CONDITION GOVERNS.
  0
TEXT
  5
213
  8
TITLE
 10
260809.265
 20
2704613.6420000023
 30
0.0
 40
0.7
  1
3. DUCT ROUTES INDICATIVE (LIGHT -> NEAREST MH/HH). CONFIRM AGAINST AGL DUCT-LAYOUT CAD (REV B) BEFORE WORKS.
  0
TEXT
  5
214
  8
TITLE
 10
260809.265
 20
2704612.4870000025
 30
0.0
 40
0.7
  1
4. SECONDARY CABLES: NO JOINTS PERMITTED - FULL MANHOLE-TO-LIGHT REPLACEMENT.
  0
TEXT
  5
215
  8
TITLE
 10
260809.265
 20
2704611.3320000027
 30
0.0
 40
0.7
  1
5. ISOLATE, LOCK OUT & PROVE DEAD ALL LISTED CIRCUITS AT CCR UNDER PERMIT BEFORE ANY CUTTING, CORING OR EXCAVATION.
  0
TEXT
  5
216
  8
TITLE
 10
260809.265
 20
2704610.177000003
 30
0.0
 40
0.7
  1
6. REINSTATEMENT SETTING-OUT BY CIVIL SURVEY FROM AS-BUILT EASTING/NORTHING (UTM 40N), CHECKED AGAINST ADJACENT UNDISTURBED FITTINGS BEFORE CORING.
  0
TEXT
  5
217
  8
TITLE
 10
260809.265
 20
2704609.022000003
 30
0.0
 40
0.7
  1
7. TAXIWAY CENTERLINE & STOP BAR ALIGNMENTS DERIVED FROM AS-BUILT AGL FITTING POSITIONS (TCC / SBC). EDGE / PAVEMENT BOUNDARY INDICATIVE AT 23 m WIDTH FROM AS-BUILT CL - CONFIRM ON SITE.
  0
TEXT
  5
218
  8
TITLE
 10
260809.265
 20
2704606.022000003
 30
0.0
 40
1.0
  1
LEGEND - WORKS ACTIONS (THIS SHEET)
  0
CIRCLE
  5
219
  8
ACT_CORE_SAW
 62
1
 10
260810.265
 20
2704604.172000003
 30
0.0
 40
1.0
  0
CIRCLE
  5
21A
  8
ACT_CORE_SAW
 62
30
 10
260810.265
 20
2704604.172000003
 30
0.0
 40
0.55
  0
TEXT
  5
21B
  8
TITLE
 10
260812.265
 20
2704603.822000003
 30
0.0
 40
0.7
  1
CORE OUT SHALLOW BASE + NEW SEC. CABLE (VIA SAWCUT) - OUTER RED / INNER ORANGE
  0
CIRCLE
  5
21C
  8
ACT_CABLE_DUCT
 62
5
 10
260810.265
 20
2704601.972000003
 30
0.0
 40
1.0
  0
CIRCLE
  5
21D
  8
ACT_CABLE_DUCT
 62
3
 10
260810.265
 20
2704601.972000003
 30
0.0
 40
0.55
  0
TEXT
  5
21E
  8
TITLE
 10
260812.265
 20
2704601.622000003
 30
0.0
 40
0.7
  1
NEW SECONDARY CABLE ONLY (VIA DUCT) - OUTER BLUE / INNER GREEN
  0
CIRCLE
  5
21F
  8
ACT_RRM
 62
6
 10
260810.265
 20
2704599.7720000027
 30
0.0
 40
1.0
  0
CIRCLE
  5
220
  8
ACT_RRM
 62
7
 10
260810.265
 20
2704599.7720000027
 30
0.0
 40
0.55
  0
TEXT
  5
221
  8
TITLE
 10
260812.265
 20
2704599.4220000026
 30
0.0
 40
0.7
  1
RRM - REMOVE / PROTECT / RE-FIX - OUTER MAGENTA / INNER WHITE
  0
CIRCLE
  5
222
  8
AGL_ASSETS_ALL
 10
260810.265
 20
2704597.5720000025
 30
0.0
 40
0.5
  0
TEXT
  5
223
  8
TITLE
 10
260812.265
 20
2704597.2220000024
 30
0.0
 40
0.7
  1
EXISTING AGL ASSET (AS-BUILT)
  0
LINE
  5
224
  8
DUCTS_CROSSING
 10
260809.265
 20
2704595.3720000023
 30
0.0
 11
260811.265
 21
2704595.3720000023
 31
0.0
  0
TEXT
  5
225
  8
TITLE
 10
260812.265
 20
2704595.022000002
 30
0.0
 40
0.7
  1
SECONDARY DUCT RUN CROSSING CUT (INDICATIVE)
  0
LINE
  5
226
  8
DUCTS_INDICATIVE_ALL
 10
260809.265
 20
2704593.172000002
 30
0.0
 11
260811.265
 21
2704593.172000002
 31
0.0
  0
TEXT
  5
227
  8
TITLE
 10
260812.265
 20
2704592.822000002
 30
0.0
 40
0.7
  1
INDICATIVE DUCT - LIGHT TO NEAREST PIT
  0
POLYLINE
  5
228
  8
AGL_WORKS_DEMARCATION
 66
1
 10
0.0
 20
0.0
 30
0.0
 70
1
  0
VERTEX
  5
22A
  8
AGL_WORKS_DEMARCATION
 10
260809.265
 20
2704590.622000002
 30
0.0
 70
0
  0
VERTEX
  5
22B
  8
AGL_WORKS_DEMARCATION
 10
260811.265
 20
2704590.622000002
 30
0.0
 70
0
  0
VERTEX
  5
22C
  8
AGL_WORKS_DEMARCATION
 10
260811.265
 20
2704591.4220000017
 30
0.0
 70
0
  0
VERTEX
  5
22D
  8
AGL_WORKS_DEMARCATION
 10
260809.265
 20
2704591.4220000017
 30
0.0
 70
0
  0
SEQEND
  5
229
  8
AGL_WORKS_DEMARCATION
  0
TEXT
  5
22E
  8
TITLE
 10
260812.265
 20
2704590.622000002
 30
0.0
 40
0.7
  1
AGL WORKS DEMARCATION (GOVERNING)
  0
POLYLINE
  5
22F
  8
AGL_FEED_PITS
 66
1
 10
0.0
 20
0.0
 30
0.0
 70
1
  0
VERTEX
  5
231
  8
AGL_FEED_PITS
 10
260809.265
 20
2704588.4220000017
 30
0.0
 70
0
  0
VERTEX
  5
232
  8
AGL_FEED_PITS
 10
260811.265
 20
2704588.4220000017
 30
0.0
 70
0
  0
VERTEX
  5
233
  8
AGL_FEED_PITS
 10
260811.265
 20
2704589.2220000015
 30
0.0
 70
0
  0
VERTEX
  5
234
  8
AGL_FEED_PITS
 10
260809.265
 20
2704589.2220000015
 30
0.0
 70
0
  0
SEQEND
  5
230
  8
AGL_FEED_PITS
  0
TEXT
  5
235
  8
TITLE
 10
260812.265
 20
2704588.4220000017
 30
0.0
 40
0.7
  1
AGL FEED MANHOLE / HANDHOLE
  0
LINE
  5
236
  8
MARK_CENTERLINE
 10
260809.265
 20
2704586.5720000016
 30
0.0
 11
260811.265
 21
2704586.5720000016
 31
0.0
  0
TEXT
  5
237
  8
TITLE
 10
260812.265
 20
2704586.2220000015
 30
0.0
 40
0.7
  1
TAXIWAY CENTERLINE (AS-BUILT, THROUGH TCC FITTINGS)
  0
LINE
  5
238
  8
MARK_STOPBAR
 10
260809.265
 20
2704584.3720000014
 30
0.0
 11
260811.265
 21
2704584.3720000014
 31
0.0
  0
TEXT
  5
239
  8
TITLE
 10
260812.265
 20
2704584.0220000013
 30
0.0
 40
0.7
  1
STOP BAR (AS-BUILT, THROUGH SBC FITTINGS)
  0
LINE
  5
23A
  8
MARK_EDGE
 10
260809.265
 20
2704582.172000001
 30
0.0
 11
260811.265
 21
2704582.172000001
 31
0.0
  0
TEXT
  5
23B
  8
TITLE
 10
260812.265
 20
2704581.822000001
 30
0.0
 40
0.7
  1
TAXIWAY EDGE / PAVEMENT BOUNDARY (INDICATIVE 23 m - CONFIRM ON SITE)
  0
ENDSEC
  0
EOF
